<?xml version="1.0" encoding="utf-8"?>
<!-- Generator: Adobe Illustrator 22.0.0, SVG Export Plug-In . SVG Version: 6.00 Build 0)  -->
<svg version="1.1" id="图层_1" xmlns="http://www.w3.org/2000/svg" xmlns:xlink="http://www.w3.org/1999/xlink" x="0px" y="0px"
	 viewBox="0 0 35.9 81.6" style="enable-background:new 0 0 35.9 81.6;" xml:space="preserve">
<g>
	<path d="M15.2,38.2c1,0.2,2.2,0,3.4-0.6v5.6c-2.1,1.5-4.1,1.9-5.9,1.3c-1.3-0.2-2.3-1.9-3.1-5c-1.5,1.3-2.7,2.5-3.8,3.7v-5.6
		c1-1,2-2,2.8-2.8c2.1-2.1,3.6-3.5,4.7-4.4c0.8-0.6,1.5-0.5,1.9,0.3c-0.4,1.3-0.9,2.5-1.6,3.8c-0.4,1.3-0.5,2.1-0.2,2.5
		C13.8,37.3,14.4,37.8,15.2,38.2z M7.7,41L9,40.7c-0.2,4,0.9,7.7,3.4,11.2c2.3,2.7,5.7,5.3,10.3,7.8c0,0.6-0.7,0.8-2.2,0.6
		c-5-0.4-7.7-0.7-8.1-0.9c-2.7-0.6-4.5-2.6-5.3-5.9C7.1,47.6,7.3,43.5,7.7,41z"/>
	<path d="M27.1,30.7c0.8-0.6,1.5-0.4,1.9,0.6c-0.2,1-0.8,2.3-1.9,3.8c-0.6,0.8-0.8,1.8-0.6,2.8c0.8,0.2,2.1,0.2,3.8,0
		c2.5-0.2,4.5-0.3,5.9-0.3v5.6c-2.9,0-6.3,0.1-10,0.3c-1,0-1.7-0.2-2-0.6S23.5,41.5,23,40c-1.9,1.3-3.4,2.3-4.7,3.1v-5.6
		c1.3-1,2.5-2,3.8-2.8C24.2,32.9,25.9,31.5,27.1,30.7z"/>
</g>
<path d="M6.5,43c-0.2,0-0.4,0-0.6,0c-1.8,0-3.6,0-5.4,0c0-2,0-4,0-6c1.7,0,3.3,0,5,0c0.7-0.3,1.3-0.7,2-1c0.3,1.7,0.7,3.3,1,5
	c-0.3,0.3-0.7,0.7-1,1S6.8,42.7,6.5,43z"/>
</svg>
