<?xml version="1.0" encoding="utf-8"?>
<!-- Generator: Adobe Illustrator 22.0.0, SVG Export Plug-In . SVG Version: 6.00 Build 0)  -->
<svg version="1.1" id="图层_1" xmlns="http://www.w3.org/2000/svg" xmlns:xlink="http://www.w3.org/1999/xlink" x="0px" y="0px"
	 viewBox="0 0 131 81.6" style="enable-background:new 0 0 131 81.6;" xml:space="preserve">
<g>
	<path d="M40.9,56.9c1.5,2.5,2.6,4.1,3.4,4.7c0.6,0.4,0.9,1,0.9,1.9s-0.3,1.8-0.8,3c-0.5,1.1-1.2,2.7-2,4.5
		c-0.8,2.3-1.4,4.1-1.6,5.3c-0.4,1-0.9,1-1.6,0C38,74,37.6,71.7,38,69.4c0.2-3.1,0.3-5.3,0.3-6.6S38,60,37.3,58.2
		c-0.7-1.9-2.7-4.5-5.8-7.8c-2.3-2.1-4.6-3.6-6.9-4.7c-2.7-1.5-5-2.2-6.9-2.2c-1.7,0-2.5,1.8-2.5,5.3c0,1.9,0.3,3.9,0.8,6.1
		c0.5,2.2,1.2,3.6,2,4.2c0.6,1,2.2,2.4,4.8,4.1c2.6,1.7,3.8,2.2,3.6,1.6V66h-6.6c-3.3,0-5.6-0.6-6.9-1.9c-1.9-2.1-2.7-4.8-2.5-8.1
		c0-2.9,1.1-7.2,3.4-12.8c-2.1-0.4-4.5-0.5-7.2-0.3c-2.7,0.2-4.7,0.3-5.9,0.3v-5.6c4.6,0,8.6,0.2,12.2,0.6c2.3,0.2,5.9,1.3,10.9,3.1
		c3.5,1.7,6.7,3.9,9.4,6.6C36.1,50.6,38.6,53.6,40.9,56.9z"/>
	<path d="M119.3,10c1-2.3,2.3-4.2,3.9-5.6c1.6-1.5,3.6-2.9,6.1-4.4h1.3c0,1.3-0.7,4-2.2,8.1c-0.6,2.9-0.7,4.9-0.3,5.9
		c-2.5,1-5.6,2.6-9.4,4.7c-12.5,8.8-24.3,14.8-35.3,18.1c-5.6,2.1-10.7,3.8-15.3,5c-3.8,2.9-6.1,4.4-7.2,4.4
		c-1.3,0.2-2.6-1.3-4.1-4.4c-0.8-2.5-1.3-4.4-1.3-5.6c0-1.7,0.6-2.5,1.9-2.5s2.8,0.7,4.7,2c1.9,1.4,4.1,1.9,6.6,1.7
		c2.3-0.4,7-1.7,14.1-3.8c5.8-1.9,11.3-4.1,16.3-6.6c8.8-4.8,14.3-8.3,16.6-10.6L119.3,10z"/>
</g>
</svg>
