<?xml version="1.0" encoding="utf-8"?>
<!-- Generator: Adobe Illustrator 22.0.0, SVG Export Plug-In . SVG Version: 6.00 Build 0)  -->
<svg version="1.1" id="图层_1" xmlns="http://www.w3.org/2000/svg" xmlns:xlink="http://www.w3.org/1999/xlink" x="0px" y="0px"
	 viewBox="0 0 91.3 81.6" style="enable-background:new 0 0 91.3 81.6;" xml:space="preserve">
<g>
	<path d="M34,43.2c-2.5,3.3-4.6,7.3-6.3,11.9c-0.6,0.4-1.3,0.7-1.9,0.9c-0.6,0-3.2-1.1-7.8-3.4c-2.3-1.5-5.4-3-9.4-4.7
		c-3.5-1.5-5.7-2.4-6.6-2.8c-0.8-0.4-1.3-0.8-1.3-1.3l0.6-0.9l2.8,0.3c4.8,1.5,8.3,2.2,10.6,2.2c2.9-0.2,5.6-0.7,8.1-1.6
		s6.1-3,10.9-6.6V43.2z M27.7,54.7c2.5,4.4,4.5,7.2,5.9,8.4c3.1,1.7,5.3,2.7,6.6,3.1c3.5,1.5,5.3,2.4,5.3,2.8
		c-0.6,0.4-1,0.6-1.3,0.6c-0.4,0.2-0.7,0.2-0.9,0h-1.3c-1-0.4-4.7-0.6-10.9-0.6c-1.7-0.2-2.6-0.5-2.8-0.9c-1-0.4-1.9-1.3-2.5-2.5
		l-1.3-3.4l0.9-6.9c-1.3,0.4-1.1,0.5,0.5,0.2S28.1,54.9,27.7,54.7z M43.4,38.2c1,0.2,2.2,0,3.4-0.6v5.6c-2.1,1.5-4.1,1.9-5.9,1.3
		c-1.3-0.2-2.3-1.9-3.1-5c-1.5,1.3-2.7,2.5-3.8,3.7v-5.9c1-0.8,2-1.7,2.8-2.5c2.1-2.1,3.6-3.5,4.7-4.4c0.8-0.6,1.5-0.5,1.9,0.3
		c-0.4,1.3-0.9,2.5-1.6,3.8c-0.4,1.3-0.5,2.1-0.2,2.5C42,37.3,42.5,37.8,43.4,38.2z"/>
	<path d="M62.1,29.1c0,0.8-0.5,2.2-1.6,4.2c-1,2-1.6,3.1-1.6,3.3c0,1.5,0.5,2.7,1.6,3.6c1,0.9,2.3,1.4,3.8,1.4
		c1.3,0,5.2-1.9,11.9-5.6c7.5-4.2,12.1-6.6,13.8-7.2c0.4,0,0.6,0.2,0.6,0.6L90.2,30c-5.8,4.8-9.1,7.5-9.7,8.1c-3.8,4-6,6.5-6.9,7.5
		c-2.7,2.7-4.6,4.1-5.6,4.1c-2.7,0.4-5-0.4-6.9-2.5c-2.1-2.7-3.6-5.4-4.7-8.1c-0.2-0.4-0.6-0.4-1.3,0c-2.9,1.7-5.8,3-8.8,4.1v-5.6
		c3.8-0.8,8.4-3.8,14.1-8.8C61.4,28.2,61.9,28.3,62.1,29.1z"/>
</g>
</svg>
