<?xml version="1.0" encoding="utf-8"?>
<!-- Generator: Adobe Illustrator 22.0.0, SVG Export Plug-In . SVG Version: 6.00 Build 0)  -->
<svg version="1.1" id="图层_1" xmlns="http://www.w3.org/2000/svg" xmlns:xlink="http://www.w3.org/1999/xlink" x="0px" y="0px"
	 viewBox="0 0 47.9 81.6" style="enable-background:new 0 0 47.9 81.6;" xml:space="preserve">
<g>
	<path d="M14.6,30.7c0.8-0.6,1.5-0.4,1.9,0.6c-0.2,1-0.8,2.3-1.9,3.8c-0.6,0.8-0.8,1.8-0.6,2.8c0.8,0.2,2.1,0.2,3.8,0
		c1.9-0.2,3.5-0.3,5-0.3v5.6c-2.3,0-5.3,0.1-9.1,0.3c-1,0-1.7-0.2-2-0.6S11,41.5,10.5,40c-1.9,1.3-3.4,2.3-4.7,3.1v-5.6
		c1.3-1,2.5-2,3.8-2.8C11.7,32.9,13.4,31.5,14.6,30.7z M22.4,61.3c-0.4,0-1.6-0.1-3.4-0.3c-4.8,0-8-0.5-9.5-1.6s-2.3-3.5-2.3-7.5
		c0.4-3.5,0.7-7,0.9-10.3c1-1.5,2.1-1,3.1,1.2c-0.4,4.4,0.9,8.1,4.1,11.3c0.8,1.3,3.3,3.5,7.5,6.9C22.9,61.2,22.8,61.3,22.4,61.3z"
		/>
	<path d="M28.4,41.8c-0.4-1.1-0.8-2-1.3-2.7c-1.5,1.3-3,2.6-4.7,4.1v-5.6c2.1-1.9,5.1-4.5,9.1-7.8l8.8-6.6c0.6-0.2,1,0,1.3,0.6
		c-0.6,1.9-1.9,3.6-3.8,5.3c-0.6,0.8-3.2,3.2-7.8,7.2c-0.2,0.2-0.2,0.7,0,1.6l17.8-0.3v5.6H34.6c-0.8,0.2-2.2,0.3-4.1,0.3
		C29.5,43.5,28.8,42.9,28.4,41.8z"/>
</g>
<path d="M6.5,43c-0.2,0-0.4,0-0.6,0c-1.8,0-3.6,0-5.4,0c0-2,0-4,0-6c1.7,0,3.3,0,5,0c0.7-0.3,1.3-0.7,2-1c0.3,1.7,0.7,3.3,1,5
	c-0.3,0.3-0.7,0.7-1,1S6.8,42.7,6.5,43z"/>
</svg>
