<?xml version="1.0" encoding="utf-8"?>
<!-- Generator: Adobe Illustrator 22.0.0, SVG Export Plug-In . SVG Version: 6.00 Build 0)  -->
<svg version="1.1" id="图层_1" xmlns="http://www.w3.org/2000/svg" xmlns:xlink="http://www.w3.org/1999/xlink" x="0px" y="0px"
	 viewBox="0 0 58.3 81.6" style="enable-background:new 0 0 58.3 81.6;" xml:space="preserve">
<g>
	<path d="M14.6,30.7c0.8-0.6,1.5-0.4,1.9,0.6c-0.2,1-0.8,2.3-1.9,3.8c-0.6,0.8-0.8,1.8-0.6,2.8c0.8,0.2,2.1,0.2,3.8,0
		c1.9-0.2,3.5-0.3,5-0.3v5.6c-2.3,0-5.3,0.1-9.1,0.3c-1,0-1.7-0.2-2-0.6S11,41.5,10.5,40c-1.9,1.3-3.4,2.3-4.7,3.1v-5.6
		c1.3-1,2.5-2,3.8-2.8C11.7,32.9,13.4,31.5,14.6,30.7z M22.4,61.3c-0.4,0-1.6-0.1-3.4-0.3c-4.8,0-8-0.5-9.5-1.6s-2.3-3.5-2.3-7.5
		c0.4-3.5,0.7-7,0.9-10.3c1-1.5,2.1-1,3.1,1.2c-0.4,4.4,0.9,8.1,4.1,11.3c0.8,1.3,3.3,3.5,7.5,6.9C22.9,61.2,22.8,61.3,22.4,61.3z"
		/>
	<path d="M25.9,29.7c1.7-5,5.7-8.3,12.2-10c6-0.2,9.9,0.8,11.6,3.1c1.7,2.3,2.3,4.1,1.9,5.3c0.4,2.7-0.5,5.5-2.8,8.4
		c-0.4,0.2-0.6,0.5-0.6,0.9c1.3,0.2,4.6,0.2,10,0v5.6l-11.6-0.3c-4.6,1.5-7.1,2.3-7.5,2.5c-2.3,0-4.9-0.4-8-1.1
		c-3-0.7-5.9-1.1-8.6-1.1v-5.6c1,0,1.9-0.1,2.5-0.3C24.9,34.7,25.2,32.2,25.9,29.7z M35.2,38.5c3.1,0,5.9-0.6,8.4-1.9
		c2.3-3.5,2.3-6.5,0-8.8c-1.3-0.8-3-1.3-5.3-1.3c-2.5,0.2-4.6,0.9-6.3,2c-1.7,1.1-2.7,2.8-3.1,4.8c-0.4,1.5-0.2,2.8,0.6,4.1
		C31.3,38.2,33.1,38.5,35.2,38.5z"/>
</g>
<path d="M6.5,43c-0.2,0-0.4,0-0.6,0c-1.8,0-3.6,0-5.4,0c0-2,0-4,0-6c1.7,0,3.3,0,5,0c0.7-0.3,1.3-0.7,2-1c0.3,1.7,0.7,3.3,1,5
	c-0.3,0.3-0.7,0.7-1,1S6.8,42.7,6.5,43z"/>
</svg>
