<?xml version="1.0" encoding="utf-8"?>
<!-- Generator: Adobe Illustrator 22.0.0, SVG Export Plug-In . SVG Version: 6.00 Build 0)  -->
<svg version="1.1" id="图层_1" xmlns="http://www.w3.org/2000/svg" xmlns:xlink="http://www.w3.org/1999/xlink" x="0px" y="0px"
	 viewBox="0 0 55 81.6" style="enable-background:new 0 0 55 81.6;" xml:space="preserve">
<g>
	<path d="M4.6,43.2c0,3.1,0.6,5.6,1.9,7.5c2.7,2.5,5.4,3.8,8.1,3.8c3.3-0.2,6.1-1.1,8.4-2.8c1.7-1.3,4.5-3.6,8.4-7.2
		c2.1-2.1,4.5-4.4,7.2-6.9v5.6c-2.1,2.1-4.1,4-5.9,5.6c-2.7,2.5-4.9,4.5-6.6,5.9c-4.4,4.6-8.4,6.7-12.2,6.3
		c-5.6-1.3-9.5-4.8-11.6-10.6c-0.8-2.3-1.4-4.7-1.6-7.2c0.2-4.8,1.3-8.6,3.1-11.6c2.7-5.2,7-8.4,12.8-9.7c7.3,0.2,11.5,2.1,12.5,5.6
		c0,2.3-0.8,4.5-2.5,6.6c-1.3,1.3-2.7,3.4-4.4,6.6c-1,1.9-3.2,2.7-6.6,2.5C12.3,43.2,8.6,43.2,4.6,43.2z M6.2,36.6
		c0,1.3,2,1.8,5.9,1.6c1.5,0,3.2-0.1,5.3-0.3c2.3-0.2,3.5-1.4,3.8-3.4c0-1.9-0.7-3.2-2.2-4.1c-2.1-1-4.5-1.1-7.2-0.3
		C8,31.9,6.2,34.1,6.2,36.6z"/>
	<path d="M45.9,30.7c1-0.6,1.8-0.4,2.2,0.6c-0.2,1-0.8,2.3-1.9,3.8c-0.6,0.8-0.8,1.8-0.6,2.8c0.8,0.2,2.1,0.2,3.8,0
		c2.5-0.2,4.5-0.3,5.9-0.3v5.6c-2.9,0-6.3,0.1-10,0.3c-1,0-1.7-0.2-2-0.6s-0.8-1.6-1.4-3.4c-1,1.7-2.2,2.9-3.4,3.7v-5.6
		c1-1,2.1-2.1,3.1-3.1C42.9,33,44.4,31.7,45.9,30.7z"/>
</g>
</svg>
