<?xml version="1.0" encoding="utf-8"?>
<!-- Generator: Adobe Illustrator 22.0.0, SVG Export Plug-In . SVG Version: 6.00 Build 0)  -->
<svg version="1.1" id="图层_1" xmlns="http://www.w3.org/2000/svg" xmlns:xlink="http://www.w3.org/1999/xlink" x="0px" y="0px"
	 viewBox="0 0 126.7 81.6" style="enable-background:new 0 0 126.7 81.6;" xml:space="preserve">
<g>
	<path d="M9.6,43.2c0,3.1,0.6,5.6,1.9,7.5c2.5,2.5,5.1,3.8,7.8,3.8c3.3-0.2,6.3-1.1,8.8-2.8c1.7-1.3,4.5-3.6,8.4-7.2
		c2.1-2.1,4.5-4.4,7.2-6.9v5.6c-2.1,2.1-4.1,4-5.9,5.6c-2.7,2.5-4.9,4.5-6.6,5.9c-4.4,4.6-8.4,6.7-12.2,6.3
		c-5.6-1.3-9.5-4.8-11.6-10.6c-0.8-2.3-1.4-4.7-1.6-7.2v-5.6L9,31.6c2.7-5.2,7-8.4,12.8-9.7c7.3,0.2,11.5,2.1,12.5,5.6
		c0,2.3-0.8,4.5-2.5,6.6c-1.3,1.3-2.7,3.4-4.4,6.6c-1,1.9-3.2,2.7-6.6,2.5C17.3,43.2,13.6,43.2,9.6,43.2z M11.2,36.6
		c0,1.3,2,1.8,5.9,1.6c1.5,0,3.2-0.1,5.3-0.3c2.3-0.2,3.5-1.4,3.8-3.4c0-1.9-0.7-3.2-2.2-4.1c-2.1-1-4.5-1.1-7.2-0.3
		C13,31.9,11.2,34.1,11.2,36.6z"/>
	<path d="M54,37.5c0.6,0,1.5,0,2.5,0v5.3c-2.5,1.5-4.7,2-6.6,1.6c-1.9-1-2.8-2.7-2.8-5c-1.5,1.3-2.7,2.5-3.8,3.7v-5.6
		c1-1,2-2,2.8-2.8c1.9-1.9,3.2-3.2,4.1-4.1c1-0.6,1.9-0.5,2.5,0.3c-0.4,1.3-0.8,2.4-1.3,3.4c-0.2,1.3-0.1,2.1,0.5,2.5
		C52.5,37.3,53.1,37.5,54,37.5z M56.5,37.5c6.9,0.4,14.6-0.6,23.1-3.1c5.8-1.7,11.7-4.4,17.5-8.1c5.8-3.8,10.5-6.8,14.1-9.1
		c2.1-3.8,4.6-7.6,7.5-11.6c2.1-2.5,4.3-4.2,6.6-5h0.6c0.2,0,0.2,0.4,0,1.3c-1.9,3.8-2.7,7.7-2.5,11.9c0,1,0,1.9,0,2.5
		c-0.8,0.8-4.5,2.4-10.9,4.7c-2.3,1.5-5.8,3.8-10.6,6.9C89.5,36,78.6,40.5,69,41.3l-12.5,1.6V37.5z"/>
</g>
<path d="M6.5,43c-0.2,0-0.4,0-0.6,0c-1.8,0-3.6,0-5.4,0c0-2,0-4,0-6c1.7,0,3.3,0,5,0c0.7-0.3,1.3-0.7,2-1c0.3,1.7,0.7,3.3,1,5
	c-0.3,0.3-0.7,0.7-1,1S6.8,42.7,6.5,43z"/>
</svg>
