<?xml version="1.0" encoding="utf-8"?>
<!-- Generator: Adobe Illustrator 22.0.0, SVG Export Plug-In . SVG Version: 6.00 Build 0)  -->
<svg version="1.1" id="图层_1" xmlns="http://www.w3.org/2000/svg" xmlns:xlink="http://www.w3.org/1999/xlink" x="0px" y="0px"
	 viewBox="0 0 70.1 81.6" style="enable-background:new 0 0 70.1 81.6;" xml:space="preserve">
<g>
	<path d="M5.2,48.5c1.9,3.3,4.2,5.4,6.9,6.3c1.3,0.4,3,0.7,5.3,0.9c8.8-0.4,15.5-3.2,20.3-8.4c1.5-1.5,2.3-2.8,2.5-4.1h4.7
		c-2.5,5.6-7.2,10.5-14.1,14.7c-2.9,1.9-6.7,3.1-11.3,3.8c-5.2,0-9.8-1.7-13.8-5c-2.9-3.5-4.6-8-5-13.4l0.3-5.6
		c0.4-4.2,1.9-7.6,4.5-10.3c2.6-2.7,5.7-4.5,9.2-5.3c3.8-0.4,6.7,0,8.8,1.3c2.1,1.3,3.1,2.4,3.1,3.4c0.2,1,0.1,2-0.3,2.8
		c-4.4,8.3-7.1,12.5-8.1,12.5c-4,0.8-8.9,1.2-14.7,1.2C3.9,43.8,4.4,45.6,5.2,48.5z M6.5,32.1C4.8,33.8,4,35.7,4,37.5
		c0.8,0.4,2.3,0.6,4.4,0.6c4.6,0,8-0.6,10.3-1.9c0.8-0.8,1.3-1.7,1.3-2.5c0.6-3.8-1.8-5.5-7.2-5.3C10.2,29.1,8.1,30.3,6.5,32.1z"/>
	<path d="M34.9,43.2c-2.1,0.4-3.5,0.5-4.4,0.3c-2.3,0-4-0.5-5-1.6c-0.8-1.3-1.3-3-1.3-5.3c0.8-3.3,1.8-5.6,2.8-6.9
		c1.9-2.5,4.3-4.3,7.3-5.5c3-1.1,5.7-1.5,8-1.1c1.9,0.2,3.2,1.1,4.1,2.8c1.7,3.3,1.6,7.2-0.3,11.6h4.4v5.6H34.9z M38,28.5
		c-0.8,0-1.9,0.1-3.1,0.3c-3.1,1.5-5,3.4-5.6,5.9c-0.2,2.5,1.3,3.8,4.4,3.8c2.9,0,5.5-0.4,7.8-1.3c1.3-0.8,1.9-2.3,1.9-4.4
		C42.7,29.7,41,28.3,38,28.5z M66.3,38.3c-1.8,3.9-3.6,5.7-5.5,5.5c-3.8-0.4-7.2-0.6-10.3-0.6v-5.6c3.3,0.2,5.2,0.1,5.6-0.3
		c4.2-1,7.2-3.1,9.1-6.3c1-1.7,2-2.9,2.8-3.8c0.4,0,0.7,0.3,0.9,0.9v1.3C69,31.5,68.1,34.5,66.3,38.3z"/>
</g>
</svg>
