<?xml version="1.0" encoding="utf-8"?>
<!-- Generator: Adobe Illustrator 22.0.0, SVG Export Plug-In . SVG Version: 6.00 Build 0)  -->
<svg version="1.1" id="图层_1" xmlns="http://www.w3.org/2000/svg" xmlns:xlink="http://www.w3.org/1999/xlink" x="0px" y="0px"
	 viewBox="0 0 112.7 81.6" style="enable-background:new 0 0 112.7 81.6;" xml:space="preserve">
<g>
	<path d="M34.5,43.2C32,46.5,30,50.5,28.3,55c-0.6,0.4-1.3,0.7-1.9,0.9c-0.6,0-3.2-1.1-7.8-3.4c-3.5-1.9-6.7-3.4-9.4-4.7
		c-3.5-1.5-5.7-2.4-6.6-2.8c-0.8-0.4-1.3-0.8-1.3-1.3L2,42.9l2.8,0.3c4.8,1.5,8.3,2.2,10.6,2.2c2.9-0.2,5.6-0.7,8.1-1.6
		s6.1-3,10.9-6.6V43.2z M44.2,37.5c1,0,2.2-0.1,3.4-0.3v5.6c-1.7,0-3.9,0.2-6.6,0.6c-1.5-0.2-2.4-1.6-2.8-4.1
		c-1.5,1.3-2.7,2.5-3.8,3.7v-5.9c1-0.8,2-1.7,2.8-2.5c2.1-2.1,3.6-3.5,4.7-4.4c0.8-0.6,1.5-0.5,1.9,0.3c-0.4,1.3-1,2.5-1.9,3.8
		c-0.4,1.3-0.4,2,0.2,2.3C42.7,37.1,43.4,37.3,44.2,37.5z M88.3,43.8c4.2,2.7,7.7,5.5,10.6,8.4c3.3,3.3,6,6.3,8.1,8.8
		c1.5,1.7,2.6,2.8,3.4,3.4c0.8,0.6,1.3,1.2,1.3,1.7s-0.3,1.3-0.9,2.3s-1.3,3.3-1.9,6.9c0,1.7-0.1,2.5-0.3,2.5
		c-2.1-0.8-3.6-2.6-4.7-5.3l-1.6-7.5c-0.4-2.3-1.5-4.7-3.1-7.2c-4.2-4.4-7.4-7.3-9.7-8.8c-6.9-4.4-15.8-6.5-26.9-6.3h-15v-5.6
		c11,0,17.8,0,20.3,0C75.3,37.6,82,39.8,88.3,43.8z"/>
</g>
</svg>
