<?xml version="1.0" encoding="utf-8"?>
<!-- Generator: Adobe Illustrator 22.0.0, SVG Export Plug-In . SVG Version: 6.00 Build 0)  -->
<svg version="1.1" id="图层_1" xmlns="http://www.w3.org/2000/svg" xmlns:xlink="http://www.w3.org/1999/xlink" x="0px" y="0px"
	 viewBox="0 0 65.6 81.6" style="enable-background:new 0 0 65.6 81.6;" xml:space="preserve">
<g>
	<path d="M34.5,43.2C32,46.5,30,50.5,28.3,55c-0.6,0.4-1.3,0.7-1.9,0.9c-0.6,0-3.2-1.1-7.8-3.4c-2.3-1.5-5.4-3-9.4-4.7
		c-3.5-1.5-5.7-2.4-6.6-2.8c-0.8-0.4-1.3-0.8-1.3-1.3L2,42.9l2.8,0.3c4.8,1.5,8.3,2.2,10.6,2.2c2.9-0.2,5.6-0.7,8.1-1.6
		s6.1-3,10.9-6.6V43.2z M43.9,37.9c1,0,2.3-0.2,3.8-0.6v5.6c-2.5,1.3-4.5,1.8-5.9,1.6c-1.5-0.2-2.6-1.9-3.4-5
		c-1.5,1.3-2.7,2.5-3.8,3.7v-5.9c1-0.8,2-1.7,2.8-2.5c2.1-2.1,3.6-3.5,4.7-4.4c0.8-0.6,1.5-0.5,1.9,0.3c-0.4,1.3-0.9,2.5-1.6,3.8
		c-0.4,1.3-0.4,2.1,0,2.5C42.8,37.3,43.3,37.6,43.9,37.9z M56.1,30.7c0.8-0.6,1.5-0.5,1.9,0.3c-0.2,1-0.7,2.3-1.6,3.8
		c-0.6,1-0.8,2.1-0.6,3.1c0.8,0.2,2.1,0.2,3.8,0c2.5-0.2,4.5-0.3,5.9-0.3v5.6c-2.9,0-6.3,0.1-10,0.3c-1,0-1.7-0.2-2-0.6
		s-0.6-1.4-0.8-2.8c-2.1,1.3-3.8,2.2-5,2.8v-5.6c1.3-0.8,2.5-1.7,3.8-2.5C53.5,32.9,55.1,31.5,56.1,30.7z"/>
</g>
</svg>
