<?xml version="1.0" encoding="utf-8"?>
<!-- Generator: Adobe Illustrator 22.0.0, SVG Export Plug-In . SVG Version: 6.00 Build 0)  -->
<svg version="1.1" id="图层_1" xmlns="http://www.w3.org/2000/svg" xmlns:xlink="http://www.w3.org/1999/xlink" x="0px" y="0px"
	 viewBox="0 0 65.7 81.6" style="enable-background:new 0 0 65.7 81.6;" xml:space="preserve">
<g>
	<path d="M41.5,44.1c4.2,2.7,7.7,5.5,10.6,8.4c3.3,3.3,6,6.3,8.1,8.8c1.5,1.7,2.6,2.8,3.4,3.4c0.8,0.6,1.3,1.2,1.3,1.7
		s-0.3,1.3-0.9,2.3s-1.3,3.3-1.9,6.9c0,1.7-0.1,2.5-0.3,2.5c-2.1-0.8-3.6-2.6-4.7-5.3l-1.6-7.5c-0.4-2.3-1.5-4.7-3.1-7.2
		c-4.2-4.4-7.4-7.3-9.7-8.8C35.9,45,26.9,43,15.9,43.2h-15v-5.6c11,0,17.8,0,20.3,0C28.5,38,35.2,40.1,41.5,44.1z"/>
</g>
</svg>
