<?xml version="1.0" encoding="utf-8"?>
<!-- Generator: Adobe Illustrator 22.0.0, SVG Export Plug-In . SVG Version: 6.00 Build 0)  -->
<svg version="1.1" id="图层_1" xmlns="http://www.w3.org/2000/svg" xmlns:xlink="http://www.w3.org/1999/xlink" x="0px" y="0px"
	 viewBox="0 0 109.1 81.6" style="enable-background:new 0 0 109.1 81.6;" xml:space="preserve">
<g>
	<path d="M38.4,42.9l-2.8,0.3c-1.5,0.4-2.5,0.6-3.1,0.6c-1.3,0-2.4-0.3-3.4-0.9c-1-0.6-1.8-1-2.2-1.2c-1,1-1.7,2.3-1.9,3.7
		c0,2.9-0.1,5.4-0.3,7.5c-0.2,1.3-0.5,2.1-0.9,2.5c-1.3,1-3.1,1.3-5.6,0.6c-3.1-0.6-6.5-2.3-10-5c-2.9-1.7-5.3-3.4-7.2-5.3l0.6-1.3
		c3.8,1.5,7.1,2.5,10,3.1c4-0.2,6.7-1.3,8.1-3.1c1.3-2.1,2.1-4.1,2.5-5.9c0.2-3.1,0.5-5,0.9-5.6c0.4-0.6,0.8-0.9,1.3-0.9
		c1.3,0,3.1,1.7,5.6,5c1.7,0.8,3.5,1.1,5.6,0.9h2.8V42.9z M38.4,37.9c6.9,0.2,14.6-0.9,23.1-3.4c5.8-1.7,11.7-4.4,17.5-8.1
		c5.8-3.8,10.5-6.8,14.1-9.1c2.1-3.8,4.6-7.6,7.5-11.6c2.1-2.5,4.3-4.2,6.6-5h0.6c0.2,0,0.2,0.4,0,1.3c-1.9,3.8-2.7,7.7-2.5,11.9
		c0,1,0,1.9,0,2.5c-0.8,0.8-4.5,2.4-10.9,4.7c-2.3,1.5-5.8,3.8-10.6,6.9C71.4,36,59.3,40.8,47.4,42.2l-9.1,0.6V37.9z"/>
</g>
</svg>
