<?xml version="1.0" encoding="utf-8"?>
<!-- Generator: Adobe Illustrator 22.0.0, SVG Export Plug-In . SVG Version: 6.00 Build 0)  -->
<svg version="1.1" id="图层_1" xmlns="http://www.w3.org/2000/svg" xmlns:xlink="http://www.w3.org/1999/xlink" x="0px" y="0px"
	 viewBox="0 0 41.3 81.6" style="enable-background:new 0 0 41.3 81.6;" xml:space="preserve">
<g>
	<path d="M40.9,43.2H38c-3.1,0.4-5,0.6-5.6,0.6c-1.3,0-2.4-0.3-3.4-0.9c-1-0.6-1.8-1-2.2-1.2c-1,1-1.7,2.3-1.9,3.7
		c0,2.9-0.1,5.4-0.3,7.5c-0.2,1.3-0.5,2.1-0.9,2.5c-1.3,1-3.1,1.3-5.6,0.6c-3.1-0.6-6.5-2.3-10-5c-2.9-1.7-5.3-3.4-7.2-5.3l0.6-1.3
		c3.8,1.5,7.1,2.5,10,3.1c4-0.2,6.7-1.3,8.1-3.1c1.3-2.1,2.1-4.1,2.5-5.9c0.2-3.1,0.5-5,0.9-5.6c0.4-0.6,0.8-0.9,1.3-0.9
		c1.3,0,3.1,1.7,5.6,5c1.9,0.6,4.6,0.8,8.1,0.6h2.8V43.2z"/>
</g>
</svg>
