<?xml version="1.0" encoding="utf-8"?>
<!-- Generator: Adobe Illustrator 22.0.0, SVG Export Plug-In . SVG Version: 6.00 Build 0)  -->
<svg version="1.1" id="图层_1" xmlns="http://www.w3.org/2000/svg" xmlns:xlink="http://www.w3.org/1999/xlink" x="0px" y="0px"
	 viewBox="0 0 73.3 81.6" style="enable-background:new 0 0 73.3 81.6;" xml:space="preserve">
<g>
	<path d="M34.1,43.2c-2.5,3.3-4.6,7.3-6.3,11.9c-0.6,0.4-1.3,0.7-1.9,0.9c-0.6,0-3.2-1.1-7.8-3.4c-2.3-1.5-5.4-3-9.4-4.7
		c-3.5-1.5-5.7-2.4-6.6-2.8C1.4,44.6,1,44.2,1,43.8l0.6-0.9l2.8,0.3c4.8,1.5,8.3,2.2,10.6,2.2c2.9-0.2,5.6-0.7,8.1-1.6
		c2.5-0.8,6.1-3,10.9-6.6V43.2z M43.5,37.9c1,0,2.3-0.3,3.8-0.9v5.6c-2.5,1.5-4.5,2.1-5.9,1.9c-1.5-0.2-2.6-1.9-3.4-5
		c-1.5,1.3-2.7,2.5-3.8,3.7v-5.9c1-0.8,2-1.7,2.8-2.5c2.1-2.1,3.6-3.5,4.7-4.4c0.8-0.6,1.5-0.5,1.9,0.3c-0.4,1.3-0.9,2.5-1.6,3.8
		s-0.7,2.1-0.3,2.5C42,37.3,42.6,37.6,43.5,37.9z M53.2,41.8c-0.4-1.1-0.8-2-1.3-2.7c-1.5,1.3-3,2.4-4.7,3.4v-5.6
		c2.1-1.5,5.1-3.9,9.1-7.2l8.8-6.6c0.6-0.2,1,0,1.3,0.6c-0.6,1.9-1.9,3.6-3.8,5.3c-0.6,0.8-3.2,3.2-7.8,7.2c-0.2,0.2-0.2,0.7,0,1.6
		l17.8-0.3v5.6H59.4c-0.8,0.2-2.2,0.3-4.1,0.3C54.3,43.5,53.6,42.9,53.2,41.8z"/>
</g>
</svg>
