<?xml version="1.0" encoding="utf-8"?>
<!-- Generator: Adobe Illustrator 22.0.0, SVG Export Plug-In . SVG Version: 6.00 Build 0)  -->
<svg version="1.1" id="图层_1" xmlns="http://www.w3.org/2000/svg" xmlns:xlink="http://www.w3.org/1999/xlink" x="0px" y="0px"
	 viewBox="0 0 31.6 81.6" style="enable-background:new 0 0 31.6 81.6;" xml:space="preserve">
<g>
	<path d="M11.8,41.8c-0.4-1.1-0.8-2-1.3-2.7c-1.5,1.3-3,2.6-4.7,4.1v-5.6c2.1-1.9,5.1-4.5,9.1-7.8l10-7.8c0.6-0.2,1,0,1.3,0.6
		c-0.6,1.9-2.3,4.1-5,6.6c-0.6,0.8-3.2,3.2-7.8,7.2c-0.2,0.2-0.2,0.7,0,1.6l17.8-0.3v5.6H18c-0.8,0.2-2.2,0.3-4.1,0.3
		C12.9,43.5,12.2,42.9,11.8,41.8z"/>
</g>
<path d="M6.5,43c-0.2,0-0.4,0-0.6,0c-1.8,0-3.6,0-5.4,0c0-2,0-4,0-6c1.7,0,3.3,0,5,0c0.7-0.3,1.3-0.7,2-1c0.3,1.7,0.7,3.3,1,5
	c-0.3,0.3-0.7,0.7-1,1S6.8,42.7,6.5,43z"/>
</svg>
