<?xml version="1.0" encoding="utf-8"?>
<!-- Generator: Adobe Illustrator 22.0.0, SVG Export Plug-In . SVG Version: 6.00 Build 0)  -->
<svg version="1.1" id="图层_1" xmlns="http://www.w3.org/2000/svg" xmlns:xlink="http://www.w3.org/1999/xlink" x="0px" y="0px"
	 viewBox="0 0 67.7 81.6" style="enable-background:new 0 0 67.7 81.6;" xml:space="preserve">
<g>
	<path d="M37.7,43.2h-2.8c-1,0.4-1.9,0.6-2.5,0.6c-1.3,0-2.4-0.3-3.4-0.9s-1.8-1-2.2-1.2c-1,1-1.7,2.3-1.9,3.7
		c0,2.9-0.1,5.4-0.3,7.5c-0.2,1.3-0.5,2.1-0.9,2.5c-1.2,1-3.1,1.3-5.6,0.6c-3.1-0.6-6.5-2.3-10-5c-2.9-1.7-5.3-3.4-7.2-5.3l0.6-1.3
		c3.8,1.5,7.1,2.5,10,3.1c4-0.2,6.7-1.3,8.1-3.1c1.3-2.1,2.1-4.1,2.5-5.9c0.2-3.1,0.5-5,0.9-5.6c0.4-0.6,0.8-0.9,1.3-0.9
		c1.3,0,3.1,1.7,5.6,5c1.9,0.6,3.5,0.8,5,0.6h2.8V43.2z M41.1,29.7c1.7-5,5.7-8.3,12.2-10c6-0.2,9.9,0.8,11.6,3.1
		c1.7,2.3,2.3,4.1,1.9,5.3c0.4,2.7-0.3,5.5-2.2,8.4c-1.3,2.3-2.6,4.4-4.1,6.2c-4.6,1.5-7.1,2.3-7.5,2.5c-2.3,0-4.7-0.4-7.3-1.1
		s-5.3-1.1-8-1.1v-5.6c1,0,1.9-0.1,2.5-0.3C40.2,34.7,40.5,32.2,41.1,29.7z M50.5,38.5c3.1,0,5.9-0.6,8.4-1.9c2.3-3.5,2.3-6.5,0-8.8
		c-1.3-0.8-3-1.3-5.3-1.3c-2.5,0.2-4.6,0.9-6.3,2c-1.7,1.1-2.7,2.8-3.1,4.8c-0.4,1.5-0.2,2.8,0.6,4.1C46.6,38.2,48.4,38.5,50.5,38.5
		z"/>
</g>
</svg>
