<?xml version="1.0" encoding="utf-8"?>
<!-- Generator: Adobe Illustrator 22.0.0, SVG Export Plug-In . SVG Version: 6.00 Build 0)  -->
<svg version="1.1" id="图层_1" xmlns="http://www.w3.org/2000/svg" xmlns:xlink="http://www.w3.org/1999/xlink" x="0px" y="0px"
	 viewBox="0 0 123.4 81.6" style="enable-background:new 0 0 123.4 81.6;" xml:space="preserve">
<g>
	<path d="M1.5,43.2H0.9v-5.6h16.3c2.9-0.2,4.4-1.6,4.4-4.1c0.2-2.7-1.3-4.2-4.4-4.4c-2.9,0.2-5.5-0.5-7.8-2.2
		c-2.1-2.3-2.3-4.7-0.6-7.2h1.3c1.9,2.5,4.7,3.8,8.4,3.8c4.4,0.4,7.1,2.8,8.1,7.2c0.2,1.9,0,3.9-0.6,5.9c-1.5,3.8-4.5,5.7-9.1,5.9
		C13,43,9.2,43.2,5.2,43.2c0,1.7,0.3,3.4,0.9,5.3c1.5,2.9,4.3,4.5,8.4,4.7c3.1,0.2,6.6-1,10.3-3.8c1.5-0.8,3.4-2.2,5.9-4.1
		c3.5-2.9,6.7-5.5,9.4-7.8v5.6l-5.9,5c-6.3,5.4-10.6,8.8-13,10.2c-2.4,1.4-4.7,1.9-7,1.7c-3.5-0.4-6.3-1.6-8.1-3.4
		c-1.7-1.9-2.9-4.3-3.8-7.2C1.8,47.8,1.5,45.7,1.5,43.2z"/>
	<path d="M50.2,37.5c0.6,0,1.5,0,2.5,0v5.3c-2.5,1.5-4.7,2-6.6,1.6c-1.9-1-2.8-2.7-2.8-5c-1.5,1.3-2.7,2.5-3.8,3.7v-5.6
		c1-1,2-2,2.8-2.8c1.9-1.9,3.2-3.2,4.1-4.1c1-0.6,1.9-0.5,2.5,0.3c-0.4,1.3-0.8,2.4-1.3,3.4c-0.2,1.3-0.1,2.1,0.5,2.5
		C48.7,37.3,49.4,37.5,50.2,37.5z M52.7,37.5c6.9,0.4,14.6-0.6,23.1-3.1c5.8-1.7,11.7-4.4,17.5-8.1c5.8-3.8,10.5-6.8,14.1-9.1
		c2.1-3.8,4.6-7.6,7.5-11.6c2.1-2.5,4.3-4.2,6.6-5h0.6c0.2,0,0.2,0.4,0,1.3c-1.9,3.8-2.7,7.7-2.5,11.9c0,1,0,1.9,0,2.5
		c-0.8,0.8-4.5,2.4-10.9,4.7c-2.3,1.5-5.8,3.8-10.6,6.9C85.8,36,74.8,40.5,65.2,41.3l-12.5,1.6V37.5z"/>
</g>
</svg>
