<?xml version="1.0" encoding="utf-8"?>
<!-- Generator: Adobe Illustrator 22.0.0, SVG Export Plug-In . SVG Version: 6.00 Build 0)  -->
<svg version="1.1" id="图层_1" xmlns="http://www.w3.org/2000/svg" xmlns:xlink="http://www.w3.org/1999/xlink" x="0px" y="0px"
	 viewBox="0 0 56.7 81.6" style="enable-background:new 0 0 56.7 81.6;" xml:space="preserve">
<g>
	<path d="M1.5,43.2H0.9v-5.6h16.3c2.9-0.2,4.4-1.6,4.4-4.1c0.2-2.7-1.3-4.2-4.4-4.4c-2.9,0.2-5.5-0.5-7.8-2.2
		c-2.1-2.3-2.3-4.7-0.6-7.2h1.3c1.9,2.5,4.7,3.8,8.4,3.8c4.4,0.4,7.1,2.8,8.1,7.2c0.2,1.9,0,3.9-0.6,5.9c-1.5,3.8-4.5,5.7-9.1,5.9
		C13,43,9.2,43.2,5.2,43.2c0,1.7,0.3,3.4,0.9,5.3c1.5,2.9,4.3,4.5,8.4,4.7c3.1,0.2,6.6-1,10.3-3.8c1.5-0.8,3.4-2.2,5.9-4.1
		c3.5-2.9,6.7-5.5,9.4-7.8v5.6l-5.9,5c-6.3,5.4-10.6,8.8-13,10.2c-2.4,1.4-4.7,1.9-7,1.7c-3.5-0.4-6.3-1.6-8.1-3.4
		c-1.7-1.9-2.9-4.3-3.8-7.2C1.8,47.8,1.5,45.7,1.5,43.2z"/>
	<path d="M47.1,30.7c1-0.6,1.8-0.4,2.2,0.6c-0.2,1-0.8,2.3-1.9,3.8c-0.6,0.8-0.8,1.8-0.6,2.8c0.8,0.2,2.1,0.2,3.8,0
		c2.5-0.2,4.5-0.3,5.9-0.3v5.6c-2.9,0-6.3,0.1-10,0.3c-1,0-1.7-0.2-2-0.6s-0.8-1.6-1.4-3.4c-1,1.7-2.2,2.9-3.4,3.7v-5.6
		c1-1,2.1-2.1,3.1-3.1C44.2,33,45.6,31.7,47.1,30.7z"/>
</g>
</svg>
