<?xml version="1.0" encoding="utf-8"?>
<!-- Generator: Adobe Illustrator 22.0.0, SVG Export Plug-In . SVG Version: 6.00 Build 0)  -->
<svg version="1.1" id="图层_1" xmlns="http://www.w3.org/2000/svg" xmlns:xlink="http://www.w3.org/1999/xlink" x="0px" y="0px"
	 viewBox="0 0 61.6 81.6" style="enable-background:new 0 0 61.6 81.6;" xml:space="preserve">
<g>
	<path d="M6.5,43.2H5.9v-5.6h16.3c2.9-0.2,4.4-1.6,4.4-4.1c0.2-2.7-1.3-4.3-4.4-4.7c-2.9,0.4-5.5-0.2-7.8-1.9
		c-2.1-2.3-2.3-4.9-0.6-7.8h1.3c1.9,2.9,4.7,4.4,8.4,4.4c4.4,0.4,7.1,2.8,8.1,7.2c0.2,1.9,0,3.9-0.6,5.9c-1.5,3.8-4.5,5.7-9.1,5.9
		c-3.8,0.4-7.6,0.6-11.6,0.6c0,1.7,0.3,3.4,0.9,5.3c1.5,2.9,4.3,4.5,8.4,4.7c3.1,0.2,6.6-1,10.3-3.8c1.5-0.8,3.4-2.2,5.9-4.1
		c3.5-2.9,6.7-5.5,9.4-7.8v5.6l-5.9,5c-6.3,5.4-10.6,8.8-13,10.2c-2.4,1.4-4.7,1.9-7,1.7c-3.5-0.4-6.3-1.6-8.1-3.4
		c-1.7-1.9-2.9-4.3-3.8-7.2C6.8,47.8,6.5,45.7,6.5,43.2z"/>
	<path d="M49.6,32.4c1-1.1,2.4-2.7,4.2-4.5c1.8-1.9,3.3-3,4.5-3.4c0.2,0,0.4,0.3,0.6,0.9c0,0.6-1.6,2.9-4.7,6.9
		c-2.5,3.1-4.1,5-4.7,5.6c0.6,0.8,1.3,1.3,1.9,1.3l2.2-0.9c1-0.4,2.5-0.6,4.4-0.6h3.4v5.6h-2.8c-2.3,0-4.2,0.3-5.8,0.9
		s-2.8,0.5-3.6-0.3c-0.8-1.7-1.4-3-1.6-4.1c-0.8,1-1.9,2.2-3.1,3.4v-5.6C46.9,35.3,48.6,33.5,49.6,32.4z"/>
</g>
<path d="M6.5,43c-0.2,0-0.4,0-0.6,0c-1.8,0-3.6,0-5.4,0c0-2,0-4,0-6c1.7,0,3.3,0,5,0c0.7-0.3,1.3,0.3,2,0c0.3,1.7,0.7,2.3,1,4
	c-0.3,0.3-0.7,0.7-1,1S6.8,42.7,6.5,43z"/>
</svg>
