<?xml version="1.0" encoding="utf-8"?>
<!-- Generator: Adobe Illustrator 22.0.0, SVG Export Plug-In . SVG Version: 6.00 Build 0)  -->
<svg version="1.1" id="图层_1" xmlns="http://www.w3.org/2000/svg" xmlns:xlink="http://www.w3.org/1999/xlink" x="0px" y="0px"
	 viewBox="0 0 78.6 81.6" style="enable-background:new 0 0 78.6 81.6;" xml:space="preserve">
<g>
	<path d="M1.5,43.2H0.9v-5.6h16.3c2.9-0.2,4.4-1.6,4.4-4.1c0.2-2.7-1.3-4.3-4.4-4.7c-2.9,0.4-5.5-0.2-7.8-1.9
		c-2.1-2.3-2.3-4.7-0.6-7.2h1.3c1.9,2.5,4.7,3.8,8.4,3.8c4.4,0.4,7.1,2.8,8.1,7.2c0.2,1.9,0,3.9-0.6,5.9c-1.5,3.8-4.5,5.7-9.1,5.9
		C13,43,9.2,43.2,5.2,43.2H1.5z M5.2,48.5c1.9,3.3,4.2,5.4,6.9,6.3c1.3,0.4,3,0.7,5.3,0.9c8.8-0.4,15.5-3.2,20.3-8.4
		c1.5-1.5,2.3-2.8,2.5-4.1h4.7c-2.5,5.6-7.2,10.5-14.1,14.7c-2.9,1.9-6.7,3.1-11.3,3.8c-5.2,0-9.8-1.7-13.8-5c-2.9-3.5-4.6-8-5-13.4
		h2.8C4.1,45,4.6,46.8,5.2,48.5z"/>
	<path d="M34.9,43.2c-2.1,0.4-3.5,0.5-4.4,0.3c-2.3,0-4-0.5-5-1.6c-0.8-1.3-1.3-3-1.3-5.3c0.8-3.3,1.8-5.6,2.8-6.9
		c1.9-2.5,4.3-4.3,7.3-5.5c3-1.1,5.7-1.5,8-1.1c1.9,0.2,3.2,1.1,4.1,2.8c1.7,3.3,1.6,7.2-0.3,11.6h2.5L48,42.9L34.9,43.2z M38,28.5
		c-0.8,0-1.9,0.1-3.1,0.3c-3.1,1.5-5,3.4-5.6,5.9c-0.2,2.5,1.3,3.8,4.4,3.8c2.9,0,5.5-0.4,7.8-1.3c1.3-0.8,1.9-2.3,1.9-4.4
		C42.7,29.7,41,28.3,38,28.5z M48.7,37.5c0.6,0,1.5-0.1,2.5-0.3c2.3-0.8,5.9-3.4,10.9-7.8l9.1-7.8l1.3-0.3l0.3,0.6
		c-0.6,2.5-2.2,4.9-4.7,7.2c-0.6,0.6-3,3.2-7.2,7.8l0.3,0.9l17.2-0.3v5.6l-6.6-0.3c-2.3,0-4.3,0-5.9,0c-0.4,0-1.2,0.2-2.3,0.5
		c-1.1,0.3-2,0.5-2.7,0.5c-1.5,0-2.6-1.8-3.4-5.3c-3.1,2.7-6.3,4.2-9.4,4.4L48.7,37.5z"/>
</g>
</svg>
