<?xml version="1.0" encoding="utf-8"?>
<!-- Generator: Adobe Illustrator 22.0.0, SVG Export Plug-In . SVG Version: 6.00 Build 0)  -->
<svg version="1.1" id="图层_1" xmlns="http://www.w3.org/2000/svg" xmlns:xlink="http://www.w3.org/1999/xlink" x="0px" y="0px"
	 viewBox="0 0 68.4 81.6" style="enable-background:new 0 0 68.4 81.6;" xml:space="preserve">
<g>
	<path d="M18.5,43.2C13.5,44,10,45,7.9,46.3c-2.1,1.3-3.2,1.9-3.4,1.9C2,47.3,0.8,42.9,1,34.7c0.2-1,0.8-1.8,1.9-2.2
		c1-0.2,2.2,0.5,3.4,2.2c1.3,1.7,2.2,2.6,2.8,2.8c3.5,0,6.7,0,9.4,0V43.2z M37.6,31c-4,0.6-7.1-0.1-9.4-2.2c-1.7-1.3-2.5-3-2.5-5.3
		c0.2-2.5,0.9-3,2.2-1.6c1.3,1.5,3,2.3,5.3,2.5c1.9,0.2,4.4-0.5,7.5-2.2c1.7-0.8,3.1-1.3,4.4-1.3c1.7,0.6,2.2,1.5,1.6,2.5
		c-1.3,1.5-2.6,2.7-4.1,3.8c-1.7,2.1-2.7,3.8-3.1,5c-0.4,1.3-0.6,2.3-0.6,3.1c0.4,2.5,1.7,3.3,3.8,2.5c3.1-0.2,5.8-0.3,8.1-0.3v5.6
		c-2.7,0-5.6,0.1-8.8,0.3c-1.5,1.7-3,2.6-4.7,2.8c-1.3-0.4-2-1.4-2.2-2.8c-4.6-0.2-10.1-0.3-16.6-0.3v-5.6C25.2,37.8,31,38,36,38.2
		C36,35.5,36.5,33.1,37.6,31z"/>
	<path d="M59.2,30.7c0.8-0.6,1.5-0.4,1.9,0.6c-0.2,1-0.8,2.3-1.9,3.8c-0.6,0.8-0.8,1.8-0.6,2.8c0.8,0.2,2.1,0.2,3.8,0
		c2.5-0.2,4.5-0.3,5.9-0.3v5.6c-2.9,0-6.2,0.1-10,0.3c-1,0-1.7-0.2-2-0.6s-0.7-1.4-1.1-2.8c-1.9,1.3-3.4,2.3-4.7,3.1v-5.6
		c1.3-1,2.5-2,3.8-2.8C56.2,32.9,57.9,31.5,59.2,30.7z"/>
</g>
</svg>
