<?xml version="1.0" encoding="utf-8"?>
<!-- Generator: Adobe Illustrator 22.0.0, SVG Export Plug-In . SVG Version: 6.00 Build 0)  -->
<svg version="1.1" id="图层_1" xmlns="http://www.w3.org/2000/svg" xmlns:xlink="http://www.w3.org/1999/xlink" x="0px" y="0px"
	 viewBox="0 0 57.3 81.6" style="enable-background:new 0 0 57.3 81.6;" xml:space="preserve">
<g>
	<path d="M18.9,31c-4,0.6-7.1-0.1-9.4-2.2c-1.7-1.3-2.5-3-2.5-5.3c0.2-2.5,0.9-3,2.2-1.6c1.3,1.5,3,2.3,5.3,2.5
		c1.9,0.2,4.4-0.5,7.5-2.2c1.7-0.8,3.1-1.3,4.4-1.3c1.7,0.6,2.2,1.5,1.6,2.5c-1.3,1.5-2.6,2.7-4.1,3.8c-1.7,2.1-2.7,3.8-3.1,5
		c-0.4,1.3-0.6,2.3-0.6,3.1c0.4,2.5,1.7,3.3,3.8,2.5c3.1-0.2,5.8-0.3,8.1-0.3v5.6c-2.7,0-5.6,0.1-8.8,0.3c-1.5,1.7-3,2.6-4.7,2.8
		c-1.3-0.4-2-1.4-2.2-2.8c-4.6-0.2-10.1-0.3-16.6-0.3v-5.6c6.7,0.2,12.5,0.4,17.5,0.6C17.4,35.5,17.9,33.1,18.9,31z"/>
	<path d="M37.7,41.8c-0.4-1.1-0.8-2-1.3-2.7c-1.5,1.3-3,2.6-4.7,4.1v-5.6c2.1-1.9,5.1-4.5,9.1-7.8l8.8-6.6c0.6-0.2,1,0,1.3,0.6
		c-0.6,1.9-1.9,3.6-3.8,5.3c-0.6,0.8-3.2,3.2-7.8,7.2c-0.2,0.2-0.2,0.7,0,1.6L57,37.5v5.6H43.9c-0.8,0.2-2.2,0.3-4.1,0.3
		C38.8,43.5,38.1,42.9,37.7,41.8z"/>
</g>
</svg>
