<?xml version="1.0" encoding="utf-8"?>
<!-- Generator: Adobe Illustrator 22.0.0, SVG Export Plug-In . SVG Version: 6.00 Build 0)  -->
<svg version="1.1" id="图层_1" xmlns="http://www.w3.org/2000/svg" xmlns:xlink="http://www.w3.org/1999/xlink" x="0px" y="0px"
	 viewBox="0 0 69.3 81.6" style="enable-background:new 0 0 69.3 81.6;" xml:space="preserve">
<g>
	<path d="M19.9,31c-4,0.6-7.1-0.1-9.4-2.2c-1.7-1.3-2.5-3-2.5-5.3c0.2-2.5,0.9-3,2.2-1.6c1.3,1.5,3,2.3,5.3,2.5
		c1.9,0.2,4.4-0.5,7.5-2.2c1.7-0.8,3.1-1.3,4.4-1.3c1.7,0.6,2.2,1.5,1.6,2.5c-1.3,1.5-2.6,2.7-4.1,3.8c-1.7,2.1-2.7,3.8-3.1,5
		c-0.4,1.3-0.6,2.3-0.6,3.1c0.4,2.5,1.7,3.3,3.8,2.5c3.1-0.2,5.8-0.3,8.1-0.3v5.6c-2.7,0-5.6,0.1-8.8,0.3c-1.5,1.7-3,2.6-4.7,2.8
		c-1.3-0.4-2-1.4-2.2-2.8c-4.6-0.2-10.1-0.3-16.6-0.3v-5.6c6.7,0.2,12.5,0.4,17.5,0.6C18.4,35.5,18.9,33.1,19.9,31z"/>
	<path d="M43.4,61.6c-2.5-0.8-4.5-2.3-5.9-4.4c-1.5-2.5-2.4-4.8-2.8-6.9c-0.4-2.1-0.7-4.5-0.9-7.2h-0.9v-5.6l1.3-0.3
		c0.4-2.5,1.3-4.7,2.7-6.6c1.4-1.9,3.3-3.9,5.8-5.9c2.9-1.9,5.5-2.9,7.8-3.1c5.6-0.6,9.8-0.1,12.5,1.6c2.7,1.9,4.2,3.4,4.5,4.5
		c0.3,1.1,0.5,1.8,0.5,2c0,0.6-1.4,2.3-4.1,5c-2.7,3.1-4.4,5.2-5,6.3c-0.6,1-1.5,1.8-2.5,2.2H36.8c0,3.1,0.7,5.8,2.2,8.1
		c2.3,2.9,5.5,4.4,9.7,4.4c5.2-0.2,10-1.8,14.4-4.7c3.5-2.3,5.5-3.4,5.9-3.4c0.2,0.6-0.6,2-2.3,4.1c-1.8,2.1-4.9,4.4-9.5,7
		C52.5,61.2,47.9,62.2,43.4,61.6z M40.2,32.9c-1,1-1.6,2.5-1.6,4.4c3.3,0.2,6.8,0.2,10.3,0c3.8,0,6.1-0.9,7.2-2.8
		c0.2-2.7-1-4.8-3.8-6.3c-2.7-0.6-5.2-0.4-7.3,0.6C42.9,29.8,41.3,31.2,40.2,32.9z"/>
</g>
</svg>
