<?xml version="1.0" encoding="utf-8"?>
<!-- Generator: Adobe Illustrator 22.0.0, SVG Export Plug-In . SVG Version: 6.00 Build 0)  -->
<svg version="1.1" id="图层_1" xmlns="http://www.w3.org/2000/svg" xmlns:xlink="http://www.w3.org/1999/xlink" x="0px" y="0px"
	 viewBox="0 0 110.9 81.6" style="enable-background:new 0 0 110.9 81.6;" xml:space="preserve">
<g>
	<path d="M18.7,43.2C13.7,44,10.1,45,8,46.3c-2.1,1.3-3.2,1.9-3.4,1.9C2.1,47.3,1,42.9,1.2,34.7C1.4,33.7,2,33,3,32.5
		c1-0.2,2.2,0.5,3.4,2.2c1.3,1.7,2.2,2.6,2.8,2.8c3.5,0,6.7,0,9.4,0V43.2z M37.7,31c-4,0.6-7.1-0.1-9.4-2.2c-1.7-1.3-2.5-3-2.5-5.3
		c0.2-2.5,0.9-3,2.2-1.6c1.3,1.5,3,2.3,5.3,2.5c1.9,0.2,4.4-0.5,7.5-2.2c1.7-0.8,3.1-1.3,4.4-1.3c1.7,0.6,2.2,1.5,1.6,2.5
		c-1.3,1.5-2.6,2.7-4.1,3.8c-1.7,2.1-2.7,3.8-3.1,5c-0.4,1.3-0.6,2.3-0.6,3.1c0.4,2.5,1.7,3.3,3.8,2.5c3.1-0.2,5.8-0.3,8.1-0.3v5.6
		c-2.7,0-5.6,0.1-8.8,0.3c-1.5,1.7-3,2.6-4.7,2.8c-1.3-0.4-2-1.4-2.2-2.8c-4.6-0.2-10.1-0.3-16.6-0.3v-5.6
		c6.7,0.2,12.5,0.4,17.5,0.6C36.2,35.5,36.7,33.1,37.7,31z"/>
	<path d="M54,29.7c1.7-5,5.7-8.3,12.2-10c6-0.2,9.9,0.8,11.6,3.1c1.7,2.3,2.3,4.1,1.9,5.3c0.4,2.7-0.5,5.5-2.8,8.4
		c-0.4,0.2-0.6,0.5-0.6,0.9c1.3,0.2,2.7,0.3,4.4,0.3v5h-5.9c-4.6,1.5-7.1,2.3-7.5,2.5c-2.3,0-4.9-0.4-8-1.1c-3-0.7-5.9-1.1-8.6-1.1
		v-5.6c1,0,1.9-0.1,2.5-0.3C53,34.7,53.4,32.2,54,29.7z M63.4,38.5c3.1,0,5.9-0.6,8.4-1.9c2.3-3.5,2.3-6.5,0-8.8
		c-1.3-0.8-3-1.3-5.3-1.3c-2.5,0.2-4.6,0.9-6.3,2c-1.7,1.1-2.7,2.8-3.1,4.8c-0.4,1.5-0.2,2.8,0.6,4.1C59.4,38.2,61.3,38.5,63.4,38.5
		z M80.5,37.9c1-0.2,2.1-0.4,3.1-0.6c2.3-0.8,5.9-3.4,10.9-7.8l9.1-7.8l1.3-0.3l0.3,0.6c-0.6,2.5-2.2,4.9-4.7,7.2
		c-0.6,0.6-3,3.2-7.2,7.8l0.3,0.9l17.2-0.3v5.6l-6.6-0.3c-2.3,0-4.3,0-5.9,0c-0.4,0-1.2,0.2-2.3,0.5c-1.1,0.3-2,0.5-2.7,0.5
		c-1.5,0-2.6-1.8-3.4-5.3c-3.1,2.7-6.3,4.2-9.4,4.4V37.9z"/>
</g>
</svg>
