<?xml version="1.0" encoding="utf-8"?>
<!-- Generator: Adobe Illustrator 22.0.0, SVG Export Plug-In . SVG Version: 6.00 Build 0)  -->
<svg version="1.1" id="图层_1" xmlns="http://www.w3.org/2000/svg" xmlns:xlink="http://www.w3.org/1999/xlink" x="0px" y="0px"
	 viewBox="0 0 61.4 81.6" style="enable-background:new 0 0 61.4 81.6;" xml:space="preserve">
<g>
	<path d="M35.9,9.7c1.9-0.8,3.6-1.3,5.3-1.3c2.9,0.6,4.6,2.4,5,5.3c0,2.3-0.9,4.4-2.7,6.3c-1.8,1.9-3.1,2.8-3.9,2.8
		c-0.8-0.8-1.4-2.2-1.6-4.1c-0.8-2.5-2.1-3.3-3.8-2.5l-9.4,8.4c-5.2,5-8.3,8-9.2,9.1c-0.9,1-1.3,1.8-0.9,2.3c0.3,0.5,0.6,1.2,0.8,2
		h8.1c5.8,0,12.6-0.2,20.3-0.6v5.6c-4.6-0.2-9.4-0.3-14.4-0.3c-5,0-9.2,0.2-12.5,0.6c-1.7,1-2.7,1.6-3.1,1.6c-0.4,0-0.9-0.3-1.6-0.9
		c-0.4-1.3-0.3-3.3,0.3-6.2c-0.6,0-2.9,1.8-6.9,5.3v-5.6c6.5-6.3,12-11.5,16.6-15.6C26.6,17.8,31.1,13.7,35.9,9.7z"/>
	<path d="M51.8,30.7c0.8-0.6,1.5-0.4,1.9,0.6c-0.2,1-0.8,2.3-1.9,3.8c-0.6,0.8-0.8,1.8-0.6,2.8c0.8,0.2,2.1,0.2,3.8,0
		c2.5-0.2,4.5-0.3,5.9-0.3v5.6c-2.9,0-6.3,0.1-10,0.3c-1,0-1.7-0.2-2-0.6s-0.7-1.4-1.1-2.8c-1.9,1.3-3.4,2.3-4.7,3.1v-5.6
		c1.3-1,2.5-2,3.8-2.8C48.9,32.9,50.5,31.5,51.8,30.7z"/>
</g>
<path d="M6.5,43c-0.2,0-0.4,0-0.6,0c-1.8,0-3.6,0-5.4,0c0-2,0-4,0-6c1.7,0,3.3,0,5,0c0.7-0.3,1.3-0.7,2-1c0.3,1.7,0.7,3.3,1,5
	c-0.3,0.3-0.7,0.7-1,1S6.8,42.7,6.5,43z"/>
</svg>
