<?xml version="1.0" encoding="utf-8"?>
<!-- Generator: Adobe Illustrator 22.0.0, SVG Export Plug-In . SVG Version: 6.00 Build 0)  -->
<svg version="1.1" id="图层_1" xmlns="http://www.w3.org/2000/svg" xmlns:xlink="http://www.w3.org/1999/xlink" x="0px" y="0px"
	 viewBox="0 0 133.7 81.6" style="enable-background:new 0 0 133.7 81.6;" xml:space="preserve">
<g>
	<path d="M16.5,61.6c-2.5-0.8-4.5-2.3-5.9-4.4c-1.5-2.5-2.4-4.8-2.8-6.9c-0.4-2.1-0.7-4.5-0.9-7.2H5.9v-5.6l1.3-0.3
		c0.4-2.5,1.3-4.7,2.7-6.6c1.4-1.9,3.3-3.9,5.8-5.9c2.9-1.9,5.5-2.9,7.8-3.1c5.6-0.6,9.8-0.1,12.5,1.6c2.7,1.9,4.2,3.4,4.5,4.5
		c0.3,1.1,0.5,1.8,0.5,2c0,0.6-1.4,2.3-4.1,5c-2.7,3.1-4.4,5.2-5,6.3c-0.6,1-1.5,1.8-2.5,2.2H9.9c0,3.1,0.7,5.8,2.2,8.1
		c2.3,2.9,5.5,4.4,9.7,4.4c5.2-0.2,10-1.8,14.4-4.7c3.5-2.3,5.5-3.4,5.9-3.4c0.2,0.6-0.6,2-2.3,4.1c-1.8,2.1-4.9,4.4-9.5,7
		C25.6,61.2,21.1,62.2,16.5,61.6z M13.4,32.9c-1,1-1.6,2.5-1.6,4.4c3.3,0.2,6.8,0.2,10.3,0c3.8,0,6.1-0.9,7.2-2.8
		c0.2-2.7-1-4.8-3.8-6.3c-2.7-0.6-5.2-0.4-7.3,0.6C16,29.8,14.4,31.2,13.4,32.9z"/>
	<path d="M115.5,10c1-2.3,2.3-4.2,3.9-5.6C121,3,123,1.5,125.5,0h1.3c0,1.3-0.7,4-2.2,8.1c-0.6,2.9-0.7,4.9-0.3,5.9
		c-2.5,1-5.6,2.6-9.4,4.7c-12.5,8.8-24.3,14.8-35.3,18.1c-5.6,2.1-10.7,3.8-15.3,5c-3.8,2.9-6.1,4.4-7.2,4.4
		c-1.3,0.2-2.6-1.3-4.1-4.4c-0.8-2.5-1.3-4.4-1.3-5.6c0-1.7,0.6-2.5,1.9-2.5s2.8,0.7,4.7,2c1.9,1.4,4.1,1.9,6.6,1.7
		c2.3-0.4,7-1.7,14.1-3.8c5.8-1.9,11.3-4.1,16.3-6.6c8.8-4.8,14.3-8.3,16.6-10.6L115.5,10z"/>
</g>
<path d="M6.5,43c-0.2,0-0.4,0-0.6,0c-1.8,0-3.6,0-5.4,0c0-2,0-4,0-6c1.7,0,3.3,0,5,0c0.7-0.3,1.3,0.3,2,0c0.3,1.7,0.7,2.3,1,4
	c-0.3,0.3-0.7,0.7-1,1S6.8,42.7,6.5,43z"/>
</svg>
