<?xml version="1.0" encoding="utf-8"?>
<!-- Generator: Adobe Illustrator 22.0.0, SVG Export Plug-In . SVG Version: 6.00 Build 0)  -->
<svg version="1.1" id="图层_1" xmlns="http://www.w3.org/2000/svg" xmlns:xlink="http://www.w3.org/1999/xlink" x="0px" y="0px"
	 viewBox="0 0 106.4 81.6" style="enable-background:new 0 0 106.4 81.6;" xml:space="preserve">
<g>
	<path d="M30.5,44.1c-1.7,0.6-2.8,0.9-3.4,0.9c-1.5,0-2.6-0.7-3.3-2.2c-0.7-1.5-1.1-2.8-1.1-4.1c-0.8,0-1.4,0.2-1.6,0.6
		c-1.5,2.1-2.8,3.7-4.1,4.8S14.7,46,13.7,46C12.2,46,9,44,4,40c-2.3-1.9-3.2-3.3-2.8-4.4C1.6,35,2.6,35.1,4.3,36
		c3.1,1.3,5.8,1.8,8.1,1.6c1.5,0,3.2-0.8,5.3-2.5c9.4-8.8,15.7-14.2,19.1-16.3c1.7-0.4,2.4-0.1,2.2,0.9c-0.4,1.5-3.5,4.9-9.4,10.3
		c-4,3.8-5.5,6-4.7,6.9c0.2,1,2,1.5,5.3,1.3c6-0.2,10.1-0.4,12.2-0.6v5.6C35.8,43,31.8,43.3,30.5,44.1z"/>
	<path d="M82.4,44.1c4.2,2.7,7.7,5.5,10.6,8.4c3.3,3.3,6,6.3,8.1,8.8c1.5,1.7,2.6,2.8,3.4,3.4c0.8,0.6,1.3,1.2,1.3,1.7
		s-0.3,1.3-0.9,2.3s-1.3,3.3-1.9,6.9c0,1.7-0.1,2.5-0.3,2.5c-2.1-0.8-3.6-2.6-4.7-5.3l-1.6-7.5c-0.4-2.3-1.5-4.7-3.1-7.2
		c-4.2-4.4-7.4-7.3-9.7-8.8C76.8,45,67.8,43,56.8,43.2h-15v-5.6c11,0,17.8,0,20.3,0C69.4,38,76.2,40.1,82.4,44.1z"/>
</g>
</svg>
