<?xml version="1.0" encoding="utf-8"?>
<!-- Generator: Adobe Illustrator 22.0.0, SVG Export Plug-In . SVG Version: 6.00 Build 0)  -->
<svg version="1.1" id="图层_1" xmlns="http://www.w3.org/2000/svg" xmlns:xlink="http://www.w3.org/1999/xlink" x="0px" y="0px"
	 viewBox="0 0 59.7 81.6" style="enable-background:new 0 0 59.7 81.6;" xml:space="preserve">
<g>
	<path d="M30.4,44.1C28.7,44.7,27.6,45,27,45c-1.5,0-2.6-0.7-3.3-2.2c-0.7-1.5-1.1-2.8-1.1-4.1c-0.8,0-1.4,0.2-1.6,0.6
		c-1.5,2.1-2.8,3.7-4.1,4.8S14.6,46,13.5,46c-1.5,0-4.7-2-9.7-5.9c-2.3-1.9-3.2-3.3-2.8-4.4C1.4,35,2.5,35.1,4.2,36
		c3.1,1.3,5.8,1.8,8.1,1.6c1.5,0,3.2-0.8,5.3-2.5c9.4-8.8,15.7-14.2,19.1-16.3c1.7-0.4,2.4-0.1,2.2,0.9c-0.4,1.5-3.5,4.9-9.4,10.3
		c-4,3.8-5.5,6-4.7,6.9c0.2,1,2,1.5,5.3,1.3c6-0.2,10.1-0.4,12.2-0.6v5.6C35.6,43,31.7,43.3,30.4,44.1z"/>
	<path d="M50.4,30.7c0.8-0.6,1.5-0.4,1.9,0.6c-0.2,1-0.8,2.3-1.9,3.8c-0.6,0.8-0.8,1.8-0.6,2.8c0.8,0.2,2.1,0.2,3.8,0
		c2.5-0.2,4.5-0.3,5.9-0.3v5.6c-2.9,0-6.3,0.1-10,0.3c-1,0-1.7-0.2-2-0.6s-0.7-1.4-1.1-2.8c-1.9,1.3-3.4,2.3-4.7,3.1v-5.6
		c1.3-1,2.5-2,3.8-2.8C47.5,32.9,49.2,31.5,50.4,30.7z"/>
</g>
</svg>
