<?xml version="1.0" encoding="utf-8"?>
<!-- Generator: Adobe Illustrator 22.0.0, SVG Export Plug-In . SVG Version: 6.00 Build 0)  -->
<svg version="1.1" id="图层_1" xmlns="http://www.w3.org/2000/svg" xmlns:xlink="http://www.w3.org/1999/xlink" x="0px" y="0px"
	 viewBox="0 0 89.4 81.6" style="enable-background:new 0 0 89.4 81.6;" xml:space="preserve">
<g>
	<path d="M16.8,21.9c2.9,1.7,4.4,3.6,4.4,5.9c-0.4,1.5-1.1,2.7-2.2,3.8c-1.5,2.5-2.1,4.5-1.9,5.9c2.7,0,5.4,0,8.1,0v5.6
		c-5-0.2-8.5,0.3-10.6,1.6c-1.7,0-2.8-0.7-3.4-2.2c-4.6,0.2-8,0.4-10.3,0.6v-5.6h11.3c1.5-0.2,2.2-1.4,2.2-3.4
		c-0.8-3.3-1.6-5.7-2.2-7.2C10,23.2,8.7,21,8,20.4s-0.9-1-0.9-1.3c0.4-0.6,0.9-0.8,1.6-0.6C12.6,19.9,15.3,21.1,16.8,21.9z"/>
	<path d="M65.5,44.1c4.2,2.7,7.7,5.5,10.6,8.4c3.3,3.3,6,6.3,8.1,8.8c1.5,1.7,2.6,2.8,3.4,3.4c0.8,0.6,1.3,1.2,1.3,1.7
		s-0.3,1.3-0.9,2.3s-1.3,3.3-1.9,6.9c0,1.7-0.1,2.5-0.3,2.5c-2.1-0.8-3.6-2.6-4.7-5.3l-1.6-7.5c-0.4-2.3-1.5-4.7-3.1-7.2
		c-4.2-4.4-7.4-7.3-9.7-8.8C59.9,45,51,43,39.9,43.2h-15v-5.6c11,0,17.8,0,20.3,0C52.5,38,59.3,40.1,65.5,44.1z"/>
</g>
</svg>
