<?xml version="1.0" encoding="utf-8"?>
<!-- Generator: Adobe Illustrator 22.0.0, SVG Export Plug-In . SVG Version: 6.00 Build 0)  -->
<svg version="1.1" id="图层_1" xmlns="http://www.w3.org/2000/svg" xmlns:xlink="http://www.w3.org/1999/xlink" x="0px" y="0px"
	 viewBox="0 0 58.7 81.6" style="enable-background:new 0 0 58.7 81.6;" xml:space="preserve">
<g>
	<path d="M28.7,45.7c-2.9,1-5.3-0.5-7.2-4.7c-0.8,0-1.4,0.2-1.6,0.6c-2.1,2.7-4.3,4.2-6.6,4.4C11.9,46,8.8,44,4,40
		c-2.1-1.9-2.9-3.3-2.5-4.4C1.9,35,2.9,35.1,4.6,36c2.7,1.3,5.2,1.8,7.5,1.6c1.5,0,3.2-0.8,5.3-2.5c5.2-4.8,10.2-9.3,15-13.4
		c1.9-1.3,2.6-0.9,2.2,0.9c-0.2,1.3-2.5,4.2-6.9,8.8l-2.2,2.8c-1.5,3.3-0.8,5.2,1.9,5.6c2.1-0.2,4.2-0.9,6.3-2.2v5.6
		C32.8,44,31.2,44.8,28.7,45.7z"/>
	<path d="M39.3,41.8c-0.4-1.1-0.8-2-1.3-2.7c-1.5,1.3-3,2.6-4.7,4.1v-5.6c2.1-1.9,5.1-4.5,9.1-7.8l10-7.8c0.6-0.2,1,0,1.3,0.6
		c-0.6,1.9-2.3,4.1-5,6.6c-0.6,0.8-3.2,3.2-7.8,7.2c-0.2,0.2-0.2,0.7,0,1.6l17.8-0.3v5.6H45.5c-0.8,0.2-2.2,0.3-4.1,0.3
		C40.4,43.5,39.7,42.9,39.3,41.8z"/>
</g>
</svg>
