<?xml version="1.0" encoding="utf-8"?>
<!-- Generator: Adobe Illustrator 22.0.0, SVG Export Plug-In . SVG Version: 6.00 Build 0)  -->
<svg version="1.1" id="图层_1" xmlns="http://www.w3.org/2000/svg" xmlns:xlink="http://www.w3.org/1999/xlink" x="0px" y="0px"
	 viewBox="0 0 49.4 81.6" style="enable-background:new 0 0 49.4 81.6;" xml:space="preserve">
<g>
	<path d="M15.8,21.9c2.9,1.7,4.4,3.6,4.4,5.9c-0.4,1.5-1.1,2.7-2.2,3.8c-1.5,2.5-2.1,4.5-1.9,5.9c2.7,0,5.4,0,8.1,0v5.6
		c-5-0.2-8.5,0.3-10.6,1.6c-1.7,0-2.8-0.7-3.4-2.2c-4.6,0.2-8,0.4-10.3,0.6v-5.6h11.3c1.5-0.2,2.2-1.4,2.2-3.4
		c-0.8-3.3-1.6-5.7-2.2-7.2C9,23.2,7.7,21,7,20.4s-0.9-1-0.9-1.3c0.4-0.6,0.9-0.8,1.6-0.6C11.6,19.9,14.3,21.1,15.8,21.9z"/>
	<path d="M29.9,41.8c-0.4-1.1-0.8-2-1.3-2.7c-1.5,1.3-3,2.6-4.7,4.1v-5.6c2.1-1.9,5.1-4.5,9.1-7.8l8.8-6.6c0.6-0.2,1,0,1.3,0.6
		c-0.6,1.9-1.9,3.6-3.8,5.3c-0.6,0.8-3.2,3.2-7.8,7.2c-0.2,0.2-0.2,0.7,0,1.6l17.8-0.3v5.6H36.1c-0.8,0.2-2.2,0.3-4.1,0.3
		C31,43.5,30.3,42.9,29.9,41.8z"/>
</g>
</svg>
