<?xml version="1.0" encoding="utf-8"?>
<!-- Generator: Adobe Illustrator 22.0.0, SVG Export Plug-In . SVG Version: 6.00 Build 0)  -->
<svg version="1.1" id="图层_1" xmlns="http://www.w3.org/2000/svg" xmlns:xlink="http://www.w3.org/1999/xlink" x="0px" y="0px"
	 viewBox="0 0 59.7 81.6" style="enable-background:new 0 0 59.7 81.6;" xml:space="preserve">
<g>
	<path d="M15.8,21.9c2.9,1.7,4.4,3.6,4.4,5.9c-0.4,1.5-1.1,2.7-2.2,3.8c-1.5,2.5-2.1,4.5-1.9,5.9c2.7,0,5.4,0,8.1,0v5.6
		c-5-0.2-8.5,0.3-10.6,1.6c-1.7,0-2.8-0.7-3.4-2.2c-4.6,0.2-8,0.4-10.3,0.6v-5.6h11.3c1.5-0.2,2.2-1.4,2.2-3.4
		c-0.8-3.3-1.6-5.7-2.2-7.2C9,23.2,7.7,21,7,20.4s-0.9-1-0.9-1.3c0.4-0.6,0.9-0.8,1.6-0.6C11.6,19.9,14.3,21.1,15.8,21.9z"/>
	<path d="M27.4,29.7c1.7-5,5.7-8.3,12.2-10c6-0.2,9.9,0.8,11.6,3.1c1.7,2.3,2.3,4.1,1.9,5.3c0.4,2.7-0.5,5.5-2.8,8.4
		c-0.4,0.2-0.6,0.5-0.6,0.9c1.3,0.2,4.6,0.2,10,0v5.6L48,42.9c-4.6,1.5-7.1,2.3-7.5,2.5c-2.3,0-4.9-0.4-8-1.1
		c-3-0.7-5.9-1.1-8.6-1.1v-5.6c1,0,1.9-0.1,2.5-0.3C26.4,34.7,26.7,32.2,27.4,29.7z M36.7,38.5c3.1,0,5.9-0.6,8.4-1.9
		c2.3-3.5,2.3-6.5,0-8.8c-1.3-0.8-3-1.3-5.3-1.3c-2.5,0.2-4.6,0.9-6.3,2c-1.7,1.1-2.7,2.8-3.1,4.8c-0.4,1.5-0.2,2.8,0.6,4.1
		C32.8,38.2,34.6,38.5,36.7,38.5z"/>
</g>
</svg>
