<?xml version="1.0" encoding="utf-8"?>
<!-- Generator: Adobe Illustrator 22.0.0, SVG Export Plug-In . SVG Version: 6.00 Build 0)  -->
<svg version="1.1" id="图层_1" xmlns="http://www.w3.org/2000/svg" xmlns:xlink="http://www.w3.org/1999/xlink" x="0px" y="0px"
	 viewBox="0 0 60.6 81.6" style="enable-background:new 0 0 60.6 81.6;" xml:space="preserve">
<g>
	<path d="M15.8,21.9c2.9,1.7,4.4,3.6,4.4,5.9c-0.4,1.5-1.1,2.7-2.2,3.8c-1.5,2.5-2.1,4.5-1.9,5.9c2.7,0,5.4,0,8.1,0v5.6
		c-5-0.2-8.5,0.3-10.6,1.6c-1.7,0-2.8-0.7-3.4-2.2c-4.6,0.2-8,0.4-10.3,0.6v-5.6h11.3c1.5-0.2,2.2-1.4,2.2-3.4
		c-0.8-3.3-1.6-5.7-2.2-7.2C9,23.2,7.7,21,7,20.4s-0.9-1-0.9-1.3c0.4-0.6,0.9-0.8,1.6-0.6C11.6,19.9,14.3,21.1,15.8,21.9z"/>
	<path d="M34.5,61.6c-2.5-0.8-4.5-2.3-5.9-4.4c-1.5-2.5-2.4-4.8-2.8-6.9c-0.4-2.1-0.7-4.5-0.9-7.2h-0.9v-5.6l1.3-0.3
		c0.4-2.5,1.3-4.7,2.7-6.6c1.4-1.9,3.3-3.9,5.8-5.9c2.9-1.9,5.5-2.9,7.8-3.1c5.6-0.6,9.8-0.1,12.5,1.6c2.7,1.9,4.2,3.4,4.5,4.5
		c0.3,1.1,0.5,1.8,0.5,2c0,0.6-1.4,2.3-4.1,5c-2.7,3.1-4.4,5.2-5,6.3c-0.6,1-1.5,1.8-2.5,2.2H28c0,3.1,0.7,5.8,2.2,8.1
		c2.3,2.9,5.5,4.4,9.7,4.4c5.2-0.2,10-1.8,14.4-4.7c3.5-2.3,5.5-3.4,5.9-3.4c0.2,0.6-0.6,2-2.3,4.1c-1.8,2.1-4.9,4.4-9.5,7
		C43.7,61.2,39.1,62.2,34.5,61.6z M31.4,32.9c-1,1-1.6,2.5-1.6,4.4c3.3,0.2,6.8,0.2,10.3,0c3.8,0,6.1-0.9,7.2-2.8
		c0.2-2.7-1-4.8-3.8-6.3c-2.7-0.6-5.2-0.4-7.3,0.6C34.1,29.8,32.5,31.2,31.4,32.9z"/>
</g>
</svg>
