<?xml version="1.0" encoding="utf-8"?>
<!-- Generator: Adobe Illustrator 22.0.0, SVG Export Plug-In . SVG Version: 6.00 Build 0)  -->
<svg version="1.1" id="图层_1" xmlns="http://www.w3.org/2000/svg" xmlns:xlink="http://www.w3.org/1999/xlink" x="0px" y="0px"
	 viewBox="0 0 91.7 81.6" style="enable-background:new 0 0 91.7 81.6;" xml:space="preserve">
<g>
	<path d="M30.9,44.1C29.2,44.7,28,45,27.4,45c-1.5,0-2.6-0.7-3.3-2.2C23.4,41.4,23,40,23,38.8c-0.8,0-1.4,0.2-1.6,0.6
		c-1.5,2.1-2.8,3.7-4.1,4.8S15,46,14,46c-1.5,0-4.7-2-9.7-5.9c-2.3-1.9-3.2-3.3-2.8-4.4C1.9,35,2.9,35.1,4.6,36
		c3.1,1.3,5.8,1.8,8.1,1.6c1.5,0,3.2-0.8,5.3-2.5c9.4-8.8,15.7-14.2,19.1-16.3c1.7-0.4,2.4-0.1,2.2,0.9c-0.4,1.5-3.5,4.9-9.4,10.3
		c-4,3.8-5.5,6-4.7,6.9c0.2,1,2,1.5,5.3,1.3c6-0.2,10.1-0.4,12.2-0.6v5.6C36.1,43,32.1,43.3,30.9,44.1z"/>
	<path d="M45.2,29.7c1.7-5,5.7-8.3,12.2-10c6-0.2,9.9,0.8,11.6,3.1c1.7,2.3,2.3,4.1,1.9,5.3c0.4,2.7-0.5,5.5-2.8,8.4
		c-0.4,0.2-0.6,0.5-0.6,0.9c1.3,0.2,2.8,0.2,4.7,0v5.6l-6.3-0.3c-4.6,1.5-7.1,2.3-7.5,2.5c-2.3,0-4.9-0.4-8-1.1
		c-3-0.7-5.9-1.1-8.6-1.1v-5.6c1,0,1.9-0.1,2.5-0.3C44.3,34.7,44.6,32.2,45.2,29.7z M54.6,38.5c3.1,0,5.9-0.6,8.4-1.9
		c2.3-3.5,2.3-6.5,0-8.8c-1.3-0.8-3-1.3-5.3-1.3c-2.5,0.2-4.6,0.9-6.3,2c-1.7,1.1-2.7,2.8-3.1,4.8c-0.4,1.5-0.2,2.8,0.6,4.1
		C50.6,38.2,52.5,38.5,54.6,38.5z M87.9,38.3c-1.8,3.9-3.6,5.7-5.5,5.5c-3.8-0.4-7.2-0.6-10.3-0.6v-5.6c3.3,0.2,5.2,0.1,5.6-0.3
		c4.2-1,7.2-3.1,9.1-6.3c1-1.7,2-2.9,2.8-3.8c0.4,0,0.7,0.3,0.9,0.9v1.3C90.5,31.5,89.7,34.5,87.9,38.3z"/>
</g>
</svg>
