<?xml version="1.0" encoding="utf-8"?>
<!-- Generator: Adobe Illustrator 22.0.0, SVG Export Plug-In . SVG Version: 6.00 Build 0)  -->
<svg version="1.1" id="图层_1" xmlns="http://www.w3.org/2000/svg" xmlns:xlink="http://www.w3.org/1999/xlink" x="0px" y="0px"
	 viewBox="0 0 100.4 81.6" style="enable-background:new 0 0 100.4 81.6;" xml:space="preserve">
<g>
	<path d="M3.9,43.2v-5.6c1.9-0.4,5-2.3,9.4-5.6c8.5-6.7,12.6-10.6,12.2-11.9c-0.2-2.1-1.5-3.8-3.8-5c-0.8-0.2-1.3-0.5-1.3-0.9
		c0-0.4,0.6-0.9,1.9-1.6c2.9-0.6,5.9-0.4,9.1,0.6c2.3,0.8,3.5,2,3.8,3.4c-0.2,1.7-1.5,3.2-3.8,4.7c-5,4-8.9,7-11.6,9.1
		c-3.8,3.1-5.6,5.3-5.6,6.6c0,0.8,0.8,1.1,2.5,0.9c4,0.2,10.6,0.1,20-0.3v5.6c-3.8-0.4-7.4-0.6-10.9-0.6c-3.3,0-5.5,0.1-6.6,0.3
		c-1.7,1.3-3,1.9-4.1,1.9c-1.7,0-2.7-2.3-3.1-6.9C8.2,41,5.5,42.8,3.9,43.2z"/>
	<path d="M77,44.1c4.2,2.7,7.7,5.5,10.6,8.4c3.3,3.3,6,6.3,8.1,8.8c1.5,1.7,2.6,2.8,3.4,3.4c0.8,0.6,1.3,1.2,1.3,1.7
		s-0.3,1.3-0.9,2.3s-1.3,3.3-1.9,6.9c0,1.7-0.1,2.5-0.3,2.5c-2.1-0.8-3.6-2.6-4.7-5.3L91,65.4c-0.4-2.3-1.5-4.7-3.1-7.2
		c-4.2-4.4-7.4-7.3-9.7-8.8C71.4,45,62.4,43,51.4,43.2h-15v-5.6c11,0,17.8,0,20.3,0C64,38,70.7,40.1,77,44.1z"/>
</g>
<path d="M6.5,43c-0.2,0-0.4,0-0.6,0c-1.8,0-3.6,0-5.4,0c0-2,0-4,0-6c1.7,0,3.3,0,5,0c0.7-0.3,1.3-0.7,2-1c0.3,1.7,0.7,3.3,1,5
	c-0.3,0.3-0.7,0.7-1,1S6.8,42.7,6.5,43z"/>
</svg>
