<?xml version="1.0" encoding="utf-8"?>
<!-- Generator: Adobe Illustrator 22.0.0, SVG Export Plug-In . SVG Version: 6.00 Build 0)  -->
<svg version="1.1" id="图层_1" xmlns="http://www.w3.org/2000/svg" xmlns:xlink="http://www.w3.org/1999/xlink" x="0px" y="0px"
	 viewBox="0 0 80.4 81.6" style="enable-background:new 0 0 80.4 81.6;" xml:space="preserve">
<g>
	<path d="M3.9,43.2v-5.6c1.9-0.4,5-2.3,9.4-5.6c8.5-6.7,12.6-10.6,12.2-11.9c-0.2-2.1-1.5-3.8-3.8-5c-0.8-0.2-1.3-0.5-1.3-0.9
		c0-0.4,0.6-0.9,1.9-1.6c2.9-0.6,5.9-0.4,9.1,0.6c2.3,0.8,3.5,2,3.8,3.4c-0.2,1.7-1.5,3.2-3.8,4.7c-5,4-8.9,7-11.6,9.1
		c-3.8,3.1-5.6,5.3-5.6,6.6c0,0.8,0.8,1.1,2.5,0.9c4,0.2,10.6,0.1,20-0.3v5.6c-3.8-0.4-7.4-0.6-10.9-0.6c-3.3,0-5.5,0.1-6.6,0.3
		c-1.7,1.3-3,1.9-4.1,1.9c-1.7,0-2.7-2.3-3.1-6.9C8.2,41,5.5,42.8,3.9,43.2z"/>
	<path d="M52,29.1c0,0.8-0.5,2.2-1.6,4.2c-1,2-1.6,3.1-1.6,3.3c0,1.5,0.5,2.7,1.6,3.6c1,0.9,2.3,1.4,3.8,1.4c1.3,0,5.2-1.9,11.9-5.6
		c7.5-4.2,12.1-6.6,13.8-7.2c0.4,0,0.6,0.2,0.6,0.6L80.1,30c-5.8,4.8-9.1,7.5-9.7,8.1c-3.8,4-6,6.5-6.9,7.5
		c-2.7,2.7-4.6,4.1-5.6,4.1c-2.7,0.4-5-0.4-6.9-2.5c-2.1-2.7-3.6-5.4-4.7-8.1c-0.2-0.4-0.6-0.4-1.3,0c-2.9,1.7-5.8,3-8.8,4.1v-5.6
		c3.8-0.8,8.4-3.8,14.1-8.8C51.3,28.2,51.8,28.3,52,29.1z"/>
</g>
<path d="M6.5,43c-0.2,0-0.4,0-0.6,0c-1.8,0-3.6,0-5.4,0c0-2,0-4,0-6c1.7,0,3.3,0,5,0c0.7-0.3,1.3-0.7,2-1c0.3,1.7,0.7,3.3,1,5
	c-0.3,0.3-0.7,0.7-1,1S6.8,42.7,6.5,43z"/>
</svg>
