<?xml version="1.0" encoding="utf-8"?>
<!-- Generator: Adobe Illustrator 22.0.0, SVG Export Plug-In . SVG Version: 6.00 Build 0)  -->
<svg version="1.1" id="图层_1" xmlns="http://www.w3.org/2000/svg" xmlns:xlink="http://www.w3.org/1999/xlink" x="0px" y="0px"
	 viewBox="0 0 79.6 81.6" style="enable-background:new 0 0 79.6 81.6;" xml:space="preserve">
<g>
	<path d="M8,45.7c-1,0.4-2.3,0.2-3.8-0.6c-1.3-1-2.1-2.2-2.5-3.4c-0.6-1-0.8-2.2-0.6-3.4c0.4-0.8,2-0.7,4.7,0.3
		c1.7,0.6,3.6,0.4,5.9-0.6v5.9C10.3,44.6,9.1,45.3,8,45.7z M11.8,43.8v-5.9c1.9-0.6,5-2.6,9.4-5.9c8.5-6.7,12.6-10.6,12.2-11.9
		c-0.2-2.1-1.5-3.8-3.8-5c-0.8-0.2-1.3-0.5-1.3-0.9c0-0.4,0.6-0.9,1.9-1.6c2.9-0.6,5.9-0.4,9.1,0.6c2.3,0.8,3.5,2,3.8,3.4
		c-0.2,1.7-1.5,3.2-3.8,4.7c-5,4-8.9,7-11.6,9.1c-3.8,3.1-5.6,5.3-5.6,6.6c0,0.8,0.8,1.1,2.5,0.9c4,0.2,10.6,0.1,20-0.3v5.6
		c-3.8-0.4-7.4-0.6-10.9-0.6c-3.3,0-5.5,0.1-6.6,0.3c-1.7,1.3-3,1.9-4.1,1.9c-1.7,0-2.7-2.3-3.1-6.9C16.2,41,13.5,43,11.8,43.8z"/>
	<path d="M47.1,29.7c1.7-5,5.7-8.3,12.2-10c6-0.2,9.9,0.8,11.6,3.1c1.7,2.3,2.3,4.1,1.9,5.3c0.4,2.7-0.5,5.5-2.8,8.4
		c-0.4,0.2-0.6,0.5-0.6,0.9c1.3,0.2,4.6,0.2,10,0v5.6l-11.6-0.3c-4.6,1.5-7.1,2.3-7.5,2.5c-2.3,0-4.9-0.4-8-1.1
		c-3-0.7-5.9-1.1-8.6-1.1v-5.6c1,0,1.9-0.1,2.5-0.3C46.2,34.7,46.5,32.2,47.1,29.7z M56.5,38.5c3.1,0,5.9-0.6,8.4-1.9
		c2.3-3.5,2.3-6.5,0-8.8c-1.3-0.8-3-1.3-5.3-1.3c-2.5,0.2-4.6,0.9-6.3,2c-1.7,1.1-2.7,2.8-3.1,4.8c-0.4,1.5-0.2,2.8,0.6,4.1
		C52.5,38.2,54.4,38.5,56.5,38.5z"/>
</g>
</svg>
