<?xml version="1.0" encoding="utf-8"?>
<!-- Generator: Adobe Illustrator 22.0.0, SVG Export Plug-In . SVG Version: 6.00 Build 0)  -->
<svg version="1.1" id="图层_1" xmlns="http://www.w3.org/2000/svg" xmlns:xlink="http://www.w3.org/1999/xlink" x="0px" y="0px"
	 viewBox="0 0 72.1 81.6" style="enable-background:new 0 0 72.1 81.6;" xml:space="preserve">
<g>
	<path d="M34.6,42.9c-4.4,4-7.9,7.1-10.6,9.4c-4.8,4-8.5,7.3-11.3,10c-1,2.9-2.2,4.4-3.4,4.4c-1.7,0-2.5-1.3-2.5-3.8
		c0-0.6,0.9-2.9,2.8-6.9c1.7-3.3,2.6-5.8,2.8-7.5c0.2-1,0-2-0.6-2.8s-1.4-1.5-2.2-1.9c-5.8-2.5-8.5-4.6-8.1-6.2c0.8-1,2.5-1.6,5-1.6
		c4.2,0,7.4,1.4,9.7,4.1c0.4,0.6,0.6,1.6,0.6,2.8c0,1.3-0.3,3.1-0.9,5.6s-1,4.4-1.3,5.6c0.4,0,1.7-0.7,3.8-2.2
		c0.8-0.6,3.1-2.6,6.9-5.9c4-3.3,7.1-6.2,9.4-8.7V42.9z M44,38.2c1,0.2,2.2,0,3.4-0.6v5.6c-2.1,1.5-4.1,1.9-5.9,1.3
		c-1.3-0.2-2.3-1.9-3.1-5c-1.5,1.3-2.7,2.4-3.8,3.4v-5.6c1-0.8,2-1.7,2.8-2.5c2.1-2.1,3.6-3.5,4.7-4.4c0.8-0.6,1.5-0.5,1.9,0.3
		c-0.4,1.3-0.9,2.5-1.6,3.8c-0.4,1.3-0.5,2.1-0.2,2.5C42.6,37.3,43.1,37.8,44,38.2z"/>
	<path d="M53,41.8c-0.4-1.1-0.8-2-1.3-2.7c-1.5,1.3-3,2.6-4.7,4.1v-5.6c2.1-1.9,5.1-4.5,9.1-7.8l8.8-6.6c0.6-0.2,1,0,1.3,0.6
		c-0.6,1.9-1.9,3.6-3.8,5.3c-0.6,0.8-3.2,3.2-7.8,7.2c-0.2,0.2-0.2,0.7,0,1.6l17.8-0.3v5.6H59.3c-0.8,0.2-2.2,0.3-4.1,0.3
		C54.2,43.5,53.5,42.9,53,41.8z"/>
</g>
</svg>
