<?xml version="1.0" encoding="utf-8"?>
<!-- Generator: Adobe Illustrator 22.0.0, SVG Export Plug-In . SVG Version: 6.00 Build 0)  -->
<svg version="1.1" id="图层_1" xmlns="http://www.w3.org/2000/svg" xmlns:xlink="http://www.w3.org/1999/xlink" x="0px" y="0px"
	 viewBox="0 0 84.3 81.6" style="enable-background:new 0 0 84.3 81.6;" xml:space="preserve">
<g>
	<path d="M33,44.4c-3.8,3.1-7.1,5.9-10,8.4c-4.8,4-8.3,7.1-10.6,9.4c-1,2.9-2.2,4.4-3.4,4.4c-1.7,0-2.5-1.3-2.5-3.8
		c0-0.6,0.9-2.9,2.8-6.9c1.7-3.3,2.6-5.8,2.8-7.5c0.2-1,0-2-0.6-2.8s-1.4-1.5-2.2-1.9c-5.8-2.5-8.5-4.6-8.1-6.2c0.8-1,2.5-1.6,5-1.6
		c4.2,0,7.4,1.4,9.7,4.1c0.4,0.6,0.6,1.6,0.6,2.8c0,1.3-0.3,3.1-0.9,5.6s-1,4.4-1.3,5.6c0.4,0,1.7-0.7,3.8-2.2
		c0.8-0.6,3.1-2.6,6.9-5.9c4-3.3,6.5-5.5,7.5-6.6L33,44.4z M37.7,41.3l-0.9,0.3c-0.6,0.6-1.9,1.6-3.8,2.8l-0.6-5
		c1.3-1.5,2.4-3,3.4-4.7c0.6-0.4,1.1-0.5,1.6-0.3c0.8,0.2,1.6,0.7,2.3,1.6c0.7,0.8,1.3,1.4,1.7,1.6c2.3,0.2,4.7,0.2,7.2,0v5.6h-2.2
		c-1.5,0.2-2.8,0.7-4.1,1.6c-0.6,0.4-1.3,0.6-1.9,0.6c-0.4,0-0.8-0.3-1.3-0.9L37.7,41.3z"/>
	<path d="M51.8,29.7c1.7-5,5.7-8.3,12.2-10c6-0.2,9.9,0.8,11.6,3.1c1.7,2.3,2.3,4.1,1.9,5.3c0.4,2.7-0.5,5.5-2.8,8.4
		c-0.4,0.2-0.6,0.5-0.6,0.9c1.3,0.2,4.6,0.2,10,0v5.6l-11.6-0.3c-4.6,1.5-7.1,2.3-7.5,2.5c-2.3,0-4.9-0.4-8-1.1
		c-3-0.7-5.9-1.1-8.6-1.1v-5.6c1,0,1.9-0.1,2.5-0.3C50.9,34.7,51.2,32.2,51.8,29.7z M61.2,38.5c3.1,0,5.9-0.6,8.4-1.9
		c2.3-3.5,2.3-6.5,0-8.8c-1.3-0.8-3-1.3-5.3-1.3c-2.5,0.2-4.6,0.9-6.3,2c-1.7,1.1-2.7,2.8-3.1,4.8c-0.4,1.5-0.2,2.8,0.6,4.1
		C57.2,38.2,59.1,38.5,61.2,38.5z"/>
</g>
</svg>
