<?xml version="1.0" encoding="utf-8"?>
<!-- Generator: Adobe Illustrator 22.0.0, SVG Export Plug-In . SVG Version: 6.00 Build 0)  -->
<svg version="1.1" id="图层_1" xmlns="http://www.w3.org/2000/svg" xmlns:xlink="http://www.w3.org/1999/xlink" x="0px" y="0px"
	 viewBox="0 0 79.3 81.6" style="enable-background:new 0 0 79.3 81.6;" xml:space="preserve">
<g>
	<path d="M28,39.4l0.6,5l-2.5,2.2c-2.5,2.5-4.7,4.8-6.6,6.9c-1.9,1.9-3.4,3.3-4.7,4.4C13,59.3,11.8,60,11.2,60c-1,0-2-0.3-2.8-0.9
		c-0.8-0.6-1-1.5-0.6-2.5c0.8-1.7,1.5-4.6,1.9-8.8c0.6-4.4,0.7-6.7,0.3-6.9c-0.4-0.2-1.8,0.1-4.1,0.9c-2.5,0.8-4.2,1.2-5,1.2v-5.6
		c4-0.8,8-1.6,12.2-2.2c1.9,0,2.8,1,2.8,3.1c-0.6,3.5-1.1,7.5-1.6,11.9c0,0.8,0.1,1.4,0.3,1.6c0.6,0.2,1.4-0.1,2.2-0.9
		C20.5,47.4,24.3,43.6,28,39.4z M32.4,41.9l-0.9,0.3c-1,0.8-2,1.6-2.8,2.2l-0.6-5c1.3-1.5,2.4-3,3.4-4.7c0.6-0.4,1.1-0.5,1.6-0.3
		c1.7,0.6,3,1.7,4.1,3.1c2.3,0.2,4.7,0.2,7.2,0v5.6h-2.2c-1.5,0.2-2.8,0.6-4.1,1.3c-1,0.8-1.9,1.3-2.5,1.3c-0.4,0-0.8-0.3-1.3-0.9
		L32.4,41.9z"/>
	<path d="M47.1,29.7c1.7-5,5.7-8.3,12.2-10c6-0.2,9.9,0.8,11.6,3.1c1.7,2.3,2.3,4.1,1.9,5.3c0.4,2.7-0.5,5.5-2.8,8.4
		c-0.4,0.2-0.6,0.5-0.6,0.9c1.3,0.2,4.6,0.2,10,0v5.6l-11.6-0.3c-4.6,1.5-7.1,2.3-7.5,2.5c-2.3,0-4.9-0.4-8-1.1
		c-3-0.7-5.9-1.1-8.6-1.1v-5.6c1,0,1.9-0.1,2.5-0.3C46.2,34.7,46.5,32.2,47.1,29.7z M56.5,38.5c3.1,0,5.9-0.6,8.4-1.9
		c2.3-3.5,2.3-6.5,0-8.8c-1.3-0.8-3-1.3-5.3-1.3c-2.5,0.2-4.6,0.9-6.3,2c-1.7,1.1-2.7,2.8-3.1,4.8c-0.4,1.5-0.2,2.8,0.6,4.1
		C52.5,38.2,54.4,38.5,56.5,38.5z"/>
</g>
</svg>
