<?xml version="1.0" encoding="utf-8"?>
<!-- Generator: Adobe Illustrator 22.0.0, SVG Export Plug-In . SVG Version: 6.00 Build 0)  -->
<svg version="1.1" id="图层_1" xmlns="http://www.w3.org/2000/svg" xmlns:xlink="http://www.w3.org/1999/xlink" x="0px" y="0px"
	 viewBox="0 0 110.3 81.6" style="enable-background:new 0 0 110.3 81.6;" xml:space="preserve">
<g>
	<path d="M33,43.2c-3.3,3.1-6,5.5-8.1,7.2c-6.5,5.6-11.3,8-14.4,7.2c-2.3-0.2-4.3-1-6.1-2.3c-1.8-1.4-2.9-3.4-3.3-6.1
		c-0.8-2.9-0.4-5.8,1.4-8.7c1.8-2.9,4.3-4.6,7.7-5c1.9-0.4,3.9,0.1,6.1,1.6c2.2,1.5,3.5,3.4,3.9,5.9c0.6,1.5,0.4,2.3-0.6,2.5
		C17.7,41.8,15.5,40,13,40c-1.7-0.4-3.2-0.1-4.7,0.9c-1.5,1-2.2,2.7-2.2,5c0.4,3.8,2.4,5.6,5.9,5.6c2.3,0,4.4-0.6,6.3-1.9
		c5.2-3.1,10.1-7.3,14.7-12.5V43.2z M42.4,38.2c1,0.2,2.2,0,3.4-0.6v5.6c-2.1,1.5-4.1,1.9-5.9,1.3c-1.3-0.2-2.3-1.9-3.1-5
		c-1.5,1.3-2.7,2.5-3.8,3.7v-5.9c1-0.8,2-1.7,2.8-2.5c2.1-2.1,3.6-3.5,4.7-4.4c0.8-0.6,1.5-0.5,1.9,0.3c-0.4,1.3-0.9,2.5-1.6,3.8
		c-0.4,1.3-0.5,2.1-0.2,2.5C41,37.3,41.6,37.8,42.4,38.2z"/>
	<path d="M86.2,44.1c4.2,2.7,7.7,5.5,10.6,8.4c3.3,3.3,6,6.3,8.1,8.8c1.5,1.7,2.6,2.8,3.4,3.4c0.8,0.6,1.3,1.2,1.3,1.7
		s-0.3,1.3-0.9,2.3s-1.3,3.3-1.9,6.9c0,1.7-0.1,2.5-0.3,2.5c-2.1-0.8-3.6-2.6-4.7-5.3l-1.6-7.5c-0.4-2.3-1.5-4.7-3.1-7.2
		c-4.2-4.4-7.4-7.3-9.7-8.8C80.5,45,71.6,43,60.5,43.2h-15v-5.6c11,0,17.8,0,20.3,0C73.1,38,79.9,40.1,86.2,44.1z"/>
</g>
</svg>
