<?xml version="1.0" encoding="utf-8"?>
<!-- Generator: Adobe Illustrator 22.0.0, SVG Export Plug-In . SVG Version: 6.00 Build 0)  -->
<svg version="1.1" id="图层_1" xmlns="http://www.w3.org/2000/svg" xmlns:xlink="http://www.w3.org/1999/xlink" x="0px" y="0px"
	 viewBox="0 0 63.1 81.6" style="enable-background:new 0 0 63.1 81.6;" xml:space="preserve">
<g>
	<path d="M32.9,43.2c-3.3,3.1-6,5.5-8.1,7.2c-6.5,5.6-11.3,8-14.4,7.2c-2.3-0.2-4.3-1-6.1-2.3c-1.8-1.4-2.9-3.4-3.3-6.1
		c-0.8-2.9-0.4-5.8,1.4-8.7c1.8-2.9,4.3-4.6,7.7-5c1.9-0.4,3.9,0.1,6.1,1.6c2.2,1.5,3.5,3.4,3.9,5.9c0.6,1.5,0.4,2.3-0.6,2.5
		c-1.9-3.5-4.1-5.3-6.6-5.3c-1.7-0.4-3.2-0.1-4.7,0.9C6.8,42,6,43.7,6,46c0.4,3.8,2.4,5.6,5.9,5.6c2.3,0,4.4-0.6,6.3-1.9
		c5.2-3.1,10.1-7.3,14.7-12.5V43.2z M42.3,38.2c1,0.2,2.2,0,3.4-0.6v5.6c-2.1,1.5-4.1,1.9-5.9,1.3c-1.3-0.2-2.3-1.9-3.1-5
		c-1.5,1.3-2.7,2.5-3.8,3.7v-5.9c1-0.8,2-1.7,2.8-2.5c2.1-2.1,3.6-3.5,4.7-4.4c0.8-0.6,1.5-0.5,1.9,0.3c-0.4,1.3-0.9,2.5-1.6,3.8
		c-0.4,1.3-0.5,2.1-0.2,2.5C40.9,37.3,41.4,37.8,42.3,38.2z"/>
	<path d="M54.2,30.7c0.8-0.6,1.5-0.4,1.9,0.6c-0.2,1-0.8,2.3-1.9,3.8c-0.6,0.8-0.8,1.8-0.6,2.8c0.8,0.2,2.1,0.2,3.8,0
		c2.5-0.2,4.5-0.3,5.9-0.3v5.6c-2.9,0-6.3,0.1-10,0.3c-1,0-1.7-0.2-2-0.6s-0.7-1.4-1.1-2.8c-1.9,1.3-3.4,2.3-4.7,3.1v-5.6
		c1.3-1,2.5-2,3.8-2.8C51.2,32.9,52.9,31.5,54.2,30.7z"/>
</g>
</svg>
