<?xml version="1.0" encoding="utf-8"?>
<!-- Generator: Adobe Illustrator 22.0.0, SVG Export Plug-In . SVG Version: 6.00 Build 0)  -->
<svg version="1.1" id="图层_1" xmlns="http://www.w3.org/2000/svg" xmlns:xlink="http://www.w3.org/1999/xlink" x="0px" y="0px"
	 viewBox="0 0 64.4 81.6" style="enable-background:new 0 0 64.4 81.6;" xml:space="preserve">
<g>
	<path d="M59,6.9C57.1,14,54,20,49.6,25c-2.5,2.9-4.8,4.4-6.9,4.4c-0.6,0-1.3-0.1-1.9-0.3c-3.1-3.1-5.5-6-7.2-8.8
		c-3.1,2.1-6.6,4.8-10.3,8.1L5.9,43.2v-5.6c11.5-9.8,19.4-16.3,23.8-19.4C43.6,8,52.7,2.6,57.1,2.2c1,0.6,1.8,1.5,2.2,2.5L59,6.9z
		 M47.1,43.2l-25.9-0.3c-1.9,0.8-3.2,1.3-4.1,1.3c-1.5,0.2-2.3-0.4-2.5-1.9c-0.2-0.6-0.3-1.2-0.3-1.9c0-1.9,0.6-3.3,1.9-4.4
		c1.3,1,2.2,1.6,2.8,1.6h28.1V43.2z M50.2,8.8c-5.4,2.9-10,5.8-13.8,8.8v1.3l1.9,2.2c1.5,1.9,2.8,3.1,4.1,3.8
		c1.7,0.4,3.5-0.7,5.6-3.4c3.5-5,5.3-8.3,5.3-10C53.4,9.2,52.3,8.4,50.2,8.8z"/>
	<path d="M55.5,30.7c0.8-0.6,1.5-0.4,1.9,0.6c-0.2,1-0.8,2.3-1.9,3.8c-0.6,0.8-0.8,1.8-0.6,2.8c0.8,0.2,2.1,0.2,3.8,0
		c2.5-0.2,4.5-0.3,5.9-0.3v5.6c-2.9,0-6.3,0.1-10,0.3c-1,0-1.7-0.2-2-0.6s-0.7-1.4-1.1-2.8c-1.9,1.3-3.4,2.3-4.7,3.1v-5.6
		c1.3-1,2.5-2,3.8-2.8C52.6,32.9,54.3,31.5,55.5,30.7z"/>
</g>
<path d="M6.5,43c-0.2,0-0.4,0-0.6,0c-1.8,0-3.6,0-5.4,0c0-2,0-4,0-6c1.7,0,3.3,0,5,0c0.7-0.3,1.3-0.7,2-1c0.3,1.7,0.7,3.3,1,5
	c-0.3,0.3-0.7,0.7-1,1S6.8,42.7,6.5,43z"/>
</svg>
