<?xml version="1.0" encoding="utf-8"?>
<!-- Generator: Adobe Illustrator 22.0.0, SVG Export Plug-In . SVG Version: 6.00 Build 0)  -->
<svg version="1.1" id="图层_1" xmlns="http://www.w3.org/2000/svg" xmlns:xlink="http://www.w3.org/1999/xlink" x="0px" y="0px"
	 viewBox="0 0 111.4 81.6" style="enable-background:new 0 0 111.4 81.6;" xml:space="preserve">
<g>
	<path d="M59,6.9C57.1,14,54,20,49.6,25c-2.5,2.9-4.8,4.4-6.9,4.4c-0.6,0-1.3-0.1-1.9-0.3c-3.1-3.1-5.5-6-7.2-8.8
		c-3.1,2.1-6.6,4.8-10.3,8.1L5.9,43.2v-5.6c11.5-9.8,19.4-16.3,23.8-19.4C43.6,8,52.7,2.6,57.1,2.2c1,0.6,1.8,1.5,2.2,2.5L59,6.9z
		 M47.1,43.2l-25.9-0.3c-1.9,0.8-3.2,1.3-4.1,1.3c-1.5,0.2-2.3-0.4-2.5-1.9c-0.2-0.6-0.3-1.2-0.3-1.9c0-1.9,0.6-3.3,1.9-4.4
		c1.3,1,2.2,1.6,2.8,1.6h28.1V43.2z M50.2,8.8c-5.4,2.9-10,5.8-13.8,8.8v1.3l1.9,2.2c1.5,1.9,2.8,3.1,4.1,3.8
		c1.7,0.4,3.5-0.7,5.6-3.4c3.5-5,5.3-8.3,5.3-10C53.4,9.2,52.3,8.4,50.2,8.8z"/>
	<path d="M87.4,44.1c4.2,2.7,7.7,5.5,10.6,8.4c3.3,3.3,6,6.3,8.1,8.8c1.5,1.7,2.6,2.8,3.4,3.4c0.8,0.6,1.3,1.2,1.3,1.7
		s-0.3,1.3-0.9,2.3s-1.3,3.3-1.9,6.9c0,1.7-0.1,2.5-0.3,2.5c-2.1-0.8-3.6-2.6-4.7-5.3l-1.6-7.5c-0.4-2.3-1.5-4.7-3.1-7.2
		c-4.2-4.4-7.4-7.3-9.7-8.8C81.8,45,72.8,43,61.8,43.2h-15v-5.6c11,0,17.8,0,20.3,0C74.4,38,81.2,40.1,87.4,44.1z"/>
</g>
<path d="M6.5,43c-0.2,0-0.4,0-0.6,0c-1.8,0-3.6,0-5.4,0c0-2,0-4,0-6c1.7,0,3.3,0,5,0c0.7-0.3,1.3-0.7,2-1c0.3,1.7,0.7,3.3,1,5
	c-0.3,0.3-0.7,0.7-1,1S6.8,42.7,6.5,43z"/>
</svg>
