<?xml version="1.0" encoding="utf-8"?>
<!-- Generator: Adobe Illustrator 22.0.0, SVG Export Plug-In . SVG Version: 6.00 Build 0)  -->
<svg version="1.1" id="图层_1" xmlns="http://www.w3.org/2000/svg" xmlns:xlink="http://www.w3.org/1999/xlink" x="0px" y="0px"
	 viewBox="0 0 90.4 81.6" style="enable-background:new 0 0 90.4 81.6;" xml:space="preserve">
<g>
	<path d="M33,43.2c-3.3,3.1-6,5.5-8.1,7.2c-6.5,5.6-11.3,8-14.4,7.2c-2.3-0.2-4.3-1-6.1-2.3c-1.8-1.4-2.9-3.4-3.3-6.1
		c-0.8-2.9-0.4-5.8,1.4-8.7c1.8-2.9,4.3-4.6,7.7-5c1.9-0.4,3.9,0.1,6.1,1.6c2.2,1.5,3.5,3.4,3.9,5.9c0.6,1.5,0.4,2.3-0.6,2.5
		C17.7,41.8,15.5,40,13,40c-1.7-0.4-3.2-0.1-4.7,0.9c-1.5,1-2.2,2.7-2.2,5c0.4,3.8,2.4,5.6,5.9,5.6c2.3,0,4.4-0.6,6.3-1.9
		c5.2-3.1,10.1-7.3,14.7-12.5V43.2z M42.4,38.2c1,0.2,2.2,0,3.4-0.6v5.6c-2.1,1.5-4.1,1.9-5.9,1.3c-1.3-0.2-2.3-1.9-3.1-5
		c-1.5,1.3-2.7,2.5-3.8,3.7v-5.9c1-0.8,2-1.7,2.8-2.5c2.1-2.1,3.6-3.5,4.7-4.4c0.8-0.6,1.5-0.5,1.9,0.3c-0.4,1.3-0.9,2.5-1.6,3.8
		c-0.4,1.3-0.5,2.1-0.2,2.5C41,37.3,41.6,37.8,42.4,38.2z"/>
	<path d="M61.2,29.1c0,0.8-0.5,2.2-1.6,4.2c-1,2-1.6,3.1-1.6,3.3c0,1.5,0.5,2.7,1.6,3.6c1,0.9,2.3,1.4,3.8,1.4
		c1.3,0,5.2-1.9,11.9-5.6c7.5-4.2,12.1-6.6,13.8-7.2c0.4,0,0.6,0.2,0.6,0.6L89.3,30c-5.8,4.8-9.1,7.5-9.7,8.1c-3.8,4-6,6.5-6.9,7.5
		c-2.7,2.7-4.6,4.1-5.6,4.1c-2.7,0.4-5-0.4-6.9-2.5c-2.1-2.7-3.6-5.4-4.7-8.1c-0.2-0.4-0.6-0.4-1.3,0c-2.9,1.7-5.8,3-8.8,4.1v-5.6
		c3.8-0.8,8.4-3.8,14.1-8.8C60.4,28.2,61,28.3,61.2,29.1z"/>
</g>
</svg>
