<?xml version="1.0" encoding="utf-8"?>
<!-- Generator: Adobe Illustrator 22.0.0, SVG Export Plug-In . SVG Version: 6.00 Build 0)  -->
<svg version="1.1" id="图层_1" xmlns="http://www.w3.org/2000/svg" xmlns:xlink="http://www.w3.org/1999/xlink" x="0px" y="0px"
	 viewBox="0 0 83.3 81.6" style="enable-background:new 0 0 83.3 81.6;" xml:space="preserve">
<g>
	<path d="M59,6.9C57.1,14,54,20,49.6,25c-2.5,2.9-4.8,4.4-6.9,4.4c-0.6,0-1.3-0.1-1.9-0.3c-3.1-3.1-5.5-6-7.2-8.8
		c-3.1,2.1-6.6,4.8-10.3,8.1L5.9,43.2v-5.6c11.5-9.8,19.4-16.3,23.8-19.4C43.6,8,52.7,2.6,57.1,2.2c1,0.6,1.8,1.5,2.2,2.5L59,6.9z
		 M47.1,43.2l-25.9-0.3c-1.9,0.8-3.2,1.3-4.1,1.3c-1.5,0.2-2.3-0.4-2.5-1.9c-0.2-0.6-0.3-1.2-0.3-1.9c0-1.9,0.6-3.3,1.9-4.4
		c1.3,1,2.2,1.6,2.8,1.6h28.1V43.2z M50.2,8.8c-5.4,2.9-10,5.8-13.8,8.8v1.3l1.9,2.2c1.5,1.9,2.8,3.1,4.1,3.8
		c1.7,0.4,3.5-0.7,5.6-3.4c3.5-5,5.3-8.3,5.3-10C53.4,9.2,52.3,8.4,50.2,8.8z"/>
	<path d="M57.4,61.6c-2.5-0.8-4.5-2.3-5.9-4.4c-1.5-2.5-2.4-4.8-2.8-6.9c-0.4-2.1-0.7-4.5-0.9-7.2h-0.9v-5.6l1.3-0.3
		c0.4-2.5,1.3-4.7,2.7-6.6c1.4-1.9,3.3-3.9,5.8-5.9c2.9-1.9,5.5-2.9,7.8-3.1c5.6-0.6,9.8-0.1,12.5,1.6c2.7,1.9,4.2,3.4,4.5,4.5
		c0.3,1.1,0.5,1.8,0.5,2c0,0.6-1.4,2.3-4.1,5c-2.7,3.1-4.4,5.2-5,6.3c-0.6,1-1.5,1.8-2.5,2.2H50.9c0,3.1,0.7,5.8,2.2,8.1
		c2.3,2.9,5.5,4.4,9.7,4.4c5.2-0.2,10-1.8,14.4-4.7c3.5-2.3,5.5-3.4,5.9-3.4c0.2,0.6-0.6,2-2.3,4.1c-1.8,2.1-4.9,4.4-9.5,7
		C66.6,61.2,62,62.2,57.4,61.6z M54.3,32.9c-1,1-1.6,2.5-1.6,4.4c3.3,0.2,6.8,0.2,10.3,0c3.8,0,6.1-0.9,7.2-2.8
		c0.2-2.7-1-4.8-3.8-6.3c-2.7-0.6-5.2-0.4-7.3,0.6C57,29.8,55.3,31.2,54.3,32.9z"/>
</g>
<path d="M6.5,43c-0.2,0-0.4,0-0.6,0c-1.8,0-3.6,0-5.4,0c0-2,0-4,0-6c1.7,0,3.3,0,5,0c0.7-0.3,1.3-0.7,2-1c0.3,1.7,0.7,3.3,1,5
	c-0.3,0.3-0.7,0.7-1,1S6.8,42.7,6.5,43z"/>
</svg>
