<?xml version="1.0" encoding="utf-8"?>
<!-- Generator: Adobe Illustrator 22.0.0, SVG Export Plug-In . SVG Version: 6.00 Build 0)  -->
<svg version="1.1" id="图层_1" xmlns="http://www.w3.org/2000/svg" xmlns:xlink="http://www.w3.org/1999/xlink" x="0px" y="0px"
	 viewBox="0 0 94 81.6" style="enable-background:new 0 0 94 81.6;" xml:space="preserve">
<g>
	<path d="M29.3,45c-1.5,1.5-3.5,3.5-6.3,6.3c-5.2,5-9.4,7.1-12.5,6.3c-2.3-0.2-4.3-1-6.1-2.3c-1.8-1.4-2.9-3.4-3.3-6.1
		c-0.8-2.9-0.4-5.8,1.4-8.7c1.8-2.9,4.3-4.6,7.7-5c1.9-0.4,3.9,0.1,6.1,1.6c2.2,1.5,3.5,3.4,3.9,5.9c0.6,1.5,0.4,2.3-0.6,2.5
		C17.7,41.8,15.5,40,13,40c-1.7-0.4-3.2-0.1-4.7,0.9c-1.5,1-2.2,2.7-2.2,5c0.4,3.8,2.4,5.6,5.9,5.6c2.3,0,4.3-0.7,5.9-2.2
		c4.2-2.7,7.6-5.9,10.3-9.7L29.3,45z M33.7,41.3l-0.9,0.3c-0.6,0.6-1.8,1.8-3.4,3.4l-0.9-5.3c1.3-1.7,2.4-3.3,3.4-5
		c0.6-0.4,1.1-0.5,1.6-0.3c0.8,0.2,1.6,0.7,2.3,1.6c0.7,0.8,1.3,1.4,1.7,1.6c2.3,0.2,4.7,0.2,7.2,0v5.6h-2.2
		c-1.5,0.2-2.8,0.7-4.1,1.6c-0.6,0.4-1.3,0.6-1.9,0.6c-0.4,0-0.8-0.3-1.3-0.9L33.7,41.3z"/>
	<path d="M47.7,29.7c1.7-5,5.7-8.3,12.2-10c6-0.2,9.9,0.8,11.6,3.1c1.7,2.3,2.3,4.1,1.9,5.3c0.4,2.7-0.5,5.5-2.8,8.4
		c-0.4,0.2-0.6,0.5-0.6,0.9c1.3,0.2,2.8,0.2,4.7,0v5.6l-6.3-0.3c-4.6,1.5-7.1,2.3-7.5,2.5c-2.3,0-4.9-0.4-8-1.1
		c-3-0.7-5.9-1.1-8.6-1.1v-5.6c1,0,1.9-0.1,2.5-0.3C46.8,34.7,47.1,32.2,47.7,29.7z M57.1,38.5c3.1,0,5.9-0.6,8.4-1.9
		c2.3-3.5,2.3-6.5,0-8.8c-1.3-0.8-3-1.3-5.3-1.3c-2.5,0.2-4.6,0.9-6.3,2c-1.7,1.1-2.7,2.8-3.1,4.8c-0.4,1.5-0.2,2.8,0.6,4.1
		C53.1,38.2,55,38.5,57.1,38.5z M90.4,38.3c-1.8,3.9-3.6,5.7-5.5,5.5c-3.8-0.4-7.2-0.6-10.3-0.6v-5.6c3.3,0.2,5.2,0.1,5.6-0.3
		c4.2-1,7.2-3.1,9.1-6.3c1-1.7,2-2.9,2.8-3.8c0.4,0,0.7,0.3,0.9,0.9v1.3C93,31.5,92.2,34.5,90.4,38.3z"/>
</g>
</svg>
