<?xml version="1.0" encoding="utf-8"?>
<!-- Generator: Adobe Illustrator 22.0.0, SVG Export Plug-In . SVG Version: 6.00 Build 0)  -->
<svg version="1.1" id="图层_1" xmlns="http://www.w3.org/2000/svg" xmlns:xlink="http://www.w3.org/1999/xlink" x="0px" y="0px"
	 viewBox="0 0 104.6 81.6" style="enable-background:new 0 0 104.6 81.6;" xml:space="preserve">
<g>
	<path d="M26.8,42.5c-2.7,2.5-5.8,5.8-9.4,10c-4.2,4.6-6.8,7-7.8,7.2c-1.7-0.2-2.5-0.8-2.5-1.9c0-1.3,0.2-2.4,0.6-3.4
		c0.8-3.1,1.5-6.3,1.9-9.4c0-2.1-0.5-3.1-1.6-3.1c-2.1,0-4.5,0.4-7.2,1.2v-5.6c3.3-0.4,6.1-0.7,8.4-0.9c2.7,0,4.1,1.6,4.1,4.7
		c-0.2,3.1-0.6,5.6-1.3,7.5c-0.2,0.6-0.2,1,0,1.3h1.3c6.7-6,11.3-10.3,13.8-12.8L26.8,42.5z M8.4,66.9c2.7,1,3.9,2.5,3.4,4.4
		c-0.2,1.5-1.3,2.2-3.1,2.2C6.8,73.3,5.2,72.1,4,70S2.4,65.9,3,63.8c0.4,0,0.8,0,1.3,0C5.1,64.6,6.5,65.7,8.4,66.9z M19.6,65.4
		c2.9,1,4.2,2.5,3.8,4.4c-0.2,1.5-1.3,2.2-3.1,2.2c-1.9-0.2-3.4-1.4-4.7-3.4s-1.6-4.2-0.9-6.3c0.4,0,0.8,0,1.3,0
		C16.7,63.1,17.9,64.1,19.6,65.4z M36.8,38.2c1,0.2,2.1,0,3.1-0.6v5.6c-2.1,1.5-4.1,1.9-5.9,1.3c-1.3-0.2-2.3-2-3.1-5.3
		c-1.5,1.3-2.8,2.4-4.1,3.4l0.3-5.3c1-0.8,2-1.7,2.8-2.5c2.1-2.1,3.6-3.5,4.7-4.4c0.8-0.6,1.5-0.5,1.9,0.3c-0.4,1.3-0.9,2.5-1.6,3.8
		c-0.2,1.3-0.2,2.1,0.2,2.5C35.4,37.3,36,37.8,36.8,38.2z"/>
	<path d="M79.9,44.1c4.2,2.7,7.7,5.5,10.6,8.4c3.3,3.3,6,6.3,8.1,8.8c1.5,1.7,2.6,2.8,3.4,3.4c0.8,0.6,1.3,1.2,1.3,1.7
		s-0.3,1.3-0.9,2.3s-1.3,3.3-1.9,6.9c0,1.7-0.1,2.5-0.3,2.5c-2.1-0.8-3.6-2.6-4.7-5.3L94,65.4c-0.4-2.3-1.5-4.7-3.1-7.2
		c-4.2-4.4-7.4-7.3-9.7-8.8C74.3,45,65.3,43,54.3,43.2h-15v-5.6c11,0,17.8,0,20.3,0C66.9,38,73.7,40.1,79.9,44.1z"/>
</g>
</svg>
