<?xml version="1.0" encoding="utf-8"?>
<!-- Generator: Adobe Illustrator 22.0.0, SVG Export Plug-In . SVG Version: 6.00 Build 0)  -->
<svg version="1.1" id="图层_1" xmlns="http://www.w3.org/2000/svg" xmlns:xlink="http://www.w3.org/1999/xlink" x="0px" y="0px"
	 viewBox="0 0 80.9 81.6" style="enable-background:new 0 0 80.9 81.6;" xml:space="preserve">
<g>
	<path d="M28,39.4l0.6,5l-2.5,2.2c-2.5,2.5-4.7,4.8-6.6,6.9c-1.9,1.9-3.4,3.3-4.7,4.4C13,59.3,11.8,60,11.2,60c-1,0-2-0.3-2.8-0.9
		c-0.8-0.6-1-1.5-0.6-2.5c0.8-1.7,1.5-4.6,1.9-8.8c0.6-4.4,0.7-6.7,0.3-6.9c-0.4-0.2-1.8,0.1-4.1,0.9c-2.5,0.8-4.2,1.2-5,1.2v-5.6
		c4-0.8,8-1.6,12.2-2.2c1.9,0,2.8,1,2.8,3.1c-0.6,3.5-1.1,7.5-1.6,11.9c0,0.8,0.1,1.4,0.3,1.6c0.6,0.2,1.4-0.1,2.2-0.9
		C20.5,47.4,24.3,43.6,28,39.4z M8.4,67.5c2.7,1,3.9,2.5,3.4,4.4c-0.2,1.5-1.3,2.2-3.1,2.2c-1.9-0.2-3.4-1.4-4.7-3.4
		S2.4,66.5,3,64.4c0.4,0,0.8,0,1.3,0C5.1,65.3,6.5,66.3,8.4,67.5z M19.6,66c2.9,1,4.2,2.5,3.8,4.4c-0.2,1.5-1.3,2.2-3.1,2.2
		c-1.9-0.2-3.4-1.4-4.7-3.4s-1.6-4.2-0.9-6.3c0.4,0,0.8,0,1.3,0C16.7,63.7,17.9,64.7,19.6,66z M32.4,41.9l-0.9,0.3
		c-1,0.8-2,1.6-2.8,2.2l-0.6-5c1.3-1.5,2.4-3,3.4-4.7c0.6-0.4,1.1-0.5,1.6-0.3c1.7,0.6,3,1.7,4.1,3.1c2.3,0.2,4.7,0.2,7.2,0v5.6
		h-2.2c-1.5,0.2-2.8,0.6-4.1,1.3c-1,0.8-1.9,1.3-2.5,1.3c-0.4,0-0.8-0.3-1.3-0.9L32.4,41.9z"/>
	<path d="M54.3,61.6c-2.5-0.8-4.5-2.3-5.9-4.4c-1.5-2.5-2.4-4.8-2.8-6.9c-0.4-2.1-0.7-4.5-0.9-7.2h-0.9v-5.6l1.3-0.3
		c0.4-2.5,1.3-4.7,2.7-6.6c1.4-1.9,3.3-3.9,5.8-5.9c2.9-1.9,5.5-2.9,7.8-3.1c5.6-0.6,9.8-0.1,12.5,1.6c2.7,1.9,4.2,3.4,4.5,4.5
		c0.3,1.1,0.5,1.8,0.5,2c0,0.6-1.4,2.3-4.1,5c-2.7,3.1-4.4,5.2-5,6.3c-0.6,1-1.5,1.8-2.5,2.2H47.7c0,3.1,0.7,5.8,2.2,8.1
		c2.3,2.9,5.5,4.4,9.7,4.4c5.2-0.2,10-1.8,14.4-4.7c3.5-2.3,5.5-3.4,5.9-3.4c0.2,0.6-0.6,2-2.3,4.1c-1.8,2.1-4.9,4.4-9.5,7
		C63.5,61.2,58.9,62.2,54.3,61.6z M51.2,32.9c-1,1-1.6,2.5-1.6,4.4c3.3,0.2,6.8,0.2,10.3,0c3.8,0,6.1-0.9,7.2-2.8
		c0.2-2.7-1-4.8-3.8-6.3c-2.7-0.6-5.2-0.4-7.3,0.6C53.8,29.8,52.2,31.2,51.2,32.9z"/>
</g>
</svg>
