<?xml version="1.0" encoding="utf-8"?>
<!-- Generator: Adobe Illustrator 22.0.0, SVG Export Plug-In . SVG Version: 6.00 Build 0)  -->
<svg version="1.1" id="图层_1" xmlns="http://www.w3.org/2000/svg" xmlns:xlink="http://www.w3.org/1999/xlink" x="0px" y="0px"
	 viewBox="0 0 114.1 81.6" style="enable-background:new 0 0 114.1 81.6;" xml:space="preserve">
<g>
	<path d="M21.5,59.4c-2.3,0.8-4.4,1.1-6.3,0.9c-3.1-0.4-5.5-1.8-7.2-4.1c-1.7-2.3-2.5-5.1-2.5-8.4c0-0.8,0.2-2.1,0.6-3.8
		c-1.3,0-2.4-0.6-3.6-1.7c-1.1-1.1-1.7-2.4-1.7-3.9c0-2.1,0.6-3.1,1.9-3.1c0.4,0,0.9,0.1,1.6,0.3c1,2.1,2.8,3,5.3,2.8
		c3.3,0,5.2-2,5.6-5.9c0-0.6,0.2-1,0.6-1.3c1.9,0.6,2.8,1.8,2.8,3.4c0,2.5-0.4,4.1-1.3,4.8c-0.8,0.7-2.1,1.7-3.9,2.8
		c-1.8,1.1-3.1,2.1-3.9,3c-1,2.1-1.1,4-0.3,5.6c1.5,2.1,3.1,3.1,5,3.1c2.5,0.4,5.7-0.9,9.7-4.1l13.1-12.8v5.9
		c-4,4.6-7.2,8.3-9.7,11.3C25.8,56.5,23.8,58.2,21.5,59.4z M46.8,38.2c1,0.2,2.1,0,3.1-0.6v5.6c-2.1,1.5-4.1,1.9-5.9,1.3
		c-1.3-0.2-2.3-1.9-3.1-5c-1.5,1.3-2.7,2.5-3.8,3.7v-5.9c1-0.8,2-1.7,2.8-2.5c2.1-2.1,3.6-3.5,4.7-4.4c0.8-0.6,1.5-0.5,1.9,0.3
		c-0.4,1.3-0.9,2.5-1.6,3.8c-0.2,1.3-0.2,2.1,0.2,2.5C45.4,37.3,46,37.8,46.8,38.2z"/>
	<path d="M90.2,44.1c4.2,2.7,7.7,5.5,10.6,8.4c3.3,3.3,6,6.3,8.1,8.8c1.5,1.7,2.6,2.8,3.4,3.4c0.8,0.6,1.3,1.2,1.3,1.7
		s-0.3,1.3-0.9,2.3s-1.3,3.3-1.9,6.9c0,1.7-0.1,2.5-0.3,2.5c-2.1-0.8-3.6-2.6-4.7-5.3l-1.6-7.5c-0.4-2.3-1.5-4.7-3.1-7.2
		c-4.2-4.4-7.4-7.3-9.7-8.8C84.6,45,75.6,43,64.6,43.2h-15v-5.6c11,0,17.8,0,20.3,0C77.2,38,84,40.1,90.2,44.1z"/>
</g>
</svg>
