<?xml version="1.0" encoding="utf-8"?>
<!-- Generator: Adobe Illustrator 22.0.0, SVG Export Plug-In . SVG Version: 6.00 Build 0)  -->
<svg version="1.1" id="图层_1" xmlns="http://www.w3.org/2000/svg" xmlns:xlink="http://www.w3.org/1999/xlink" x="0px" y="0px"
	 viewBox="0 0 122 81.6" style="enable-background:new 0 0 122 81.6;" xml:space="preserve">
<g>
	<path d="M9.9,44.1c-1.5,0.6-3.3,0.6-5.6,0c-2.3-1-3.4-2.8-3.4-5.3c0-0.8,0.1-1.7,0.3-2.5c0.2-0.2,0.5-0.2,0.9,0
		c0.8,0.8,2,1.4,3.4,1.6c1.7-0.2,3.1-0.5,4.4-0.9V44.1z M38.7,37.5v5.6c-6,7.1-10.4,11.3-13.1,12.5c-1.7,1.3-3.9,1.9-6.6,1.9
		c-1.9-0.2-3.5-1.1-5-2.8c-2.9-2.7-4.3-6.6-4.1-11.6v-6.2c3.8-4,6.7-6.8,8.8-8.4c1.5-0.6,2.6-0.5,3.4,0.3c0,1.3-1.3,3.1-3.8,5.6
		c-2.5,2.7-4,5.6-4.4,8.7c-0.2,2.1,0.6,3.9,2.5,5.3c2.7,2.3,5.9,2.3,9.7,0c2.1-1,4.8-3.2,8.1-6.6C35.5,40.9,37,39.4,38.7,37.5z"/>
	<path d="M49,37.5c0.6,0,1.5,0,2.5,0v5.3c-2.5,1.5-4.7,2-6.6,1.6c-1.9-1-2.8-2.7-2.8-5c-1.5,1.3-2.7,2.5-3.8,3.7v-5.6
		c1-1,2-2,2.8-2.8c1.9-1.9,3.2-3.2,4.1-4.1c1-0.6,1.9-0.5,2.5,0.3c-0.4,1.3-0.8,2.4-1.3,3.4c-0.2,1.3-0.1,2.1,0.5,2.5
		C47.5,37.3,48.1,37.5,49,37.5z M51.5,37.5c6.9,0.4,14.6-0.6,23.1-3.1c5.8-1.7,11.7-4.4,17.5-8.1c5.8-3.8,10.5-6.8,14.1-9.1
		c2.1-3.8,4.6-7.6,7.5-11.6c2.1-2.5,4.3-4.2,6.6-5h0.6c0.2,0,0.2,0.4,0,1.3c-1.9,3.8-2.7,7.7-2.5,11.9c0,1,0,1.9,0,2.5
		c-0.8,0.8-4.5,2.4-10.9,4.7c-2.3,1.5-5.8,3.8-10.6,6.9C84.5,36,73.6,40.5,64,41.3l-12.5,1.6V37.5z"/>
</g>
</svg>
