<?xml version="1.0" encoding="utf-8"?>
<!-- Generator: Adobe Illustrator 22.0.0, SVG Export Plug-In . SVG Version: 6.00 Build 0)  -->
<svg version="1.1" id="图层_1" xmlns="http://www.w3.org/2000/svg" xmlns:xlink="http://www.w3.org/1999/xlink" x="0px" y="0px"
	 viewBox="0 0 51.9 81.6" style="enable-background:new 0 0 51.9 81.6;" xml:space="preserve">
<g>
	<path d="M34.9,37.5v5.9c-6,7.1-10.4,11.3-13.1,12.5c-1.7,1.3-3.9,1.9-6.6,1.9c-1.9-0.2-3.5-1.1-5-2.8C7.3,52.3,6,48.4,6.2,43.2
		v-5.6c3.8-4.2,6.7-7.1,8.8-8.8c1.5-0.6,2.6-0.5,3.4,0.3c0,1.3-1.3,3.1-3.8,5.6c-2.5,2.7-4,5.6-4.4,8.7c-0.2,2.1,0.6,3.9,2.5,5.3
		c2.7,2.3,5.9,2.3,9.7,0c2.1-1,4.8-3.3,8.1-6.9C31.8,40.9,33.3,39.4,34.9,37.5z"/>
	<path d="M42.7,30.7c1-0.6,1.8-0.4,2.2,0.6c-0.2,1-0.8,2.3-1.9,3.8c-0.6,0.8-0.8,1.8-0.6,2.8c0.8,0.2,2.1,0.2,3.8,0
		c2.5-0.2,4.5-0.3,5.9-0.3v5.6c-2.9,0-6.3,0.1-10,0.3c-1,0-1.7-0.2-2-0.6s-0.8-1.6-1.4-3.4c-1,1.7-2.2,2.9-3.4,3.7v-5.6
		c1-1,2.1-2.1,3.1-3.1C39.8,33,41.3,31.7,42.7,30.7z"/>
</g>
<path d="M6.5,43c-0.2,0-0.4,0-0.6,0c-1.8,0-3.6,0-5.4,0c0-2,0-4,0-6c1.7,0,3.3,0,5,0c0.7-0.3,1.3-0.7,2-1c0.3,1.7,0.7,3.3,1,5
	c-0.3,0.3-0.7,0.7-1,1S6.8,42.7,6.5,43z"/>
</svg>
