<?xml version="1.0" encoding="utf-8"?>
<!-- Generator: Adobe Illustrator 22.0.0, SVG Export Plug-In . SVG Version: 6.00 Build 0)  -->
<svg version="1.1" id="图层_1" xmlns="http://www.w3.org/2000/svg" xmlns:xlink="http://www.w3.org/1999/xlink" x="0px" y="0px"
	 viewBox="0 0 116.9 81.6" style="enable-background:new 0 0 116.9 81.6;" xml:space="preserve">
<g>
	<path d="M34.6,37.5v5.9c-6,7.1-10.4,11.3-13.1,12.5c-1.7,1.3-3.9,1.9-6.6,1.9c-1.9-0.2-3.5-1.1-5-2.8C7,52.3,5.6,48.4,5.9,43.2
		v-5.6c3.8-4.2,6.7-7.1,8.8-8.8c1.5-0.6,2.6-0.5,3.4,0.3c0,1.3-1.3,3.1-3.8,5.6c-2.5,2.7-4,5.6-4.4,8.7c-0.2,2.1,0.6,3.9,2.5,5.3
		c2.7,2.3,5.9,2.3,9.7,0c2.1-1,4.8-3.3,8.1-6.9C31.5,40.9,32.9,39.4,34.6,37.5z"/>
	<path d="M44.9,37.5c0.6,0,1.5,0,2.5,0v5.3c-2.5,1.5-4.7,2-6.6,1.6c-1.9-1-2.8-2.7-2.8-5c-1.5,1.3-2.7,2.5-3.8,3.7v-5.6
		c1-1,2-2,2.8-2.8c1.9-1.9,3.2-3.2,4.1-4.1c1-0.6,1.9-0.5,2.5,0.3c-0.4,1.3-0.8,2.4-1.3,3.4c-0.2,1.3-0.1,2.1,0.5,2.5
		C43.4,37.3,44.1,37.5,44.9,37.5z M47.4,37.5c6.9,0.4,14.6-0.6,23.1-3.1c5.8-1.7,11.7-4.4,17.5-8.1c5.8-3.8,10.5-6.8,14.1-9.1
		c2.1-3.8,4.6-7.6,7.5-11.6c2.1-2.5,4.3-4.2,6.6-5h0.6c0.2,0,0.2,0.4,0,1.3c-1.9,3.8-2.7,7.7-2.5,11.9c0,1,0,1.9,0,2.5
		c-0.8,0.8-4.5,2.4-10.9,4.7c-2.3,1.5-5.8,3.8-10.6,6.9C80.4,36,69.5,40.5,59.9,41.3l-12.5,1.6V37.5z"/>
</g>
<path d="M6.5,43c-0.2,0-0.4,0-0.6,0c-1.8,0-3.6,0-5.4,0c0-2,0-4,0-6c1.7,0,3.3,0,5,0c0.7-0.3,1.3-0.7,2-1c0.3,1.7,0.7,3.3,1,5
	c-0.3,0.3-0.7,0.7-1,1S6.8,42.7,6.5,43z"/>
</svg>
