<?xml version="1.0" encoding="utf-8"?>
<!-- Generator: Adobe Illustrator 22.0.0, SVG Export Plug-In . SVG Version: 6.00 Build 0)  -->
<svg version="1.1" id="图层_1" xmlns="http://www.w3.org/2000/svg" xmlns:xlink="http://www.w3.org/1999/xlink" x="0px" y="0px"
	 viewBox="0 0 74.3 81.6" style="enable-background:new 0 0 74.3 81.6;" xml:space="preserve">
<g>
	<path d="M9.9,44.1c-1.5,0.6-3.3,0.6-5.6,0c-2.3-1-3.4-2.8-3.4-5.3c0-0.8,0.1-1.7,0.3-2.5c0.2-0.2,0.5-0.2,0.9,0
		c0.8,0.8,2,1.4,3.4,1.6c1.7-0.2,3.1-0.5,4.4-0.9V44.1z M38.7,37.5v5.6c-6,7.1-10.4,11.3-13.1,12.5c-1.7,1.3-3.9,1.9-6.6,1.9
		c-1.9-0.2-3.5-1.1-5-2.8c-2.9-2.7-4.3-6.6-4.1-11.6v-6.2c3.8-4,6.7-6.8,8.8-8.4c1.5-0.6,2.6-0.5,3.4,0.3c0,1.3-1.3,3.1-3.8,5.6
		c-2.5,2.7-4,5.6-4.4,8.7c-0.2,2.1,0.6,3.9,2.5,5.3c2.7,2.3,5.9,2.3,9.7,0c2.1-1,4.8-3.2,8.1-6.6C35.5,40.9,37,39.4,38.7,37.5z"/>
	<path d="M44.3,30.7l0.3,0.6c-0.2,0.8-0.9,2.4-2.2,4.8c-1.3,2.4-1.9,3.7-1.9,3.9c1.5,2.9,3.5,4.4,6.3,4.4c1.5,0,5.7-2.1,12.7-6.2
		c7-4.2,11.3-6.6,13-7.2c0.4,0,0.6,0.2,0.6,0.6l-0.3,0.6c-4.6,4.6-7.5,7.5-8.8,8.8c-4.8,4.2-7.4,6.6-7.8,7.2
		c-2.7,2.9-4.6,4.4-5.6,4.4c-2.7,0.4-5-0.4-6.9-2.5c-0.2-0.2-0.8-1.1-1.7-2.8S40,44,39,42.5l-0.6-0.9v-5l5-5.3
		C43.8,30.9,44.1,30.7,44.3,30.7z"/>
</g>
</svg>
