<?xml version="1.0" encoding="utf-8"?>
<!-- Generator: Adobe Illustrator 22.0.0, SVG Export Plug-In . SVG Version: 6.00 Build 0)  -->
<svg version="1.1" id="图层_1" xmlns="http://www.w3.org/2000/svg" xmlns:xlink="http://www.w3.org/1999/xlink" x="0px" y="0px"
	 viewBox="0 0 51.9 81.6" style="enable-background:new 0 0 51.9 81.6;" xml:space="preserve">
<g>
	<path d="M34.9,37.5v5.9c-6,7.1-10.4,11.3-13.1,12.5c-1.7,1.3-3.9,1.9-6.6,1.9c-1.9-0.2-3.5-1.1-5-2.8C7.3,52.3,6,48.4,6.2,43.2
		v-5.6c3.8-4.2,6.7-7.1,8.8-8.8c1.5-0.6,2.6-0.5,3.4,0.3c0,1.3-1.3,3.1-3.8,5.6c-2.5,2.7-4,5.6-4.4,8.7c-0.2,2.1,0.6,3.9,2.5,5.3
		c2.7,2.3,5.9,2.3,9.7,0c2.1-1,4.8-3.3,8.1-6.9C31.8,40.9,33.3,39.4,34.9,37.5z"/>
	<path d="M40.2,32.4c1-1.1,2.4-2.7,4.2-4.5c1.8-1.9,3.3-3,4.5-3.4c0.2,0,0.4,0.3,0.6,0.9c0,0.6-1.6,2.9-4.7,6.9
		c-2.5,3.1-4.1,5-4.7,5.6c0.6,0.8,1.3,1.3,1.9,1.3l2.2-0.9c1-0.4,2.5-0.6,4.4-0.6h3.4v5.6h-2.8c-2.3,0-4.2,0.3-5.8,0.9
		s-2.8,0.5-3.6-0.3c-0.8-1.7-1.4-3-1.6-4.1c-0.8,1-1.9,2.2-3.1,3.4v-5.6C37.5,35.3,39.2,33.5,40.2,32.4z"/>
</g>
<path d="M6.5,43c-0.2,0-0.4,0-0.6,0c-1.8,0-3.6,0-5.4,0c0-2,0-4,0-6c1.7,0,3.3,0,5,0c0.7-0.3,1.3-0.7,2-1c0.3,1.7,0.7,3.3,1,5
	c-0.3,0.3-0.7,0.7-1,1S6.8,42.7,6.5,43z"/>
</svg>
