<?xml version="1.0" encoding="utf-8"?>
<!-- Generator: Adobe Illustrator 22.0.0, SVG Export Plug-In . SVG Version: 6.00 Build 0)  -->
<svg version="1.1" id="图层_1" xmlns="http://www.w3.org/2000/svg" xmlns:xlink="http://www.w3.org/1999/xlink" x="0px" y="0px"
	 viewBox="0 0 79.1 81.6" style="enable-background:new 0 0 79.1 81.6;" xml:space="preserve">
<g>
	<path d="M14.9,51.9c1.5,2.1,4.2,3.2,8.1,3.4c5.6,0,11.5-3.3,17.5-10c0.4-0.8,0.6-1.6,0.6-2.2l5.9-0.6c-3.3,6-7.9,11.1-13.8,15.3
		c-2.7,2.5-6.1,3.9-10.3,4.1c-4.2-0.4-7.6-2.1-10.3-5c-1.5-1.5-2.6-3.1-3.4-5c-0.6-1.9-1-4.3-1.3-7.2c-1.5,0.2-3-0.3-4.7-1.6
		c-1.7-1.2-2.5-2.7-2.5-4.4c0-0.4,0.1-1,0.3-1.9c1.3,0.4,2.7,0.7,4.4,0.9c1.3,0,2.1-0.5,2.5-1.6c0.4-1,0.7-2.1,0.9-3.1
		c1-1.9,2-2.7,2.8-2.5c1,0.2,1.6,0.8,1.6,1.9c-0.8,3.8-1.4,7.2-1.6,10.3C12,47.2,13,50.3,14.9,51.9z"/>
	<path d="M35.5,43.2c-2.1,0.4-3.5,0.5-4.4,0.3c-2.3,0-4-0.5-5-1.6c-0.8-1.3-1.3-3-1.3-5.3c0.8-3.3,1.8-5.6,2.8-6.9
		c1.9-2.5,4.3-4.3,7.3-5.5c3-1.1,5.7-1.5,8-1.1c1.9,0.2,3.2,1.1,4.1,2.8c1.7,3.3,1.6,7.2-0.3,11.6h2.5l-0.6,5.3L35.5,43.2z
		 M38.7,28.5c-0.8,0-1.9,0.1-3.1,0.3c-3.1,1.5-5,3.4-5.6,5.9c-0.2,2.5,1.3,3.8,4.4,3.8c2.9,0,5.5-0.4,7.8-1.3
		c1.3-0.8,1.9-2.3,1.9-4.4C43.4,29.7,41.6,28.3,38.7,28.5z M49.3,37.5c0.6,0,1.5-0.1,2.5-0.3c2.3-0.8,5.9-3.4,10.9-7.8l9.1-7.8
		l1.3-0.3l0.3,0.6c-0.6,2.5-2.2,4.9-4.7,7.2c-0.6,0.6-3,3.2-7.2,7.8l0.3,0.9L79,37.5v5.6l-6.6-0.3c-2.3,0-4.3,0-5.9,0
		c-0.4,0-1.2,0.2-2.3,0.5c-1.1,0.3-2,0.5-2.7,0.5c-1.5,0-2.6-1.8-3.4-5.3c-3.1,2.7-6.3,4.2-9.4,4.4L49.3,37.5z"/>
</g>
</svg>
