<?xml version="1.0" encoding="utf-8"?>
<!-- Generator: Adobe Illustrator 22.0.0, SVG Export Plug-In . SVG Version: 6.00 Build 0)  -->
<svg version="1.1" id="图层_1" xmlns="http://www.w3.org/2000/svg" xmlns:xlink="http://www.w3.org/1999/xlink" x="0px" y="0px"
	 viewBox="0 0 52.6 81.6" style="enable-background:new 0 0 52.6 81.6;" xml:space="preserve">
<g>
	<path d="M31.5,58.2c-2.5,1.7-5.4,2.6-8.8,2.8c-5.4,0-9.9-2-13.4-5.9c-2.1-2.9-3.2-6.9-3.4-11.9v-5.6c0.6-1.3,2-3.1,4.1-5.6l3.1-3.4
		c1.3-0.8,2.2-0.7,2.8,0.3c-0.2,0.8-1.3,2.7-3.3,5.6c-2,2.9-3,5.9-3,9.1c-0.2,3.3,0.8,6,3.1,8.1c2.3,2.1,5.5,3,9.7,2.8
		c5.2,0.4,11.1-2.3,17.8-8.1c0.8-1.3,1.5-2.4,1.9-3.4l4.7-0.3C44.3,48,39.2,53.2,31.5,58.2z"/>
	<path d="M34.6,43.2c-2.1,0.4-3.5,0.5-4.4,0.3c-2.3,0-4-0.5-5-1.6c-0.8-1.3-1.3-3-1.3-5.3c0.8-3.3,1.8-5.6,2.8-6.9
		c1.9-2.5,4.3-4.3,7.3-5.5c3-1.1,5.7-1.5,8-1.1c1.9,0.2,3.2,1.1,4.1,2.8c1.7,3.3,1.6,7.2-0.3,11.6h6.9v5.6H34.6z M37.7,28.5
		c-0.8,0-1.9,0.1-3.1,0.3c-3.1,1.5-5,3.4-5.6,5.9c-0.2,2.5,1.3,3.8,4.4,3.8c2.9,0,5.5-0.4,7.8-1.3c1.3-0.8,1.9-2.3,1.9-4.4
		C42.4,29.7,40.6,28.3,37.7,28.5z"/>
</g>
<path d="M6.5,43c-0.2,0-0.4,0-0.6,0c-1.8,0-3.6,0-5.4,0c0-2,0-4,0-6c1.7,0,3.3,0,5,0c0.7-0.3,1.3-0.7,2-1c0.3,1.7,0.7,3.3,1,5
	c-0.3,0.3-0.7,0.7-1,1S6.8,42.7,6.5,43z"/>
</svg>
