<?xml version="1.0" encoding="utf-8"?>
<!-- Generator: Adobe Illustrator 22.0.0, SVG Export Plug-In . SVG Version: 6.00 Build 0)  -->
<svg version="1.1" id="图层_1" xmlns="http://www.w3.org/2000/svg" xmlns:xlink="http://www.w3.org/1999/xlink" x="0px" y="0px"
	 viewBox="0 0 112.1 81.6" style="enable-background:new 0 0 112.1 81.6;" xml:space="preserve">
<g>
	<path d="M34,43.2c-2.5,3.3-4.6,7.3-6.3,11.9c-0.6,0.4-1.3,0.7-1.9,0.9c-0.6,0-3.2-1.1-7.8-3.4c-2.3-1.5-5.4-3-9.4-4.7
		c-3.5-1.5-5.7-2.4-6.6-2.8c-0.8-0.4-1.3-0.8-1.3-1.3l0.6-0.9l2.8,0.3c4.8,1.5,8.3,2.2,10.6,2.2c2.9-0.2,5.6-0.7,8.1-1.6
		s6.1-3,10.9-6.6V43.2z M27.1,55c0.2,3.8,0.3,6.3,0.3,7.5c0.2,3.1-0.2,5.5-1.3,7.2c-1,1.7-3.5,2.9-7.5,3.8c-4.6,0.8-7.5,1.9-8.8,3.1
		C9.3,77,8.7,77.2,8,77.2c0-1.3,1.8-3.6,5.3-7.2l6.9-6.9c2.9-4.2,4.4-7.1,4.4-8.8L27.1,55z M43.4,38.2c1,0.2,2.2,0,3.4-0.6v5.6
		c-2.1,1.5-4.1,1.9-5.9,1.3c-1.3-0.2-2.3-1.9-3.1-5c-1.5,1.3-2.7,2.5-3.8,3.7v-5.9c1-0.8,2-1.7,2.8-2.5c2.1-2.1,3.6-3.5,4.7-4.4
		c0.8-0.6,1.5-0.5,1.9,0.3c-0.4,1.3-0.9,2.5-1.6,3.8c-0.4,1.3-0.5,2.1-0.2,2.5C42,37.3,42.5,37.8,43.4,38.2z"/>
	<path d="M87.4,44.1c4.2,2.7,7.7,5.5,10.6,8.4c3.3,3.3,6,6.3,8.1,8.8c1.5,1.7,2.6,2.8,3.4,3.4c0.8,0.6,1.3,1.2,1.3,1.7
		s-0.3,1.3-0.9,2.3s-1.3,3.3-1.9,6.9c0,1.7-0.1,2.5-0.3,2.5c-2.1-0.8-3.6-2.6-4.7-5.3l-1.6-7.5c-0.4-2.3-1.5-4.7-3.1-7.2
		c-4.2-4.4-7.4-7.3-9.7-8.8C81.8,45,72.8,43,61.8,43.2h-15v-5.6c11,0,17.8,0,20.3,0C74.4,38,81.2,40.1,87.4,44.1z"/>
</g>
</svg>
