<?xml version="1.0" encoding="utf-8"?>
<!-- Generator: Adobe Illustrator 22.0.0, SVG Export Plug-In . SVG Version: 6.00 Build 0)  -->
<svg version="1.1" id="图层_1" xmlns="http://www.w3.org/2000/svg" xmlns:xlink="http://www.w3.org/1999/xlink" x="0px" y="0px"
	 viewBox="0 0 64.3 81.6" style="enable-background:new 0 0 64.3 81.6;" xml:space="preserve">
<g>
	<path d="M33.8,43.2c-2.5,3.3-4.6,7.3-6.3,11.9c-0.6,0.4-1.3,0.7-1.9,0.9c-0.6,0-3.2-1.1-7.8-3.4c-2.3-1.5-5.4-3-9.4-4.7
		C5,46.4,2.8,45.5,2,45c-0.8-0.4-1.3-0.8-1.3-1.3l0.6-0.9l2.8,0.3c4.8,1.5,8.3,2.2,10.6,2.2c2.9-0.2,5.6-0.7,8.1-1.6s6.1-3,10.9-6.6
		V43.2z M27,55c0.2,3.8,0.3,6.3,0.3,7.5c0.2,3.1-0.2,5.5-1.3,7.2c-1,1.7-3.5,2.9-7.5,3.8c-4.6,0.8-7.5,1.9-8.8,3.1
		c-0.6,0.4-1.3,0.6-1.9,0.6c0-1.3,1.8-3.6,5.3-7.2l6.9-6.9c2.9-4.2,4.4-7.1,4.4-8.8L27,55z M43.2,38.2c1,0.2,2.2,0,3.4-0.6v5.6
		c-2.1,1.5-4.1,1.9-5.9,1.3c-1.3-0.2-2.3-1.9-3.1-5c-1.5,1.3-2.7,2.5-3.8,3.7v-5.9c1-0.8,2-1.7,2.8-2.5c2.1-2.1,3.6-3.5,4.7-4.4
		c0.8-0.6,1.5-0.5,1.9,0.3c-0.4,1.3-0.9,2.5-1.6,3.8c-0.4,1.3-0.5,2.1-0.2,2.5C41.8,37.3,42.4,37.8,43.2,38.2z"/>
	<path d="M55.4,30.7c0.8-0.6,1.5-0.4,1.9,0.6c-0.2,1-0.8,2.3-1.9,3.8c-0.6,0.8-0.8,1.8-0.6,2.8c0.8,0.2,2.1,0.2,3.8,0
		c2.5-0.2,4.5-0.3,5.9-0.3v5.6c-2.9,0-6.2,0.1-10,0.3c-1,0-1.7-0.2-2-0.6s-0.7-1.4-1.1-2.8c-1.9,1.3-3.4,2.3-4.7,3.1v-5.6
		c1.3-1,2.5-2,3.8-2.8C52.5,32.9,54.2,31.5,55.4,30.7z"/>
</g>
</svg>
