<?xml version="1.0" encoding="utf-8"?>
<!-- Generator: Adobe Illustrator 22.0.0, SVG Export Plug-In . SVG Version: 6.00 Build 0)  -->
<svg version="1.1" id="图层_1" xmlns="http://www.w3.org/2000/svg" xmlns:xlink="http://www.w3.org/1999/xlink" x="0px" y="0px"
	 viewBox="0 0 36.9 81.6" style="enable-background:new 0 0 36.9 81.6;" xml:space="preserve">
<g>
	<path d="M16.1,56.9c-0.2,0.6-2.2,2.3-5.9,5.2s-6,4.8-6.9,6.1C2,68.8,1.6,68.4,2,66.9c0-1,0.9-3.4,2.8-7s2.9-6.5,3.1-8.6l0.3-2.5V46
		c0-2.9,0.3-4.6,0.9-5c1.3,0.4,2.7,2.6,4.4,6.6c1.7,4,2.5,6.8,2.5,8.4V56.9z M16.1,38.2c1,0.2,2.2,0,3.4-0.6v5.6
		c-2.1,1.5-4.1,1.9-5.9,1.3c-1.3-0.2-2.3-1.9-3.1-5c-1.7,1.7-3.5,2.9-5.6,3.7v-5.6c2.3-1,3.9-2,4.7-2.8c2.1-2.1,3.6-3.5,4.7-4.4
		c0.8-0.6,1.5-0.5,1.9,0.3c-0.4,1.3-0.9,2.5-1.6,3.8s-0.7,2.1-0.3,2.5C14.6,37.3,15.3,37.8,16.1,38.2z"/>
	<path d="M28,30.7c0.8-0.6,1.5-0.4,1.9,0.6c-0.2,1-0.8,2.3-1.9,3.8c-0.6,0.8-0.8,1.8-0.6,2.8c0.8,0.2,2.1,0.2,3.8,0
		c2.5-0.2,4.5-0.3,5.9-0.3v5.6c-2.9,0-6.3,0.1-10,0.3c-1,0-1.7-0.2-2-0.6s-0.7-1.4-1.1-2.8c-1.9,1.3-3.4,2.3-4.7,3.1v-5.6
		c1.3-1,2.5-2,3.8-2.8C25.1,32.9,26.7,31.5,28,30.7z"/>
</g>
<path d="M6.5,43c-0.2,0-0.4,0-0.6,0c-1.8,0-3.6,0-5.4,0c0-2,0-4,0-6c1.7,0,3.3,0,5,0c0.7-0.3,1.3-0.7,2-1c0.3,1.7,0.7,3.3,1,5
	c-0.3,0.3-0.7,0.7-1,1S6.8,42.7,6.5,43z"/>
</svg>
