<?xml version="1.0" encoding="utf-8"?>
<!-- Generator: Adobe Illustrator 22.0.0, SVG Export Plug-In . SVG Version: 6.00 Build 0)  -->
<svg version="1.1" id="图层_1" xmlns="http://www.w3.org/2000/svg" xmlns:xlink="http://www.w3.org/1999/xlink" x="0px" y="0px"
	 viewBox="0 0 115 81.6" style="enable-background:new 0 0 115 81.6;" xml:space="preserve">
<g>
	<path d="M21.8,39.4c-2.7,0-6.3,0.5-10.6,1.6c-4.4,0.8-7.8,1.6-10.3,2.2v-5.6c3.5-0.4,6.9-0.9,10-1.6c4-0.4,8.4-0.9,13.4-1.6
		c2.7,1,4.2,2,4.5,2.8c0.3,0.8,0.3,2.4-0.2,4.7l-8.4,30.3c-0.2,0.4-0.9,0.4-2.2,0c-1.5-0.4-3.4-0.4-5.9,0c-5.6,1.5-8.1,2.2-7.5,2.2
		H3.7c0.2-2.1,0.9-4.2,2.2-6.3s3-3.8,5.2-5s3.9-2.7,5-4.4c1.1-1.7,2.1-3.8,3-6.3c2.5-6,3.8-9.8,3.8-11.2
		C23.1,40.3,22.8,39.6,21.8,39.4z"/>
	<path d="M102.7,10c1-2.3,2.3-4.2,3.9-5.6c1.6-1.5,3.6-2.9,6.1-4.4h1.3c0,1.3-0.7,4-2.2,8.1c-0.6,2.9-0.7,4.9-0.3,5.9
		c-2.5,1-5.6,2.6-9.4,4.7c-12.5,8.8-24.3,14.8-35.3,18.1c-5.6,2.1-10.7,3.8-15.3,5c-3.8,2.9-6.1,4.4-7.2,4.4
		c-1.3,0.2-2.6-1.3-4.1-4.4c-0.8-2.5-1.3-4.4-1.3-5.6c0-1.7,0.6-2.5,1.9-2.5s2.8,0.7,4.7,2c1.9,1.4,4.1,1.9,6.6,1.7
		c2.3-0.4,7-1.7,14.1-3.8c5.8-1.9,11.3-4.1,16.3-6.6c8.8-4.8,14.3-8.3,16.6-10.6L102.7,10z"/>
</g>
</svg>
