<?xml version="1.0" encoding="utf-8"?>
<!-- Generator: Adobe Illustrator 22.0.0, SVG Export Plug-In . SVG Version: 6.00 Build 0)  -->
<svg version="1.1" id="图层_1" xmlns="http://www.w3.org/2000/svg" xmlns:xlink="http://www.w3.org/1999/xlink" x="0px" y="0px"
	 viewBox="0 0 59.6 81.6" style="enable-background:new 0 0 59.6 81.6;" xml:space="preserve">
<g>
	<path d="M13.2,42.9c0.2,2.7,0.3,4.8,0.3,6.3c0.6,3.3,0.9,5.2,0.9,5.6v0.6c-0.4,1.7-1.5,3-3.1,4.1c-0.2,0.2-1.7,0.8-4.4,1.9
		s-4.4,1.7-5,2s-1,0.5-1.3,0.5C0.3,64,0,63.7,0,62.9c0-0.2,0.8-1,2.5-2.5c3.1-4,5.1-7,5.8-9.2s1.2-3.6,1.4-4.2c0.4-2.3,0.6-4,0.6-5
		C11.4,40.5,12.3,40.8,13.2,42.9z M16.6,30.7c0.8-0.6,1.5-0.4,1.9,0.6c-0.2,1-0.8,2.3-1.9,3.8c-0.6,0.8-0.8,1.8-0.6,2.8
		c0.8,0.2,2.1,0.2,3.8,0c1.5-0.2,2.9-0.3,4.4-0.3v5.6c-1.9,0-4.7,0.1-8.4,0.3c-1,0-1.7-0.2-2-0.6S13,41.5,12.5,40
		c-1.9,1.3-3.4,2.3-4.7,3.1v-5.6c1.3-1,2.5-2,3.8-2.8C13.7,32.9,15.4,31.5,16.6,30.7z"/>
	<path d="M27.2,29.7c1.7-5,5.7-8.3,12.2-10c6-0.2,9.9,0.8,11.6,3.1c1.7,2.3,2.3,4.1,1.9,5.3c0.4,2.7-0.5,5.5-2.8,8.4
		c-0.4,0.2-0.6,0.5-0.6,0.9c1.3,0.2,4.6,0.2,10,0v5.6l-11.6-0.3c-4.6,1.5-7.1,2.3-7.5,2.5c-2.3,0-4.9-0.4-8-1.1
		c-3-0.7-5.9-1.1-8.6-1.1v-5.6c1,0,1.9-0.1,2.5-0.3C26.3,34.7,26.6,32.2,27.2,29.7z M36.6,38.5c3.1,0,5.9-0.6,8.4-1.9
		c2.3-3.5,2.3-6.5,0-8.8c-1.3-0.8-3-1.3-5.3-1.3c-2.5,0.2-4.6,0.9-6.3,2c-1.7,1.1-2.7,2.8-3.1,4.8c-0.4,1.5-0.2,2.8,0.6,4.1
		C32.6,38.2,34.5,38.5,36.6,38.5z"/>
</g>
<path d="M7.5,43c-0.2,0-1.4,0-1.6,0c-1.8,0-3.6,0-5.4,0c0-2,0-4,0-6c1.7,0,3.3,0,5,0c0.7-0.3,1.3,0.3,2,0c1,1,0.7,2.3,1,4
	C8.2,41.3,8.5,42,7.5,43C7.2,43.3,7.8,42.7,7.5,43z"/>
</svg>
