<?xml version="1.0" encoding="utf-8"?>
<!-- Generator: Adobe Illustrator 22.0.0, SVG Export Plug-In . SVG Version: 6.00 Build 0)  -->
<svg version="1.1" id="图层_1" xmlns="http://www.w3.org/2000/svg" xmlns:xlink="http://www.w3.org/1999/xlink" x="0px" y="0px"
	 viewBox="0 0 64.6 81.6" style="enable-background:new 0 0 64.6 81.6;" xml:space="preserve">
<g>
	<path d="M14.2,42.9c0.2,2.7,0.3,4.8,0.3,6.3c0.6,3.3,0.9,5.2,0.9,5.6v0.6c-0.4,1.7-1.5,3-3.1,4.1c-0.2,0.2-1.7,0.8-4.4,1.9
		s-4.4,1.7-5,2s-1,0.5-1.3,0.5C1.3,64,1,63.7,1,62.9c0-0.2,0.8-1,2.5-2.5c3.1-4,5.1-7,5.8-9.2s1.2-3.6,1.4-4.2c0.4-2.3,0.6-4,0.6-5
		C12.4,40.5,13.3,40.8,14.2,42.9z M17.6,30.7c0.8-0.6,1.5-0.4,1.9,0.6c-0.2,1-0.8,2.3-1.9,3.8c-0.6,0.8-0.8,1.8-0.6,2.8
		c0.8,0.2,2.1,0.2,3.8,0c1.5-0.2,2.9-0.3,4.4-0.3v5.6c-1.9,0-4.7,0.1-8.4,0.3c-1,0-1.7-0.2-2-0.6S14,41.5,13.5,40
		c-1.9,1.3-3.4,2.3-4.7,3.1v-5.6c1.3-1,2.5-2,3.8-2.8C14.7,32.9,16.4,31.5,17.6,30.7z"/>
	<path d="M35.4,61.6c-2.5-0.8-4.5-2.3-5.9-4.4c-1.5-2.5-2.4-4.8-2.8-6.9c-0.4-2.1-0.7-4.5-0.9-7.2h-0.9v-5.6l1.3-0.3
		c0.4-2.5,1.3-4.7,2.7-6.6c1.4-1.9,3.3-3.9,5.8-5.9c2.9-1.9,5.5-2.9,7.8-3.1c5.6-0.6,9.8-0.1,12.5,1.6c2.7,1.9,4.2,3.4,4.5,4.5
		c0.3,1.1,0.5,1.8,0.5,2c0,0.6-1.4,2.3-4.1,5c-2.7,3.1-4.4,5.2-5,6.3c-0.6,1-1.5,1.8-2.5,2.2H28.9c0,3.1,0.7,5.8,2.2,8.1
		c2.3,2.9,5.5,4.4,9.7,4.4c5.2-0.2,10-1.8,14.4-4.7c3.5-2.3,5.5-3.4,5.9-3.4c0.2,0.6-0.6,2-2.3,4.1c-1.8,2.1-4.9,4.4-9.5,7
		C44.6,61.2,40,62.2,35.4,61.6z M32.3,32.9c-1,1-1.6,2.5-1.6,4.4c3.3,0.2,6.8,0.2,10.3,0c3.8,0,6.1-0.9,7.2-2.8
		c0.2-2.7-1-4.8-3.8-6.3c-2.7-0.6-5.2-0.4-7.3,0.6C35,29.8,33.3,31.2,32.3,32.9z"/>
</g>
<path d="M9.5,43c-0.2,0-0.4,0-0.6,0c-1.8,0-6.6,0-8.4,0c0-2,0-4,0-6c1.7,0,6.3,0,8,0c0.7-0.3,1.3-0.7,2-1c0.3,1.7,0.7,3.3,1,5
	c-0.3,0.3-0.7,0.7-1,1S9.8,42.7,9.5,43z"/>
</svg>
