<?xml version="1.0" encoding="utf-8"?>
<!-- Generator: Adobe Illustrator 22.0.0, SVG Export Plug-In . SVG Version: 6.00 Build 0)  -->
<svg version="1.1" id="图层_1" xmlns="http://www.w3.org/2000/svg" xmlns:xlink="http://www.w3.org/1999/xlink" x="0px" y="0px"
	 viewBox="0 0 68.4 81.6" style="enable-background:new 0 0 68.4 81.6;" xml:space="preserve">
<g>
	<path d="M10.4,43.2C9.2,44,7.9,44.6,6.7,45c-1.5,0-2.8-0.7-4.1-2c-1.3-1.4-1.8-2.9-1.6-4.5c0-1.3,0.6-1.9,1.9-1.9
		c1.3,1.3,2.4,1.9,3.4,1.9c1,0.2,2.4-0.1,4.1-0.9V43.2z M63.5,6.9C61.7,14,58.5,20,54.2,25c-2.5,2.9-4.8,4.4-6.9,4.4
		c-0.6,0-1.3-0.1-1.9-0.3c-3.1-3.1-5.5-6-7.2-8.8c-3.1,2.1-6.6,4.8-10.3,8.1L10.4,43.2v-5.6c11.5-9.8,19.4-16.3,23.8-19.4
		C48.1,8,57.3,2.6,61.7,2.2c1,0.6,1.8,1.5,2.2,2.5L63.5,6.9z M51.7,43.2l-25.9-0.3c-1.9,0.8-3.2,1.3-4.1,1.3
		c-1.5,0.2-2.3-0.4-2.5-1.9c-0.2-0.6-0.3-1.2-0.3-1.9c0-1.9,0.6-3.3,1.9-4.4c1.3,1,2.2,1.6,2.8,1.6h28.1V43.2z M54.8,8.8
		c-5.4,2.9-10,5.8-13.8,8.8v1.3l1.9,2.2c1.5,1.9,2.8,3.1,4.1,3.8c1.7,0.4,3.5-0.7,5.6-3.4c3.5-5,5.3-8.3,5.3-10
		C57.9,9.2,56.9,8.4,54.8,8.8z"/>
	<path d="M59.5,30.7c0.8-0.6,1.5-0.4,1.9,0.6c-0.2,1-0.8,2.3-1.9,3.8c-0.6,0.8-0.8,1.8-0.6,2.8c0.8,0.2,2.1,0.2,3.8,0
		c2.5-0.2,4.5-0.3,5.9-0.3v5.6c-2.9,0-6.2,0.1-10,0.3c-1,0-1.7-0.2-2-0.6s-0.7-1.4-1.1-2.8c-1.9,1.3-3.4,2.3-4.7,3.1v-5.6
		c1.3-1,2.5-2,3.8-2.8C56.5,32.9,58.2,31.5,59.5,30.7z"/>
</g>
</svg>
