<?xml version="1.0" encoding="utf-8"?>
<!-- Generator: Adobe Illustrator 22.0.0, SVG Export Plug-In . SVG Version: 6.00 Build 0)  -->
<svg version="1.1" id="图层_1" xmlns="http://www.w3.org/2000/svg" xmlns:xlink="http://www.w3.org/1999/xlink" x="0px" y="0px"
	 viewBox="0 0 76.1 81.6" style="enable-background:new 0 0 76.1 81.6;" xml:space="preserve">
<g>
	<path d="M10.5,43.2C9.3,44,8,44.6,6.8,45c-1.5,0-2.8-0.7-4.1-2c-1.3-1.4-1.8-2.9-1.6-4.5c0-1.3,0.6-1.9,1.9-1.9
		c1.3,1.3,2.4,1.9,3.4,1.9c1,0.2,2.4-0.1,4.1-0.9V43.2z M63.7,6.9C61.8,14,58.7,20,54.3,25c-2.5,2.9-4.8,4.4-6.9,4.4
		c-0.6,0-1.3-0.1-1.9-0.3c-3.1-3.1-5.5-6-7.2-8.8c-3.1,2.1-6.6,4.8-10.3,8.1L10.5,43.2v-5.6C22,27.8,29.9,21.3,34.3,18.2
		C48.3,8,57.4,2.6,61.8,2.2c1,0.6,1.8,1.5,2.2,2.5L63.7,6.9z M51.8,43.2l-25.9-0.3c-1.9,0.8-3.2,1.3-4.1,1.3
		c-1.5,0.2-2.3-0.4-2.5-1.9C19.1,41.6,19,41,19,40.4c0-1.9,0.6-3.3,1.9-4.4c1.3,1,2.2,1.6,2.8,1.6h28.1V43.2z M54.9,8.8
		c-5.4,2.9-10,5.8-13.8,8.8v1.3L43,21c1.5,1.9,2.8,3.1,4.1,3.8c1.7,0.4,3.5-0.7,5.6-3.4c3.5-5,5.3-8.3,5.3-10
		C58,9.2,57,8.4,54.9,8.8z"/>
	<path d="M56.8,41.8c-0.4-1.1-0.8-2-1.3-2.7c-1.5,1.3-3,2.6-4.7,4.1v-5.6c2.1-1.9,5.1-4.5,9.1-7.8l8.8-6.6c0.6-0.2,1,0,1.3,0.6
		c-0.6,1.9-1.9,3.6-3.8,5.3c-0.6,0.8-3.2,3.2-7.8,7.2c-0.2,0.2-0.2,0.7,0,1.6l17.8-0.3v5.6H63c-0.8,0.2-2.2,0.3-4.1,0.3
		C57.9,43.5,57.2,42.9,56.8,41.8z"/>
</g>
</svg>
