<?xml version="1.0" encoding="utf-8"?>
<!-- Generator: Adobe Illustrator 22.0.0, SVG Export Plug-In . SVG Version: 6.00 Build 0)  -->
<svg version="1.1" id="图层_1" xmlns="http://www.w3.org/2000/svg" xmlns:xlink="http://www.w3.org/1999/xlink" x="0px" y="0px"
	 viewBox="0 0 67.6 81.6" style="enable-background:new 0 0 67.6 81.6;" xml:space="preserve">
<g>
	<path d="M21.3,59.4c-2.3,0.8-4.4,1.1-6.3,0.9c-3.1-0.4-5.5-1.8-7.2-4.1c-1.7-2.3-2.5-5.1-2.5-8.4c0-0.8,0.2-2.1,0.6-3.8
		c-1.3,0-2.4-0.6-3.6-1.7c-1.1-1.1-1.7-2.4-1.7-3.9c0-2.1,0.6-3.1,1.9-3.1c0.4,0,0.9,0.1,1.6,0.3c1,2.1,2.8,3,5.3,2.8
		c3.3,0,5.2-2,5.6-5.9c0-0.6,0.2-1,0.6-1.3c1.9,0.6,2.8,1.8,2.8,3.4c0,2.5-0.4,4.1-1.3,4.8c-0.8,0.7-2.1,1.7-3.9,2.8
		c-1.8,1.1-3.1,2.1-3.9,3c-1,2.1-1.1,4-0.3,5.6c1.5,2.1,3.1,3.1,5,3.1c2.5,0.4,5.7-0.9,9.7-4.1L37,37.2v5.9c-4,4.6-7.2,8.3-9.7,11.3
		C25.6,56.5,23.6,58.2,21.3,59.4z M22.3,17.2c2.5,1,3.5,2.5,3.1,4.4c0,1.5-0.9,2.2-2.8,2.2c-1.9-0.2-3.4-1.4-4.7-3.4
		c-1.3-2.1-1.7-4.2-1.3-6.3c0.6,0,1.1,0,1.6,0C18.8,14.9,20.2,16,22.3,17.2z M31.3,12.9c2.7,1,3.9,2.5,3.4,4.4
		c0,1.5-0.9,2.2-2.8,2.2c-1.9-0.2-3.4-1.4-4.7-3.4c-1.3-2.1-1.7-4.2-1.3-6.3c0.6,0,1.1,0,1.6,0C28.2,10.6,29.5,11.6,31.3,12.9z
		 M46.7,38.2c1,0.2,2.1,0,3.1-0.6v5.6c-2.1,1.5-4.1,1.9-5.9,1.3c-1.3-0.2-2.3-1.9-3.1-5c-1.5,1.3-2.7,2.5-3.8,3.7v-5.9
		c1-0.8,2-1.7,2.8-2.5c2.1-2.1,3.6-3.5,4.7-4.4c0.8-0.6,1.5-0.5,1.9,0.3c-0.4,1.3-0.9,2.5-1.6,3.8c-0.2,1.3-0.2,2.1,0.2,2.5
		C45.2,37.3,45.8,37.8,46.7,38.2z"/>
	<path d="M58.2,30.7c0.8-0.6,1.5-0.4,1.9,0.6c-0.2,1-0.8,2.3-1.9,3.8c-0.6,0.8-0.8,1.8-0.6,2.8c0.8,0.2,2.1,0.2,3.8,0
		c2.5-0.2,4.5-0.3,5.9-0.3v5.6c-2.9,0-6.2,0.1-10,0.3c-1,0-1.7-0.2-2-0.6s-0.7-1.4-1.1-2.8c-1.9,1.3-3.4,2.3-4.7,3.1v-5.6
		c1.3-1,2.5-2,3.8-2.8C55.3,32.9,57,31.5,58.2,30.7z"/>
</g>
</svg>
