<?xml version="1.0" encoding="utf-8"?>
<!-- Generator: Adobe Illustrator 22.0.0, SVG Export Plug-In . SVG Version: 6.00 Build 0)  -->
<svg version="1.1" id="图层_1" xmlns="http://www.w3.org/2000/svg" xmlns:xlink="http://www.w3.org/1999/xlink" x="0px" y="0px"
	 viewBox="0 0 125.3 81.6" style="enable-background:new 0 0 125.3 81.6;" xml:space="preserve">
<g>
	<path d="M15.5,37.9c1.5-0.2,2.8-0.6,4.1-1.3l0.9,4.1C17,43,14.3,44,12.4,43.8c-1.9-0.6-2.8-2.1-2.8-4.4c-1.5,1.7-2.7,2.9-3.8,3.7
		v-5.6c1-1,2-2,2.8-2.8c2.1-2.1,3.6-3.5,4.7-4.4c0.8-0.6,1.5-0.5,1.9,0.3c-0.4,1.3-0.9,2.5-1.6,3.8c-0.4,1.3-0.4,2.1,0,2.5
		C14.1,37.3,14.7,37.6,15.5,37.9z M19.6,36.6c1.9-0.8,3.9-1.9,5.9-3.1c1.7-0.8,3.3-0.8,5,0c2.5,1.3,4.8,3.3,6.9,6.3
		c2.1,2.9,3,5.6,2.8,8.1c-3.1,2.3-5.9,5.4-8.4,9.4c-0.2,0.6-0.6,0.9-1.3,0.9c0.2-1.9,0.3-4.2,0.3-6.9c-0.2-4.2-1.3-8.4-3.1-12.8
		c-0.4-0.4-0.8-0.6-1.3-0.6c-1.5,0-3.4,0.9-5.9,2.8L19.6,36.6z M35.5,17.5c2.7,1.7,4.1,3,4.1,4.1c0,0.4-0.3,0.9-0.8,1.6
		c-0.5,0.6-1.2,0.9-2,0.9c-1.9,0-3.5-1.1-5-3.3c-1.5-2.2-2.2-4.2-2.2-6.1c0.4-0.2,0.7-0.3,0.9-0.3C32,15.3,33.7,16.3,35.5,17.5z
		 M46.5,16.9c0.6,0.6,1.9,1.8,3.8,3.4c0.6,0.8,0.9,1.7,0.9,2.5c0,0.6-0.3,1.1-0.9,1.6C49.6,24.8,49,25,48.4,25
		c-2.5,0-4.9-2.9-7.2-8.8l-0.3-0.9v-0.6l0.3-0.3C43,14.8,44.8,15.7,46.5,16.9z"/>
	<path d="M113.7,10c1-2.3,2.3-4.2,3.9-5.6c1.6-1.5,3.6-2.9,6.1-4.4h1.3c0,1.3-0.7,4-2.2,8.1c-0.6,2.9-0.7,4.9-0.3,5.9
		c-2.5,1-5.6,2.6-9.4,4.7c-12.5,8.8-24.3,14.8-35.3,18.1c-5.6,2.1-10.7,3.8-15.3,5c-3.8,2.9-6.1,4.4-7.2,4.4
		c-1.3,0.2-2.6-1.3-4.1-4.4c-0.8-2.5-1.3-4.4-1.3-5.6c0-1.7,0.6-2.5,1.9-2.5s2.8,0.7,4.7,2c1.9,1.4,4.1,1.9,6.6,1.7
		c2.3-0.4,7-1.7,14.1-3.8c5.8-1.9,11.3-4.1,16.3-6.6c8.8-4.8,14.3-8.3,16.6-10.6L113.7,10z"/>
</g>
<path d="M6.5,43c-0.2,0-0.4,0-0.6,0c-1.8,0-3.6,0-5.4,0c0-2,0-4,0-6c1.7,0,3.3,0,5,0c0.7-0.3,1.3-0.7,2-1c0.3,1.7,0.7,3.3,1,5
	c-0.3,0.3-0.7,0.7-1,1S6.8,42.7,6.5,43z"/>
</svg>
