<?xml version="1.0" encoding="utf-8"?>
<!-- Generator: Adobe Illustrator 22.0.0, SVG Export Plug-In . SVG Version: 6.00 Build 0)  -->
<svg version="1.1" id="图层_1" xmlns="http://www.w3.org/2000/svg" xmlns:xlink="http://www.w3.org/1999/xlink" x="0px" y="0px"
	 viewBox="0 0 79.6 81.6" style="enable-background:new 0 0 79.6 81.6;" xml:space="preserve">
<g>
	<path d="M15.2,52.9c6.7-0.4,11.7-5.8,15-16.2c1.5-2.9,2.6-4.4,3.4-4.4c0.8,0,1.5,0.5,1.9,1.6c0.4,2.3,1.3,3.5,2.5,3.8
		c1.7,0,4,0,6.9,0v5.6c-1.3,0-3,0.1-5.3,0.3c-1.3,1-2.6,2-4.1,2.8c-1,0-2.1-0.9-3.1-2.8c-1.7,3.1-2.8,5.1-3.4,5.9
		c-3.3,6-7.9,9.1-13.8,9.1c-3.5-0.4-6.3-2.1-8.1-5S4.7,47.8,5.5,45c-1.3-0.4-2.3-1.5-3.3-3.3C1.3,40,1,38.3,1.2,36.6
		c0.4-2.3,1.3-3.4,2.5-3.4c0.4,0,0.9,0.2,1.6,0.6c1,2.9,2.5,4.3,4.4,4.1c2.3-0.2,3.3-1.5,3.1-3.8c-0.2-1.9-0.5-3.4-0.9-4.7
		c0.2-1.3,0.6-2,1.3-2.2c4,0.8,5.7,3.5,5.3,8.1c-0.6,1.7-2.3,3.4-5.2,5.3C10.4,42.5,9,44.7,9,47.2C9.6,50.8,11.7,52.6,15.2,52.9z
		 M22.4,15.4c2.5,1,3.5,2.5,3.1,4.4c0,1.5-0.9,2.2-2.8,2.2c-1.9-0.2-3.4-1.4-4.7-3.4c-1.3-2.1-1.7-4.2-1.3-6.3c0.6,0,1.1,0,1.6,0
		C19,13.1,20.3,14.1,22.4,15.4z M31.5,12.5c2.7,1,3.9,2.5,3.4,4.4c0,1.5-0.9,2.2-2.8,2.2c-1.9-0.2-3.4-1.4-4.7-3.4
		c-1.3-2.1-1.7-4.2-1.3-6.3c0.6,0,1.1,0,1.6,0C28.4,10.3,29.6,11.3,31.5,12.5z"/>
	<path d="M47.7,29.7c1.7-5,5.7-8.3,12.2-10c6-0.2,9.9,0.8,11.6,3.1c1.7,2.3,2.3,4.1,1.9,5.3c0.4,2.7-0.5,5.5-2.8,8.4
		c-0.4,0.2-0.6,0.5-0.6,0.9c1.3,0.2,4.6,0.2,10,0v5.6l-11.6-0.3c-4.6,1.5-7.1,2.3-7.5,2.5c-2.3,0-4.9-0.4-8-1.1
		c-3-0.7-5.9-1.1-8.6-1.1v-5.6c1,0,1.9-0.1,2.5-0.3C46.8,34.7,47.1,32.2,47.7,29.7z M57.1,38.5c3.1,0,5.9-0.6,8.4-1.9
		c2.3-3.5,2.3-6.5,0-8.8c-1.3-0.8-3-1.3-5.3-1.3c-2.5,0.2-4.6,0.9-6.3,2c-1.7,1.1-2.7,2.8-3.1,4.8c-0.4,1.5-0.2,2.8,0.6,4.1
		C53.1,38.2,55,38.5,57.1,38.5z"/>
</g>
</svg>
