<?xml version="1.0" encoding="utf-8"?>
<!-- Generator: Adobe Illustrator 22.0.0, SVG Export Plug-In . SVG Version: 6.00 Build 0)  -->
<svg version="1.1" id="图层_1" xmlns="http://www.w3.org/2000/svg" xmlns:xlink="http://www.w3.org/1999/xlink" x="0px" y="0px"
	 viewBox="0 0 100.6 81.6" style="enable-background:new 0 0 100.6 81.6;" xml:space="preserve">
<g>
	<path d="M9.3,37.5v5.6c-0.8,1-2.2,1.6-4.1,1.6c-2.1-0.8-3.3-2-3.8-3.4c-0.4-1.7-0.3-2.7,0.3-3.1C4.9,39.4,7.4,39.2,9.3,37.5z
		 M15.5,25.8c-0.4-1.4-0.8-2.3-1.3-3c-0.4-0.6-0.6-1-0.6-1.3c0.4-0.6,1.1-0.9,2.2-0.9c2.3,0.4,4.1,1.4,5.3,2.8c2.1,0,3.8-0.6,5-1.9
		c2.3-1.9,4.7-4.5,7.2-7.8c0.4-0.2,0.8,0.1,1.3,0.9c0.4,0.4,0.3,1.5-0.3,3.1c-0.6,1.7-1.5,3.2-2.5,4.5c-1,1.4-2.9,3.4-5.6,6.1
		L17.7,36c0.4,1.3,1,2,1.9,2.2c9.2-0.4,14.8-0.6,16.9-0.6v5.6h-5l-9.7,0.3c-1.7,1.5-3.4,1.9-5.3,1.3c-0.8-1-1.3-2.5-1.3-4.4
		l-0.3-2.2c-1.7,1.3-3.5,2.9-5.6,5v-5.6c1.3-0.8,3.5-3,6.9-6.6C16.2,28.9,16,27.2,15.5,25.8z"/>
	<path d="M76.5,44.1c4.2,2.7,7.7,5.5,10.6,8.4c3.3,3.3,6,6.3,8.1,8.8c1.5,1.7,2.6,2.8,3.4,3.4c0.8,0.6,1.3,1.2,1.3,1.7
		s-0.3,1.3-0.9,2.3s-1.3,3.3-1.9,6.9c0,1.7-0.1,2.5-0.3,2.5c-2.1-0.8-3.6-2.6-4.7-5.3l-1.6-7.5c-0.4-2.3-1.5-4.7-3.1-7.2
		c-4.2-4.4-7.4-7.3-9.7-8.8C70.9,45,61.9,43,50.9,43.2h-15v-5.6c11,0,17.8,0,20.3,0C63.5,38,70.2,40.1,76.5,44.1z"/>
</g>
</svg>
