<?xml version="1.0" encoding="utf-8"?>
<!-- Generator: Adobe Illustrator 22.0.0, SVG Export Plug-In . SVG Version: 6.00 Build 0)  -->
<svg version="1.1" id="图层_1" xmlns="http://www.w3.org/2000/svg" xmlns:xlink="http://www.w3.org/1999/xlink" x="0px" y="0px"
	 viewBox="0 0 51.3 81.6" style="enable-background:new 0 0 51.3 81.6;" xml:space="preserve">
<g>
	<path d="M12.1,25.8c-0.4-1.4-0.8-2.3-1.3-3c-0.4-0.6-0.6-1-0.6-1.3c0.4-0.6,1.1-0.9,2.2-0.9c2.3,0.4,4.1,1.4,5.3,2.8
		c2.1,0,3.8-0.6,5-1.9c2.3-1.9,4.7-4.5,7.2-7.8c0.4-0.2,0.8,0.1,1.3,0.9c0.4,0.4,0.3,1.5-0.3,3.1c-0.6,1.7-1.5,3.2-2.5,4.5
		c-1,1.4-2.9,3.4-5.6,6.1L14.3,36c0.4,1.3,1,2,1.9,2.2c9.2-0.4,14.8-0.6,16.9-0.6v5.6h-5l-9.7,0.3c-1.7,1.5-3.4,1.9-5.3,1.3
		c-0.8-1-1.3-2.5-1.3-4.4l-0.3-2.2c-1.7,1.3-3.5,2.9-5.6,5v-5.6c1.3-0.8,3.5-3,6.9-6.6C12.7,28.9,12.5,27.2,12.1,25.8z"/>
	<path d="M41.5,30.7c0.8-0.6,1.5-0.4,1.9,0.6c-0.2,1-0.8,2.3-1.9,3.8c-0.6,0.8-0.8,1.8-0.6,2.8c0.8,0.2,2.1,0.2,3.8,0
		c2.5-0.2,4.5-0.3,5.9-0.3v5.6c-2.9,0-6.3,0.1-10,0.3c-1,0-1.7-0.2-2-0.6s-0.7-1.4-1.1-2.8c-1.9,1.3-3.4,2.3-4.7,3.1v-5.6
		c1.3-1,2.5-2,3.8-2.8C38.6,32.9,40.2,31.5,41.5,30.7z"/>
</g>
<path d="M6.5,43c-0.2,0-0.4,0-0.6,0c-1.8,0-3.6,0-5.4,0c0-2,0-4,0-6c1.7,0,3.3,0,5,0c0.7-0.3,1.3-0.7,2-1c0.3,1.7,0.7,3.3,1,5
	c-0.3,0.3-0.7,0.7-1,1S6.8,42.7,6.5,43z"/>
</svg>
