<?xml version="1.0" encoding="utf-8"?>
<!-- Generator: Adobe Illustrator 22.0.0, SVG Export Plug-In . SVG Version: 6.00 Build 0)  -->
<svg version="1.1" id="图层_1" xmlns="http://www.w3.org/2000/svg" xmlns:xlink="http://www.w3.org/1999/xlink" x="0px" y="0px"
	 viewBox="0 0 133.7 81.6" style="enable-background:new 0 0 133.7 81.6;" xml:space="preserve">
<g>
	<path d="M30.5,49.4c-0.8,0.2-1.6,0.3-2.2,0.3c-1.9,0-3.6-0.7-5.3-2.2c-0.4-0.2-1.3-1.5-2.7-3.8c-1.4-2.3-2.3-3.6-3-4.1
		c-2.9,2.5-6.8,3.6-11.6,3.4v-5.6c4.4,0,7.4-0.8,9.1-2.5c-0.2-0.8-0.9-2.6-2-5.3c-1.1-2.7-1.7-4.7-1.7-5.9l0.9-0.3
		c1.3,0,4.1,2.3,8.4,6.9c0.4,0.2,0.7,0.3,0.9,0.3c1.7,0,4.3-1.7,7.8-5l6.3-5.9c1.3-0.2,1.9,0.1,1.9,0.9c-1.9,4.2-4.7,8.1-8.4,11.9
		c-1,1-1.6,2-1.6,2.8c0,1.3,0.9,2,2.8,2.2c2.1,0,5.1-0.2,9.1-0.5c4-0.3,7-0.5,9.1-0.5c0,0.8-0.6,1.6-1.9,2.2c-3.1,0.8-5.6,2-7.5,3.4
		C37.7,42.9,34.9,45.3,30.5,49.4z"/>
	<path d="M122.1,10c1-2.3,2.3-4.2,3.9-5.6c1.6-1.5,3.6-2.9,6.1-4.4h1.3c0,1.3-0.7,4-2.2,8.1c-0.6,2.9-0.7,4.9-0.3,5.9
		c-2.5,1-5.6,2.6-9.4,4.7C109,27.5,97.2,33.6,86.2,36.9c-5.6,2.1-10.7,3.8-15.3,5c-3.8,2.9-6.1,4.4-7.2,4.4
		c-1.3,0.2-2.6-1.3-4.1-4.4c-0.8-2.5-1.3-4.4-1.3-5.6c0-1.7,0.6-2.5,1.9-2.5s2.8,0.7,4.7,2c1.9,1.4,4.1,1.9,6.6,1.7
		c2.3-0.4,7-1.7,14.1-3.8c5.8-1.9,11.3-4.1,16.3-6.6c8.8-4.8,14.3-8.3,16.6-10.6L122.1,10z"/>
</g>
<path d="M6.5,43c-0.2,0-0.4,0-0.6,0c-1.8,0-3.6,0-5.4,0c0-2,0-4,0-6c1.7,0,3.3,0,5,0c0.7-0.3,1.3,0.3,2,0c0.3,1.7,0.7,2.3,1,4
	c-0.3,0.3-0.7,0.7-1,1S6.8,42.7,6.5,43z"/>
</svg>
