<?xml version="1.0" encoding="utf-8"?>
<!-- Generator: Adobe Illustrator 22.0.0, SVG Export Plug-In . SVG Version: 6.00 Build 0)  -->
<svg version="1.1" id="图层_1" xmlns="http://www.w3.org/2000/svg" xmlns:xlink="http://www.w3.org/1999/xlink" x="0px" y="0px"
	 viewBox="0 0 56.9 81.6" style="enable-background:new 0 0 56.9 81.6;" xml:space="preserve">
<g>
	<path d="M9.3,37.5v5.6c-0.8,1-2.2,1.6-4.1,1.6c-2.1-0.8-3.3-2-3.8-3.4c-0.4-1.7-0.3-2.7,0.3-3.1C4.9,39.4,7.4,39.2,9.3,37.5z
		 M13,27.9c-0.4-1.5-0.6-2.7-0.6-3.8c0-0.6,0.5-1.1,1.6-1.6c1.7,0,2.9,1.3,3.8,3.8c0.4,0.6,1,0.9,1.9,0.9c1.5,0,3.8-1.7,6.9-5l5-5
		c0.8-0.2,1.4,0.1,1.6,0.9c-0.2,1.7-1,3.4-2.5,5.3c-2.9,4.2-6.6,8-10.9,11.6c-0.2,0.8,0.1,2,0.9,3.4c0.8,1.5,2.1,2.2,3.8,2.2
		c1.5,0,3.9-1,7.2-3.1v5.6c-4,2.9-7.4,4.5-10.3,4.7c-2.1,0-3.5-0.7-4.4-2.2c-1.3-1.5-2.1-4-2.5-7.5c-1.7,1.7-3.3,3.3-5,5v-5.6
		c2.1-2.1,3.6-3.5,4.7-4.4C13.8,31.1,13.5,29.3,13,27.9z"/>
	<path d="M37.1,41.8c-0.4-1.1-0.8-2-1.3-2.7c-1.5,1.3-3,2.6-4.7,4.1v-5.6c2.1-1.9,5.1-4.5,9.1-7.8l8.8-6.6c0.6-0.2,1,0,1.3,0.6
		c-0.6,1.9-1.9,3.6-3.8,5.3c-0.6,0.8-3.2,3.2-7.8,7.2c-0.2,0.2-0.2,0.7,0,1.6l17.8-0.3v5.6H43.4c-0.8,0.2-2.2,0.3-4.1,0.3
		C38.3,43.5,37.5,42.9,37.1,41.8z"/>
</g>
</svg>
