<?xml version="1.0" encoding="utf-8"?>
<!-- Generator: Adobe Illustrator 22.0.0, SVG Export Plug-In . SVG Version: 6.00 Build 0)  -->
<svg version="1.1" id="图层_1" xmlns="http://www.w3.org/2000/svg" xmlns:xlink="http://www.w3.org/1999/xlink" x="0px" y="0px"
	 viewBox="0 0 53.6 81.6" style="enable-background:new 0 0 53.6 81.6;" xml:space="preserve">
<g>
	<path d="M9.6,27.9C9.2,26.4,9,25.1,9,24.1c0-0.6,0.5-1.1,1.6-1.6c1.7,0,2.9,1.3,3.8,3.8c0.4,0.6,1,0.9,1.9,0.9c1.5,0,3.8-1.7,6.9-5
		l5-5c0.8-0.2,1.4,0.1,1.6,0.9c-0.2,1.7-1,3.4-2.5,5.3c-2.9,4.2-6.6,8-10.9,11.6c-0.2,0.8,0.1,2,0.9,3.4c0.8,1.5,2.1,2.2,3.8,2.2
		c1.5,0,3.9-1,7.2-3.1v5.6c-4,2.9-7.4,4.5-10.3,4.7c-2.1,0-3.5-0.7-4.4-2.2c-1.3-1.5-2.1-4-2.5-7.5c-1.7,1.7-3.3,3.3-5,5v-5.6
		c2.1-2.1,3.6-3.5,4.7-4.4C10.3,31.1,10,29.3,9.6,27.9z"/>
	<path d="M33.7,41.8c-0.4-1.1-0.8-2-1.3-2.7c-1.5,1.3-3,2.6-4.7,4.1v-5.6c2.1-1.9,5.1-4.5,9.1-7.8l8.8-6.6c0.6-0.2,1,0,1.3,0.6
		c-0.6,1.9-1.9,3.6-3.8,5.3c-0.6,0.8-3.2,3.2-7.8,7.2c-0.2,0.2-0.2,0.7,0,1.6L53,37.5v5.6H39.9c-0.8,0.2-2.2,0.3-4.1,0.3
		C34.8,43.5,34.1,42.9,33.7,41.8z"/>
</g>
<path d="M6.5,43c-0.2,0-0.4,0-0.6,0c-1.8,0-3.6,0-5.4,0c0-2,0-4,0-6c1.7,0,3.3,0,5,0c0.7-0.3,1.3-0.7,2-1c0.3,1.7,0.7,3.3,1,5
	c-0.3,0.3-0.7,0.7-1,1S6.8,42.7,6.5,43z"/>
</svg>
