<?xml version="1.0" encoding="utf-8"?>
<!-- Generator: Adobe Illustrator 22.0.0, SVG Export Plug-In . SVG Version: 6.00 Build 0)  -->
<svg version="1.1" id="图层_1" xmlns="http://www.w3.org/2000/svg" xmlns:xlink="http://www.w3.org/1999/xlink" x="0px" y="0px"
	 viewBox="0 0 77.4 81.6" style="enable-background:new 0 0 77.4 81.6;" xml:space="preserve">
<g>
	<path d="M12.1,25.8c-0.4-1.4-0.8-2.3-1.3-3c-0.4-0.6-0.6-1-0.6-1.3c0.4-0.6,1.1-0.9,2.2-0.9c2.3,0.4,4.1,1.4,5.3,2.8
		c2.1,0,3.8-0.6,5-1.9c2.3-1.9,4.7-4.5,7.2-7.8c0.4-0.2,0.8,0.1,1.3,0.9c0.4,0.4,0.3,1.5-0.3,3.1c-0.6,1.7-1.5,3.2-2.5,4.5
		c-1,1.4-2.9,3.4-5.6,6.1L14.3,36c0.4,1.3,1,2,1.9,2.2c9.2-0.4,14.8-0.6,16.9-0.6v5.6h-5l-9.7,0.3c-1.7,1.5-3.4,1.9-5.3,1.3
		c-0.8-1-1.3-2.5-1.3-4.4l-0.3-2.2c-1.7,1.3-3.5,2.9-5.6,5v-5.6c1.3-0.8,3.5-3,6.9-6.6C12.7,28.9,12.5,27.2,12.1,25.8z"/>
	<path d="M48.4,29.1c0,0.8-0.5,2.2-1.6,4.2c-1,2-1.6,3.1-1.6,3.3c0,1.5,0.5,2.7,1.6,3.6c1,0.9,2.3,1.4,3.8,1.4
		c1.3,0,5.2-1.9,11.9-5.6c7.5-4.2,12.1-6.6,13.8-7.2c0.4,0,0.6,0.2,0.6,0.6L76.5,30c-5.8,4.8-9.1,7.5-9.7,8.1c-3.8,4-6,6.5-6.9,7.5
		c-2.7,2.7-4.6,4.1-5.6,4.1c-2.7,0.4-5-0.4-6.9-2.5c-2.1-2.7-3.6-5.4-4.7-8.1c-0.2-0.4-0.6-0.4-1.3,0c-2.9,1.7-5.8,3-8.8,4.1v-5.6
		c3.8-0.8,8.4-3.8,14.1-8.8C47.6,28.2,48.1,28.3,48.4,29.1z"/>
</g>
<path d="M6.5,43c-0.2,0-0.4,0-0.6,0c-1.8,0-3.6,0-5.4,0c0-2,0-4,0-6c1.7,0,3.3,0,5,0c0.7-0.3,1.3-0.7,2-1c0.3,1.7,0.7,3.3,1,5
	c-0.3,0.3-0.7,0.7-1,1S6.8,42.7,6.5,43z"/>
</svg>
