<?xml version="1.0" encoding="utf-8"?>
<!-- Generator: Adobe Illustrator 22.0.0, SVG Export Plug-In . SVG Version: 6.00 Build 0)  -->
<svg version="1.1" id="图层_1" xmlns="http://www.w3.org/2000/svg" xmlns:xlink="http://www.w3.org/1999/xlink" x="0px" y="0px"
	 viewBox="0 0 85.6 81.6" style="enable-background:new 0 0 85.6 81.6;" xml:space="preserve">
<g>
	<path d="M9.3,37.5v5.6c-0.8,1-2.2,1.6-4.1,1.6c-2.1-0.8-3.3-2-3.8-3.4c-0.4-1.7-0.3-2.7,0.3-3.1C4.9,39.4,7.4,39.2,9.3,37.5z
		 M15.5,25.8c-0.4-1.4-0.8-2.3-1.3-3c-0.4-0.6-0.6-1-0.6-1.3c0.4-0.6,1.1-0.9,2.2-0.9c2.3,0.4,4.1,1.4,5.3,2.8c2.1,0,3.8-0.6,5-1.9
		c2.3-1.9,4.7-4.5,7.2-7.8c0.4-0.2,0.8,0.1,1.3,0.9c0.4,0.4,0.3,1.5-0.3,3.1c-0.6,1.7-1.5,3.2-2.5,4.5c-1,1.4-2.9,3.4-5.6,6.1
		L17.7,36c0.4,1.3,1,2,1.9,2.2c9.2-0.4,14.8-0.6,16.9-0.6v5.6h-5l-9.7,0.3c-1.7,1.5-3.4,1.9-5.3,1.3c-0.8-1-1.3-2.5-1.3-4.4
		l-0.3-2.2c-1.7,1.3-3.5,2.9-5.6,5v-5.6c1.3-0.8,3.5-3,6.9-6.6C16.2,28.9,16,27.2,15.5,25.8z"/>
	<path d="M39.3,29.7c1.7-5,5.7-8.3,12.2-10c6-0.2,9.9,0.8,11.6,3.1c1.7,2.3,2.3,4.1,1.9,5.3c0.4,2.7-0.5,5.5-2.8,8.4
		c-0.4,0.2-0.6,0.5-0.6,0.9c1.3,0.2,2.8,0.2,4.7,0v5.6l-6.3-0.3c-4.6,1.5-7.1,2.3-7.5,2.5c-2.3,0-4.9-0.4-8-1.1
		c-3-0.7-5.9-1.1-8.6-1.1v-5.6c1,0,1.9-0.1,2.5-0.3C38.4,34.7,38.7,32.2,39.3,29.7z M48.7,38.5c3.1,0,5.9-0.6,8.4-1.9
		c2.3-3.5,2.3-6.5,0-8.8c-1.3-0.8-3-1.3-5.3-1.3c-2.5,0.2-4.6,0.9-6.3,2c-1.7,1.1-2.7,2.8-3.1,4.8c-0.4,1.5-0.2,2.8,0.6,4.1
		C44.7,38.2,46.6,38.5,48.7,38.5z M82,38.3c-1.8,3.9-3.6,5.7-5.5,5.5c-3.8-0.4-7.2-0.6-10.3-0.6v-5.6c3.3,0.2,5.2,0.1,5.6-0.3
		c4.2-1,7.2-3.1,9.1-6.3c1-1.7,2-2.9,2.8-3.8c0.4,0,0.7,0.3,0.9,0.9v1.3C84.6,31.5,83.7,34.5,82,38.3z"/>
</g>
</svg>
