<?xml version="1.0" encoding="utf-8"?>
<!-- Generator: Adobe Illustrator 22.0.0, SVG Export Plug-In . SVG Version: 6.00 Build 0)  -->
<svg version="1.1" id="图层_1" xmlns="http://www.w3.org/2000/svg" xmlns:xlink="http://www.w3.org/1999/xlink" x="0px" y="0px"
	 viewBox="0 0 151.3 81.6" style="enable-background:new 0 0 151.3 81.6;" xml:space="preserve">
<g>
	<path d="M41.5,44.1c4.2,2.7,7.7,5.5,10.6,8.4c3.3,3.3,6,6.3,8.1,8.8c1.5,1.7,2.6,2.8,3.4,3.4c0.8,0.6,1.3,1.2,1.3,1.7
		s-0.3,1.3-0.9,2.3s-1.3,3.3-1.9,6.9c0,1.7-0.1,2.5-0.3,2.5c-2.1-0.8-3.6-2.6-4.7-5.3l-1.6-7.5c-0.4-2.3-1.5-4.7-3.1-7.2
		c-4.2-4.4-7.4-7.3-9.7-8.8C35.9,45,26.9,43,15.9,43.2h-15v-5.6c11,0,17.8,0,20.3,0C28.5,38,35.2,40.1,41.5,44.1z M62.1,36.6
		c2.5,1,3.5,2.5,3.1,4.4c0,1.5-0.9,2.2-2.8,2.2c-1.9-0.2-3.4-1.4-4.7-3.4c-1.3-2.1-1.7-4.2-1.3-6.3c0.6,0,1.1,0,1.6,0
		C58.7,34.3,60,35.4,62.1,36.6z"/>
	<path d="M139.3,10c1-2.3,2.3-4.2,3.9-5.6c1.6-1.5,3.6-2.9,6.1-4.4h1.3c0,1.3-0.7,4-2.2,8.1c-0.6,2.9-0.7,4.9-0.3,5.9
		c-2.5,1-5.6,2.6-9.4,4.7c-12.5,8.8-24.3,14.8-35.3,18.1c-5.6,2.1-10.7,3.8-15.3,5c-3.8,2.9-6.1,4.4-7.2,4.4
		c-1.3,0.2-2.6-1.3-4.1-4.4c-0.8-2.5-1.3-4.4-1.3-5.6c0-1.7,0.6-2.5,1.9-2.5s2.8,0.7,4.7,2c1.9,1.4,4.1,1.9,6.6,1.7
		c2.3-0.4,7-1.7,14.1-3.8c5.8-1.9,11.3-4.1,16.3-6.6c8.8-4.8,14.3-8.3,16.6-10.6L139.3,10z"/>
</g>
</svg>
